solid OpenSCAD_Model
  facet normal 0.346129 -0.938187 0
    outer loop
      vertex -1.05238 2.54067 0.0999994
      vertex -0.849796 2.61541 8
      vertex -1.05238 2.54067 8
    endloop
  endfacet
  facet normal 0.346129 -0.938187 0
    outer loop
      vertex -0.849796 2.61541 8
      vertex -1.05238 2.54067 0.0999994
      vertex -0.849796 2.61541 0.0999994
    endloop
  endfacet
  facet normal -0.418665 -0.908141 0
    outer loop
      vertex 1.05238 2.54067 0.0999994
      vertex 1.24847 2.45027 8
      vertex 1.05238 2.54067 8
    endloop
  endfacet
  facet normal -0.418665 -0.908141 -0
    outer loop
      vertex 1.24847 2.45027 8
      vertex 1.05238 2.54067 0.0999994
      vertex 1.24847 2.45027 0.0999994
    endloop
  endfacet
  facet normal -0.117539 -0.993068 0
    outer loop
      vertex 0.215762 2.74152 0.0999994
      vertex 0.430194 2.71614 8
      vertex 0.215762 2.74152 8
    endloop
  endfacet
  facet normal -0.117539 -0.993068 -0
    outer loop
      vertex 0.430194 2.71614 8
      vertex 0.215762 2.74152 0.0999994
      vertex 0.430194 2.71614 0.0999994
    endloop
  endfacet
  facet normal -0.271432 0.962457 0
    outer loop
      vertex 0.849796 -2.61541 0.0999994
      vertex 0.641974 -2.67402 8
      vertex 0.849796 -2.61541 8
    endloop
  endfacet
  facet normal -0.271432 0.962457 0
    outer loop
      vertex 0.641974 -2.67402 8
      vertex 0.849796 -2.61541 0.0999994
      vertex 0.641974 -2.67402 0.0999994
    endloop
  endfacet
  facet normal 0.346129 0.938187 -0
    outer loop
      vertex -0.849796 -2.61541 0.0999994
      vertex -1.05238 -2.54067 8
      vertex -0.849796 -2.61541 8
    endloop
  endfacet
  facet normal 0.346129 0.938187 0
    outer loop
      vertex -1.05238 -2.54067 8
      vertex -0.849796 -2.61541 0.0999994
      vertex -1.05238 -2.54067 0.0999994
    endloop
  endfacet
  facet normal -0.346129 -0.938187 0
    outer loop
      vertex 0.849796 2.61541 0.0999994
      vertex 1.05238 2.54067 8
      vertex 0.849796 2.61541 8
    endloop
  endfacet
  facet normal -0.346129 -0.938187 -0
    outer loop
      vertex 1.05238 2.54067 8
      vertex 0.849796 2.61541 0.0999994
      vertex 1.05238 2.54067 0.0999994
    endloop
  endfacet
  facet normal -0.271432 -0.962457 0
    outer loop
      vertex 0.641974 2.67402 0.0999994
      vertex 0.849796 2.61541 8
      vertex 0.641974 2.67402 8
    endloop
  endfacet
  facet normal -0.271432 -0.962457 -0
    outer loop
      vertex 0.849796 2.61541 8
      vertex 0.641974 2.67402 0.0999994
      vertex 0.849796 2.61541 0.0999994
    endloop
  endfacet
  facet normal -0.619116 -0.785299 0
    outer loop
      vertex 1.61641 2.2248 0.0999994
      vertex 1.75 2.11948 8
      vertex 1.61641 2.2248 8
    endloop
  endfacet
  facet normal -0.619116 -0.785299 -0
    outer loop
      vertex 1.75 2.11948 8
      vertex 1.61641 2.2248 0.0999994
      vertex 1.75 2.11948 0.0999994
    endloop
  endfacet
  facet normal -0.555555 -0.83148 0
    outer loop
      vertex 1.43687 2.34476 0.0999994
      vertex 1.61641 2.2248 8
      vertex 1.43687 2.34476 8
    endloop
  endfacet
  facet normal -0.555555 -0.83148 -0
    outer loop
      vertex 1.61641 2.2248 8
      vertex 1.43687 2.34476 0.0999994
      vertex 1.61641 2.2248 0.0999994
    endloop
  endfacet
  facet normal 0.555555 -0.83148 0
    outer loop
      vertex -1.61641 2.2248 0.0999994
      vertex -1.43687 2.34476 8
      vertex -1.61641 2.2248 8
    endloop
  endfacet
  facet normal 0.555555 -0.83148 0
    outer loop
      vertex -1.43687 2.34476 8
      vertex -1.61641 2.2248 0.0999994
      vertex -1.43687 2.34476 0.0999994
    endloop
  endfacet
  facet normal 0.418665 -0.908141 0
    outer loop
      vertex -1.24847 2.45027 0.0999994
      vertex -1.05238 2.54067 8
      vertex -1.24847 2.45027 8
    endloop
  endfacet
  facet normal 0.418665 -0.908141 0
    outer loop
      vertex -1.05238 2.54067 8
      vertex -1.24847 2.45027 0.0999994
      vertex -1.05238 2.54067 0.0999994
    endloop
  endfacet
  facet normal 0.117539 -0.993068 0
    outer loop
      vertex -0.430194 2.71614 0.0999994
      vertex -0.215762 2.74152 8
      vertex -0.430194 2.71614 8
    endloop
  endfacet
  facet normal 0.117539 -0.993068 0
    outer loop
      vertex -0.215762 2.74152 8
      vertex -0.430194 2.71614 0.0999994
      vertex -0.215762 2.74152 0.0999994
    endloop
  endfacet
  facet normal 0.195065 -0.98079 0
    outer loop
      vertex -0.641974 2.67402 0.0999994
      vertex -0.430194 2.71614 8
      vertex -0.641974 2.67402 8
    endloop
  endfacet
  facet normal 0.195065 -0.98079 0
    outer loop
      vertex -0.430194 2.71614 8
      vertex -0.641974 2.67402 0.0999994
      vertex -0.430194 2.71614 0.0999994
    endloop
  endfacet
  facet normal -0.195065 0.98079 0
    outer loop
      vertex 0.641974 -2.67402 0.0999994
      vertex 0.430194 -2.71614 8
      vertex 0.641974 -2.67402 8
    endloop
  endfacet
  facet normal -0.195065 0.98079 0
    outer loop
      vertex 0.430194 -2.71614 8
      vertex 0.641974 -2.67402 0.0999994
      vertex 0.430194 -2.71614 0.0999994
    endloop
  endfacet
  facet normal -0.619116 0.785299 0
    outer loop
      vertex 1.75 -2.11948 0.0999994
      vertex 1.61641 -2.2248 8
      vertex 1.75 -2.11948 8
    endloop
  endfacet
  facet normal -0.619116 0.785299 0
    outer loop
      vertex 1.61641 -2.2248 8
      vertex 1.75 -2.11948 0.0999994
      vertex 1.61641 -2.2248 0.0999994
    endloop
  endfacet
  facet normal 0.195065 0.98079 -0
    outer loop
      vertex -0.430194 -2.71614 0.0999994
      vertex -0.641974 -2.67402 8
      vertex -0.430194 -2.71614 8
    endloop
  endfacet
  facet normal 0.195065 0.98079 0
    outer loop
      vertex -0.641974 -2.67402 8
      vertex -0.430194 -2.71614 0.0999994
      vertex -0.641974 -2.67402 0.0999994
    endloop
  endfacet
  facet normal 0.117539 0.993068 -0
    outer loop
      vertex -0.215762 -2.74152 0.0999994
      vertex -0.430194 -2.71614 8
      vertex -0.215762 -2.74152 8
    endloop
  endfacet
  facet normal 0.117539 0.993068 0
    outer loop
      vertex -0.430194 -2.71614 8
      vertex -0.215762 -2.74152 0.0999994
      vertex -0.430194 -2.71614 0.0999994
    endloop
  endfacet
  facet normal 0.619116 0.785299 -0
    outer loop
      vertex -1.61641 -2.2248 0.0999994
      vertex -1.75 -2.11948 8
      vertex -1.61641 -2.2248 8
    endloop
  endfacet
  facet normal 0.619116 0.785299 0
    outer loop
      vertex -1.75 -2.11948 8
      vertex -1.61641 -2.2248 0.0999994
      vertex -1.75 -2.11948 0.0999994
    endloop
  endfacet
  facet normal -0.0392722 -0.999229 0
    outer loop
      vertex 0 2.75 0.0999994
      vertex 0.215762 2.74152 8
      vertex 0 2.75 8
    endloop
  endfacet
  facet normal -0.0392722 -0.999229 -0
    outer loop
      vertex 0.215762 2.74152 8
      vertex 0 2.75 0.0999994
      vertex 0.215762 2.74152 0.0999994
    endloop
  endfacet
  facet normal -0.195065 -0.98079 0
    outer loop
      vertex 0.430194 2.71614 0.0999994
      vertex 0.641974 2.67402 8
      vertex 0.430194 2.71614 8
    endloop
  endfacet
  facet normal -0.195065 -0.98079 -0
    outer loop
      vertex 0.641974 2.67402 8
      vertex 0.430194 2.71614 0.0999994
      vertex 0.641974 2.67402 0.0999994
    endloop
  endfacet
  facet normal -0.488625 -0.872494 0
    outer loop
      vertex 1.24847 2.45027 0.0999994
      vertex 1.43687 2.34476 8
      vertex 1.24847 2.45027 8
    endloop
  endfacet
  facet normal -0.488625 -0.872494 -0
    outer loop
      vertex 1.43687 2.34476 8
      vertex 1.24847 2.45027 0.0999994
      vertex 1.43687 2.34476 0.0999994
    endloop
  endfacet
  facet normal 0 0 -1
    outer loop
      vertex 1.61641 -2.2248 8
      vertex 1.75 2.11948 8
      vertex 1.75 -2.11948 8
    endloop
  endfacet
  facet normal 0 0 -1
    outer loop
      vertex 1.61641 -2.2248 8
      vertex 1.61641 2.2248 8
      vertex 1.75 2.11948 8
    endloop
  endfacet
  facet normal 0 0 -1
    outer loop
      vertex 1.43687 -2.34476 8
      vertex 1.61641 2.2248 8
      vertex 1.61641 -2.2248 8
    endloop
  endfacet
  facet normal 0 0 -1
    outer loop
      vertex 1.43687 -2.34476 8
      vertex 1.43687 2.34476 8
      vertex 1.61641 2.2248 8
    endloop
  endfacet
  facet normal 0 0 -1
    outer loop
      vertex 1.24847 -2.45027 8
      vertex 1.43687 2.34476 8
      vertex 1.43687 -2.34476 8
    endloop
  endfacet
  facet normal 0 0 -1
    outer loop
      vertex 1.24847 -2.45027 8
      vertex 1.24847 2.45027 8
      vertex 1.43687 2.34476 8
    endloop
  endfacet
  facet normal 0 0 -1
    outer loop
      vertex 1.05238 -2.54067 8
      vertex 1.24847 2.45027 8
      vertex 1.24847 -2.45027 8
    endloop
  endfacet
  facet normal 0 0 -1
    outer loop
      vertex 1.05238 -2.54067 8
      vertex 1.05238 2.54067 8
      vertex 1.24847 2.45027 8
    endloop
  endfacet
  facet normal 0 0 -1
    outer loop
      vertex 0.849796 -2.61541 8
      vertex 1.05238 2.54067 8
      vertex 1.05238 -2.54067 8
    endloop
  endfacet
  facet normal 0 0 -1
    outer loop
      vertex 0.849796 -2.61541 8
      vertex 0.849796 2.61541 8
      vertex 1.05238 2.54067 8
    endloop
  endfacet
  facet normal 0 0 -1
    outer loop
      vertex 0.641974 -2.67402 8
      vertex 0.849796 2.61541 8
      vertex 0.849796 -2.61541 8
    endloop
  endfacet
  facet normal 0 0 -1
    outer loop
      vertex 0.641974 -2.67402 8
      vertex 0.641974 2.67402 8
      vertex 0.849796 2.61541 8
    endloop
  endfacet
  facet normal 0 0 -1
    outer loop
      vertex 0.430194 -2.71614 8
      vertex 0.641974 2.67402 8
      vertex 0.641974 -2.67402 8
    endloop
  endfacet
  facet normal 0 0 -1
    outer loop
      vertex 0.430194 -2.71614 8
      vertex 0.430194 2.71614 8
      vertex 0.641974 2.67402 8
    endloop
  endfacet
  facet normal 0 0 -1
    outer loop
      vertex 0.215762 -2.74152 8
      vertex 0.430194 2.71614 8
      vertex 0.430194 -2.71614 8
    endloop
  endfacet
  facet normal 0 0 -1
    outer loop
      vertex 0.215762 -2.74152 8
      vertex 0.215762 2.74152 8
      vertex 0.430194 2.71614 8
    endloop
  endfacet
  facet normal 0 0 -1
    outer loop
      vertex 0 -2.75 8
      vertex 0.215762 2.74152 8
      vertex 0.215762 -2.74152 8
    endloop
  endfacet
  facet normal 0 0 -1
    outer loop
      vertex 0 -2.75 8
      vertex 0 2.75 8
      vertex 0.215762 2.74152 8
    endloop
  endfacet
  facet normal 0 0 -1
    outer loop
      vertex -0.215762 -2.74152 8
      vertex 0 2.75 8
      vertex 0 -2.75 8
    endloop
  endfacet
  facet normal 0 0 -1
    outer loop
      vertex -0.215762 -2.74152 8
      vertex -0.215762 2.74152 8
      vertex 0 2.75 8
    endloop
  endfacet
  facet normal 0 0 -1
    outer loop
      vertex -0.430194 -2.71614 8
      vertex -0.215762 2.74152 8
      vertex -0.215762 -2.74152 8
    endloop
  endfacet
  facet normal 0 0 -1
    outer loop
      vertex -0.430194 -2.71614 8
      vertex -0.430194 2.71614 8
      vertex -0.215762 2.74152 8
    endloop
  endfacet
  facet normal 0 0 -1
    outer loop
      vertex -0.641974 -2.67402 8
      vertex -0.430194 2.71614 8
      vertex -0.430194 -2.71614 8
    endloop
  endfacet
  facet normal 0 0 -1
    outer loop
      vertex -0.641974 -2.67402 8
      vertex -0.641974 2.67402 8
      vertex -0.430194 2.71614 8
    endloop
  endfacet
  facet normal 0 0 -1
    outer loop
      vertex -0.849796 -2.61541 8
      vertex -0.641974 2.67402 8
      vertex -0.641974 -2.67402 8
    endloop
  endfacet
  facet normal 0 0 -1
    outer loop
      vertex -0.849796 -2.61541 8
      vertex -0.849796 2.61541 8
      vertex -0.641974 2.67402 8
    endloop
  endfacet
  facet normal 0 0 -1
    outer loop
      vertex -1.05238 -2.54067 8
      vertex -0.849796 2.61541 8
      vertex -0.849796 -2.61541 8
    endloop
  endfacet
  facet normal 0 0 -1
    outer loop
      vertex -1.05238 -2.54067 8
      vertex -1.05238 2.54067 8
      vertex -0.849796 2.61541 8
    endloop
  endfacet
  facet normal 0 0 -1
    outer loop
      vertex -1.24847 -2.45027 8
      vertex -1.05238 2.54067 8
      vertex -1.05238 -2.54067 8
    endloop
  endfacet
  facet normal 0 0 -1
    outer loop
      vertex -1.24847 -2.45027 8
      vertex -1.24847 2.45027 8
      vertex -1.05238 2.54067 8
    endloop
  endfacet
  facet normal 0 0 -1
    outer loop
      vertex -1.43687 -2.34476 8
      vertex -1.24847 2.45027 8
      vertex -1.24847 -2.45027 8
    endloop
  endfacet
  facet normal 0 0 -1
    outer loop
      vertex -1.43687 -2.34476 8
      vertex -1.43687 2.34476 8
      vertex -1.24847 2.45027 8
    endloop
  endfacet
  facet normal 0 0 -1
    outer loop
      vertex -1.61641 -2.2248 8
      vertex -1.43687 2.34476 8
      vertex -1.43687 -2.34476 8
    endloop
  endfacet
  facet normal 0 0 -1
    outer loop
      vertex -1.61641 -2.2248 8
      vertex -1.61641 2.2248 8
      vertex -1.43687 2.34476 8
    endloop
  endfacet
  facet normal 0 0 -1
    outer loop
      vertex -1.75 -2.11948 8
      vertex -1.61641 2.2248 8
      vertex -1.61641 -2.2248 8
    endloop
  endfacet
  facet normal 0 0 -1
    outer loop
      vertex -1.61641 2.2248 8
      vertex -1.75 -2.11948 8
      vertex -1.75 2.11948 8
    endloop
  endfacet
  facet normal 0.619116 -0.785299 0
    outer loop
      vertex -1.75 2.11948 0.0999994
      vertex -1.61641 2.2248 8
      vertex -1.75 2.11948 8
    endloop
  endfacet
  facet normal 0.619116 -0.785299 0
    outer loop
      vertex -1.61641 2.2248 8
      vertex -1.75 2.11948 0.0999994
      vertex -1.61641 2.2248 0.0999994
    endloop
  endfacet
  facet normal 0.488625 -0.872494 0
    outer loop
      vertex -1.43687 2.34476 0.0999994
      vertex -1.24847 2.45027 8
      vertex -1.43687 2.34476 8
    endloop
  endfacet
  facet normal 0.488625 -0.872494 0
    outer loop
      vertex -1.24847 2.45027 8
      vertex -1.43687 2.34476 0.0999994
      vertex -1.24847 2.45027 0.0999994
    endloop
  endfacet
  facet normal 0.271432 -0.962457 0
    outer loop
      vertex -0.849796 2.61541 0.0999994
      vertex -0.641974 2.67402 8
      vertex -0.849796 2.61541 8
    endloop
  endfacet
  facet normal 0.271432 -0.962457 0
    outer loop
      vertex -0.641974 2.67402 8
      vertex -0.849796 2.61541 0.0999994
      vertex -0.641974 2.67402 0.0999994
    endloop
  endfacet
  facet normal 0.0392722 -0.999229 0
    outer loop
      vertex -0.215762 2.74152 0.0999994
      vertex 0 2.75 8
      vertex -0.215762 2.74152 8
    endloop
  endfacet
  facet normal 0.0392722 -0.999229 0
    outer loop
      vertex 0 2.75 8
      vertex -0.215762 2.74152 0.0999994
      vertex 0 2.75 0.0999994
    endloop
  endfacet
  facet normal -0.0392722 0.999229 0
    outer loop
      vertex 0.215762 -2.74152 0.0999994
      vertex 0 -2.75 8
      vertex 0.215762 -2.74152 8
    endloop
  endfacet
  facet normal -0.0392722 0.999229 0
    outer loop
      vertex 0 -2.75 8
      vertex 0.215762 -2.74152 0.0999994
      vertex 0 -2.75 0.0999994
    endloop
  endfacet
  facet normal -0.346129 0.938187 0
    outer loop
      vertex 1.05238 -2.54067 0.0999994
      vertex 0.849796 -2.61541 8
      vertex 1.05238 -2.54067 8
    endloop
  endfacet
  facet normal -0.346129 0.938187 0
    outer loop
      vertex 0.849796 -2.61541 8
      vertex 1.05238 -2.54067 0.0999994
      vertex 0.849796 -2.61541 0.0999994
    endloop
  endfacet
  facet normal -0.488625 0.872494 0
    outer loop
      vertex 1.43687 -2.34476 0.0999994
      vertex 1.24847 -2.45027 8
      vertex 1.43687 -2.34476 8
    endloop
  endfacet
  facet normal -0.488625 0.872494 0
    outer loop
      vertex 1.24847 -2.45027 8
      vertex 1.43687 -2.34476 0.0999994
      vertex 1.24847 -2.45027 0.0999994
    endloop
  endfacet
  facet normal 0.0392722 0.999229 -0
    outer loop
      vertex 0 -2.75 0.0999994
      vertex -0.215762 -2.74152 8
      vertex 0 -2.75 8
    endloop
  endfacet
  facet normal 0.0392722 0.999229 0
    outer loop
      vertex -0.215762 -2.74152 8
      vertex 0 -2.75 0.0999994
      vertex -0.215762 -2.74152 0.0999994
    endloop
  endfacet
  facet normal 0.271432 0.962457 -0
    outer loop
      vertex -0.641974 -2.67402 0.0999994
      vertex -0.849796 -2.61541 8
      vertex -0.641974 -2.67402 8
    endloop
  endfacet
  facet normal 0.271432 0.962457 0
    outer loop
      vertex -0.849796 -2.61541 8
      vertex -0.641974 -2.67402 0.0999994
      vertex -0.849796 -2.61541 0.0999994
    endloop
  endfacet
  facet normal 0.555555 0.83148 -0
    outer loop
      vertex -1.43687 -2.34476 0.0999994
      vertex -1.61641 -2.2248 8
      vertex -1.43687 -2.34476 8
    endloop
  endfacet
  facet normal 0.555555 0.83148 0
    outer loop
      vertex -1.61641 -2.2248 8
      vertex -1.43687 -2.34476 0.0999994
      vertex -1.61641 -2.2248 0.0999994
    endloop
  endfacet
  facet normal 0.418665 0.908141 -0
    outer loop
      vertex -1.05238 -2.54067 0.0999994
      vertex -1.24847 -2.45027 8
      vertex -1.05238 -2.54067 8
    endloop
  endfacet
  facet normal 0.418665 0.908141 0
    outer loop
      vertex -1.24847 -2.45027 8
      vertex -1.05238 -2.54067 0.0999994
      vertex -1.24847 -2.45027 0.0999994
    endloop
  endfacet
  facet normal -0.117539 0.993068 0
    outer loop
      vertex 0.430194 -2.71614 0.0999994
      vertex 0.215762 -2.74152 8
      vertex 0.430194 -2.71614 8
    endloop
  endfacet
  facet normal -0.117539 0.993068 0
    outer loop
      vertex 0.215762 -2.74152 8
      vertex 0.430194 -2.71614 0.0999994
      vertex 0.215762 -2.74152 0.0999994
    endloop
  endfacet
  facet normal -0.418665 0.908141 0
    outer loop
      vertex 1.24847 -2.45027 0.0999994
      vertex 1.05238 -2.54067 8
      vertex 1.24847 -2.45027 8
    endloop
  endfacet
  facet normal -0.418665 0.908141 0
    outer loop
      vertex 1.05238 -2.54067 8
      vertex 1.24847 -2.45027 0.0999994
      vertex 1.05238 -2.54067 0.0999994
    endloop
  endfacet
  facet normal -0.555555 0.83148 0
    outer loop
      vertex 1.61641 -2.2248 0.0999994
      vertex 1.43687 -2.34476 8
      vertex 1.61641 -2.2248 8
    endloop
  endfacet
  facet normal -0.555555 0.83148 0
    outer loop
      vertex 1.43687 -2.34476 8
      vertex 1.61641 -2.2248 0.0999994
      vertex 1.43687 -2.34476 0.0999994
    endloop
  endfacet
  facet normal 0.488625 0.872494 -0
    outer loop
      vertex -1.24847 -2.45027 0.0999994
      vertex -1.43687 -2.34476 8
      vertex -1.24847 -2.45027 8
    endloop
  endfacet
  facet normal 0.488625 0.872494 0
    outer loop
      vertex -1.43687 -2.34476 8
      vertex -1.24847 -2.45027 0.0999994
      vertex -1.43687 -2.34476 0.0999994
    endloop
  endfacet
  facet normal 1 -0 0
    outer loop
      vertex -1.75 -2.11948 8
      vertex -1.75 2.11948 0.0999994
      vertex -1.75 2.11948 8
    endloop
  endfacet
  facet normal 1 0 0
    outer loop
      vertex -1.75 2.11948 0.0999994
      vertex -1.75 -2.11948 8
      vertex -1.75 -2.11948 0.0999994
    endloop
  endfacet
  facet normal -1 0 0
    outer loop
      vertex 1.75 -2.11948 0.0999994
      vertex 1.75 2.11948 8
      vertex 1.75 2.11948 0.0999994
    endloop
  endfacet
  facet normal -1 -0 0
    outer loop
      vertex 1.75 2.11948 8
      vertex 1.75 -2.11948 0.0999994
      vertex 1.75 -2.11948 8
    endloop
  endfacet
  facet normal 0.999229 0.0392514 0
    outer loop
      vertex 5 0 11.1
      vertex 4.98459 0.392295 0.0999994
      vertex 4.98459 0.392295 11.1
    endloop
  endfacet
  facet normal 0.999229 0.0392514 0
    outer loop
      vertex 4.98459 0.392295 0.0999994
      vertex 5 0 11.1
      vertex 5 0 0.0999994
    endloop
  endfacet
  facet normal -0.999229 0.0392514 0
    outer loop
      vertex -5 0 0.0999994
      vertex -4.98459 0.392295 11.1
      vertex -4.98459 0.392295 0.0999994
    endloop
  endfacet
  facet normal -0.999229 0.0392514 0
    outer loop
      vertex -4.98459 0.392295 11.1
      vertex -5 0 0.0999994
      vertex -5 0 11.1
    endloop
  endfacet
  facet normal 0.0392514 0.999229 -0
    outer loop
      vertex 0.392295 4.98459 0.0999994
      vertex 0 5 11.1
      vertex 0.392295 4.98459 11.1
    endloop
  endfacet
  facet normal 0.0392514 0.999229 0
    outer loop
      vertex 0 5 11.1
      vertex 0.392295 4.98459 0.0999994
      vertex 0 5 0.0999994
    endloop
  endfacet
  facet normal -0.0392514 -0.999229 0
    outer loop
      vertex -0.392295 -4.98459 0.0999994
      vertex 0 -5 11.1
      vertex -0.392295 -4.98459 11.1
    endloop
  endfacet
  facet normal -0.0392514 -0.999229 -0
    outer loop
      vertex 0 -5 11.1
      vertex -0.392295 -4.98459 0.0999994
      vertex 0 -5 0.0999994
    endloop
  endfacet
  facet normal -0.734313 -0.678811 0
    outer loop
      vertex -3.53553 -3.53553 0.0999994
      vertex -3.80203 -3.24724 11.1
      vertex -3.80203 -3.24724 0.0999994
    endloop
  endfacet
  facet normal -0.734313 -0.678811 0
    outer loop
      vertex -3.80203 -3.24724 11.1
      vertex -3.53553 -3.53553 0.0999994
      vertex -3.53553 -3.53553 11.1
    endloop
  endfacet
  facet normal 0.734313 0.678811 0
    outer loop
      vertex 3.80203 3.24724 11.1
      vertex 3.53553 3.53553 0.0999994
      vertex 3.53553 3.53553 11.1
    endloop
  endfacet
  facet normal 0.734313 0.678811 0
    outer loop
      vertex 3.53553 3.53553 0.0999994
      vertex 3.80203 3.24724 11.1
      vertex 3.80203 3.24724 0.0999994
    endloop
  endfacet
  facet normal -0.678811 0.734313 0
    outer loop
      vertex -3.24724 3.80203 0.0999994
      vertex -3.53553 3.53553 11.1
      vertex -3.24724 3.80203 11.1
    endloop
  endfacet
  facet normal -0.678811 0.734313 0
    outer loop
      vertex -3.53553 3.53553 11.1
      vertex -3.24724 3.80203 0.0999994
      vertex -3.53553 3.53553 0.0999994
    endloop
  endfacet
  facet normal -0.3461 0.938198 0
    outer loop
      vertex -1.54508 4.75528 0.0999994
      vertex -1.91342 4.6194 11.1
      vertex -1.54508 4.75528 11.1
    endloop
  endfacet
  facet normal -0.3461 0.938198 0
    outer loop
      vertex -1.91342 4.6194 11.1
      vertex -1.54508 4.75528 0.0999994
      vertex -1.91342 4.6194 0.0999994
    endloop
  endfacet
  facet normal 0.938198 0.3461 0
    outer loop
      vertex 4.75528 1.54508 11.1
      vertex 4.6194 1.91342 0.0999994
      vertex 4.6194 1.91342 11.1
    endloop
  endfacet
  facet normal 0.938198 0.3461 0
    outer loop
      vertex 4.6194 1.91342 0.0999994
      vertex 4.75528 1.54508 11.1
      vertex 4.75528 1.54508 0.0999994
    endloop
  endfacet
  facet normal 0.418675 0.908136 -0
    outer loop
      vertex 2.26995 4.45503 0.0999994
      vertex 1.91342 4.6194 11.1
      vertex 2.26995 4.45503 11.1
    endloop
  endfacet
  facet normal 0.418675 0.908136 0
    outer loop
      vertex 1.91342 4.6194 11.1
      vertex 2.26995 4.45503 0.0999994
      vertex 1.91342 4.6194 0.0999994
    endloop
  endfacet
  facet normal 0.55557 0.83147 -0
    outer loop
      vertex 2.93893 4.04508 0.0999994
      vertex 2.61249 4.2632 11.1
      vertex 2.93893 4.04508 11.1
    endloop
  endfacet
  facet normal 0.55557 0.83147 0
    outer loop
      vertex 2.61249 4.2632 11.1
      vertex 2.93893 4.04508 0.0999994
      vertex 2.61249 4.2632 0.0999994
    endloop
  endfacet
  facet normal -0.908136 0.418675 0
    outer loop
      vertex -4.6194 1.91342 0.0999994
      vertex -4.45503 2.26995 11.1
      vertex -4.45503 2.26995 0.0999994
    endloop
  endfacet
  facet normal -0.908136 0.418675 0
    outer loop
      vertex -4.45503 2.26995 11.1
      vertex -4.6194 1.91342 0.0999994
      vertex -4.6194 1.91342 11.1
    endloop
  endfacet
  facet normal -0.11755 0.993067 0
    outer loop
      vertex -0.392295 4.98459 0.0999994
      vertex -0.782172 4.93844 11.1
      vertex -0.392295 4.98459 11.1
    endloop
  endfacet
  facet normal -0.11755 0.993067 0
    outer loop
      vertex -0.782172 4.93844 11.1
      vertex -0.392295 4.98459 0.0999994
      vertex -0.782172 4.93844 0.0999994
    endloop
  endfacet
  facet normal 0.962452 -0.271453 0
    outer loop
      vertex 4.75528 -1.54508 11.1
      vertex 4.86185 -1.16723 0.0999994
      vertex 4.86185 -1.16723 11.1
    endloop
  endfacet
  facet normal 0.962452 -0.271453 0
    outer loop
      vertex 4.86185 -1.16723 0.0999994
      vertex 4.75528 -1.54508 11.1
      vertex 4.75528 -1.54508 0.0999994
    endloop
  endfacet
  facet normal 0 0 -1
    outer loop
      vertex 1.75 -2.11948 0.0999994
      vertex 5 0 0.0999994
      vertex 4.98459 -0.392295 0.0999994
    endloop
  endfacet
  facet normal 0 0 -1
    outer loop
      vertex 1.75 -2.11948 0.0999994
      vertex 4.98459 -0.392295 0.0999994
      vertex 4.93844 -0.782172 0.0999994
    endloop
  endfacet
  facet normal 0 0 -1
    outer loop
      vertex 1.75 2.11948 0.0999994
      vertex 5 0 0.0999994
      vertex 1.75 -2.11948 0.0999994
    endloop
  endfacet
  facet normal 0 0 -1
    outer loop
      vertex 1.75 -2.11948 0.0999994
      vertex 4.93844 -0.782172 0.0999994
      vertex 4.86185 -1.16723 0.0999994
    endloop
  endfacet
  facet normal 0 0 -1
    outer loop
      vertex 5 0 0.0999994
      vertex 1.75 2.11948 0.0999994
      vertex 4.98459 0.392295 0.0999994
    endloop
  endfacet
  facet normal 0 0 -1
    outer loop
      vertex 1.75 -2.11948 0.0999994
      vertex 4.86185 -1.16723 0.0999994
      vertex 4.75528 -1.54508 0.0999994
    endloop
  endfacet
  facet normal 0 0 -1
    outer loop
      vertex 4.98459 0.392295 0.0999994
      vertex 1.75 2.11948 0.0999994
      vertex 4.93844 0.782172 0.0999994
    endloop
  endfacet
  facet normal 0 0 -1
    outer loop
      vertex 1.75 -2.11948 0.0999994
      vertex 4.75528 -1.54508 0.0999994
      vertex 4.6194 -1.91342 0.0999994
    endloop
  endfacet
  facet normal 0 0 -1
    outer loop
      vertex 4.93844 0.782172 0.0999994
      vertex 1.75 2.11948 0.0999994
      vertex 4.86185 1.16723 0.0999994
    endloop
  endfacet
  facet normal 0 0 -1
    outer loop
      vertex 1.75 -2.11948 0.0999994
      vertex 4.6194 -1.91342 0.0999994
      vertex 4.45503 -2.26995 0.0999994
    endloop
  endfacet
  facet normal 0 0 -1
    outer loop
      vertex 4.86185 1.16723 0.0999994
      vertex 1.75 2.11948 0.0999994
      vertex 4.75528 1.54508 0.0999994
    endloop
  endfacet
  facet normal 0 0 -1
    outer loop
      vertex 1.75 -2.11948 0.0999994
      vertex 4.45503 -2.26995 0.0999994
      vertex 4.2632 -2.61249 0.0999994
    endloop
  endfacet
  facet normal 0 0 -1
    outer loop
      vertex 4.75528 1.54508 0.0999994
      vertex 1.75 2.11948 0.0999994
      vertex 4.6194 1.91342 0.0999994
    endloop
  endfacet
  facet normal 0 0 -1
    outer loop
      vertex 1.75 -2.11948 0.0999994
      vertex 4.2632 -2.61249 0.0999994
      vertex 4.04508 -2.93893 0.0999994
    endloop
  endfacet
  facet normal 0 0 -1
    outer loop
      vertex 4.6194 1.91342 0.0999994
      vertex 1.75 2.11948 0.0999994
      vertex 4.45503 2.26995 0.0999994
    endloop
  endfacet
  facet normal 0 0 -1
    outer loop
      vertex 1.75 -2.11948 0.0999994
      vertex 4.04508 -2.93893 0.0999994
      vertex 3.80203 -3.24724 0.0999994
    endloop
  endfacet
  facet normal -0 0 -1
    outer loop
      vertex 4.45503 2.26995 0.0999994
      vertex 1.75 2.11948 0.0999994
      vertex 4.2632 2.61249 0.0999994
    endloop
  endfacet
  facet normal 0 0 -1
    outer loop
      vertex 1.75 -2.11948 0.0999994
      vertex 3.80203 -3.24724 0.0999994
      vertex 3.53553 -3.53553 0.0999994
    endloop
  endfacet
  facet normal -0 0 -1
    outer loop
      vertex 4.2632 2.61249 0.0999994
      vertex 1.75 2.11948 0.0999994
      vertex 4.04508 2.93893 0.0999994
    endloop
  endfacet
  facet normal 0 0 -1
    outer loop
      vertex 1.75 -2.11948 0.0999994
      vertex 3.53553 -3.53553 0.0999994
      vertex 3.24724 -3.80203 0.0999994
    endloop
  endfacet
  facet normal -0 0 -1
    outer loop
      vertex 4.04508 2.93893 0.0999994
      vertex 1.75 2.11948 0.0999994
      vertex 3.80203 3.24724 0.0999994
    endloop
  endfacet
  facet normal 0 0 -1
    outer loop
      vertex 1.75 -2.11948 0.0999994
      vertex 3.24724 -3.80203 0.0999994
      vertex 2.93893 -4.04508 0.0999994
    endloop
  endfacet
  facet normal -0 0 -1
    outer loop
      vertex 3.80203 3.24724 0.0999994
      vertex 1.75 2.11948 0.0999994
      vertex 3.53553 3.53553 0.0999994
    endloop
  endfacet
  facet normal 0 0 -1
    outer loop
      vertex 1.61641 -2.2248 0.0999994
      vertex 2.93893 -4.04508 0.0999994
      vertex 2.61249 -4.2632 0.0999994
    endloop
  endfacet
  facet normal -0 0 -1
    outer loop
      vertex 3.53553 3.53553 0.0999994
      vertex 1.75 2.11948 0.0999994
      vertex 3.24724 3.80203 0.0999994
    endloop
  endfacet
  facet normal 0 0 -1
    outer loop
      vertex 1.43687 -2.34476 0.0999994
      vertex 2.61249 -4.2632 0.0999994
      vertex 2.26995 -4.45503 0.0999994
    endloop
  endfacet
  facet normal -0 0 -1
    outer loop
      vertex 3.24724 3.80203 0.0999994
      vertex 1.75 2.11948 0.0999994
      vertex 2.93893 4.04508 0.0999994
    endloop
  endfacet
  facet normal 0 0 -1
    outer loop
      vertex 1.24847 -2.45027 0.0999994
      vertex 2.26995 -4.45503 0.0999994
      vertex 1.91342 -4.6194 0.0999994
    endloop
  endfacet
  facet normal 0 0 -1
    outer loop
      vertex 1.61641 2.2248 0.0999994
      vertex 2.93893 4.04508 0.0999994
      vertex 1.75 2.11948 0.0999994
    endloop
  endfacet
  facet normal -0 0 -1
    outer loop
      vertex 2.93893 4.04508 0.0999994
      vertex 1.61641 2.2248 0.0999994
      vertex 2.61249 4.2632 0.0999994
    endloop
  endfacet
  facet normal 0 0 -1
    outer loop
      vertex 2.93893 -4.04508 0.0999994
      vertex 1.61641 -2.2248 0.0999994
      vertex 1.75 -2.11948 0.0999994
    endloop
  endfacet
  facet normal 0 0 -1
    outer loop
      vertex 1.05238 -2.54067 0.0999994
      vertex 1.91342 -4.6194 0.0999994
      vertex 1.54508 -4.75528 0.0999994
    endloop
  endfacet
  facet normal 0 0 -1
    outer loop
      vertex 2.61249 -4.2632 0.0999994
      vertex 1.43687 -2.34476 0.0999994
      vertex 1.61641 -2.2248 0.0999994
    endloop
  endfacet
  facet normal 0 0 -1
    outer loop
      vertex 2.26995 -4.45503 0.0999994
      vertex 1.24847 -2.45027 0.0999994
      vertex 1.43687 -2.34476 0.0999994
    endloop
  endfacet
  facet normal 0 0 -1
    outer loop
      vertex 0.849796 -2.61541 0.0999994
      vertex 1.54508 -4.75528 0.0999994
      vertex 1.16723 -4.86185 0.0999994
    endloop
  endfacet
  facet normal 0 0 -1
    outer loop
      vertex 1.91342 -4.6194 0.0999994
      vertex 1.05238 -2.54067 0.0999994
      vertex 1.24847 -2.45027 0.0999994
    endloop
  endfacet
  facet normal 0 0 -1
    outer loop
      vertex 1.54508 -4.75528 0.0999994
      vertex 0.849796 -2.61541 0.0999994
      vertex 1.05238 -2.54067 0.0999994
    endloop
  endfacet
  facet normal 0 0 -1
    outer loop
      vertex 0.641974 -2.67402 0.0999994
      vertex 1.16723 -4.86185 0.0999994
      vertex 0.782172 -4.93844 0.0999994
    endloop
  endfacet
  facet normal 0 0 -1
    outer loop
      vertex 1.16723 -4.86185 0.0999994
      vertex 0.641974 -2.67402 0.0999994
      vertex 0.849796 -2.61541 0.0999994
    endloop
  endfacet
  facet normal 0 0 -1
    outer loop
      vertex 0.782172 -4.93844 0.0999994
      vertex 0.430194 -2.71614 0.0999994
      vertex 0.641974 -2.67402 0.0999994
    endloop
  endfacet
  facet normal 0 0 -1
    outer loop
      vertex 0.392295 -4.98459 0.0999994
      vertex 0.430194 -2.71614 0.0999994
      vertex 0.782172 -4.93844 0.0999994
    endloop
  endfacet
  facet normal 0 0 -1
    outer loop
      vertex 0.392295 -4.98459 0.0999994
      vertex 0.215762 -2.74152 0.0999994
      vertex 0.430194 -2.71614 0.0999994
    endloop
  endfacet
  facet normal 0 0 -1
    outer loop
      vertex 0 -5 0.0999994
      vertex 0.215762 -2.74152 0.0999994
      vertex 0.392295 -4.98459 0.0999994
    endloop
  endfacet
  facet normal 0 0 -1
    outer loop
      vertex 0 -5 0.0999994
      vertex 0 -2.75 0.0999994
      vertex 0.215762 -2.74152 0.0999994
    endloop
  endfacet
  facet normal 0 0 -1
    outer loop
      vertex 0 -5 0.0999994
      vertex -0.215762 -2.74152 0.0999994
      vertex 0 -2.75 0.0999994
    endloop
  endfacet
  facet normal 0 0 -1
    outer loop
      vertex -0.392295 -4.98459 0.0999994
      vertex -0.215762 -2.74152 0.0999994
      vertex 0 -5 0.0999994
    endloop
  endfacet
  facet normal 0 0 -1
    outer loop
      vertex -0.392295 -4.98459 0.0999994
      vertex -0.430194 -2.71614 0.0999994
      vertex -0.215762 -2.74152 0.0999994
    endloop
  endfacet
  facet normal 0 0 -1
    outer loop
      vertex -0.782172 -4.93844 0.0999994
      vertex -0.430194 -2.71614 0.0999994
      vertex -0.392295 -4.98459 0.0999994
    endloop
  endfacet
  facet normal -0 0 -1
    outer loop
      vertex -0.430194 -2.71614 0.0999994
      vertex -0.782172 -4.93844 0.0999994
      vertex -0.641974 -2.67402 0.0999994
    endloop
  endfacet
  facet normal 0 0 -1
    outer loop
      vertex -1.16723 -4.86185 0.0999994
      vertex -0.641974 -2.67402 0.0999994
      vertex -0.782172 -4.93844 0.0999994
    endloop
  endfacet
  facet normal -0 0 -1
    outer loop
      vertex -0.641974 -2.67402 0.0999994
      vertex -1.16723 -4.86185 0.0999994
      vertex -0.849796 -2.61541 0.0999994
    endloop
  endfacet
  facet normal 0 0 -1
    outer loop
      vertex -1.54508 -4.75528 0.0999994
      vertex -0.849796 -2.61541 0.0999994
      vertex -1.16723 -4.86185 0.0999994
    endloop
  endfacet
  facet normal -0 0 -1
    outer loop
      vertex -0.849796 -2.61541 0.0999994
      vertex -1.54508 -4.75528 0.0999994
      vertex -1.05238 -2.54067 0.0999994
    endloop
  endfacet
  facet normal 0 0 -1
    outer loop
      vertex -1.91342 -4.6194 0.0999994
      vertex -1.05238 -2.54067 0.0999994
      vertex -1.54508 -4.75528 0.0999994
    endloop
  endfacet
  facet normal -0 0 -1
    outer loop
      vertex -1.05238 -2.54067 0.0999994
      vertex -1.91342 -4.6194 0.0999994
      vertex -1.24847 -2.45027 0.0999994
    endloop
  endfacet
  facet normal 0 0 -1
    outer loop
      vertex -2.26995 -4.45503 0.0999994
      vertex -1.24847 -2.45027 0.0999994
      vertex -1.91342 -4.6194 0.0999994
    endloop
  endfacet
  facet normal -0 0 -1
    outer loop
      vertex -1.24847 -2.45027 0.0999994
      vertex -2.26995 -4.45503 0.0999994
      vertex -1.43687 -2.34476 0.0999994
    endloop
  endfacet
  facet normal -0 0 -1
    outer loop
      vertex -1.43687 -2.34476 0.0999994
      vertex -2.61249 -4.2632 0.0999994
      vertex -1.61641 -2.2248 0.0999994
    endloop
  endfacet
  facet normal 0 0 -1
    outer loop
      vertex -2.61249 -4.2632 0.0999994
      vertex -1.43687 -2.34476 0.0999994
      vertex -2.26995 -4.45503 0.0999994
    endloop
  endfacet
  facet normal 0 0 -1
    outer loop
      vertex 1.43687 2.34476 0.0999994
      vertex 2.61249 4.2632 0.0999994
      vertex 1.61641 2.2248 0.0999994
    endloop
  endfacet
  facet normal -0 0 -1
    outer loop
      vertex 2.61249 4.2632 0.0999994
      vertex 1.43687 2.34476 0.0999994
      vertex 2.26995 4.45503 0.0999994
    endloop
  endfacet
  facet normal 0 0 -1
    outer loop
      vertex 1.24847 2.45027 0.0999994
      vertex 2.26995 4.45503 0.0999994
      vertex 1.43687 2.34476 0.0999994
    endloop
  endfacet
  facet normal -0 0 -1
    outer loop
      vertex 2.26995 4.45503 0.0999994
      vertex 1.24847 2.45027 0.0999994
      vertex 1.91342 4.6194 0.0999994
    endloop
  endfacet
  facet normal 0 0 -1
    outer loop
      vertex 1.05238 2.54067 0.0999994
      vertex 1.91342 4.6194 0.0999994
      vertex 1.24847 2.45027 0.0999994
    endloop
  endfacet
  facet normal -0 0 -1
    outer loop
      vertex 1.91342 4.6194 0.0999994
      vertex 1.05238 2.54067 0.0999994
      vertex 1.54508 4.75528 0.0999994
    endloop
  endfacet
  facet normal 0 0 -1
    outer loop
      vertex 0.849796 2.61541 0.0999994
      vertex 1.54508 4.75528 0.0999994
      vertex 1.05238 2.54067 0.0999994
    endloop
  endfacet
  facet normal -0 0 -1
    outer loop
      vertex 1.54508 4.75528 0.0999994
      vertex 0.849796 2.61541 0.0999994
      vertex 1.16723 4.86185 0.0999994
    endloop
  endfacet
  facet normal 0 0 -1
    outer loop
      vertex 0.641974 2.67402 0.0999994
      vertex 1.16723 4.86185 0.0999994
      vertex 0.849796 2.61541 0.0999994
    endloop
  endfacet
  facet normal -0 0 -1
    outer loop
      vertex 1.16723 4.86185 0.0999994
      vertex 0.641974 2.67402 0.0999994
      vertex 0.782172 4.93844 0.0999994
    endloop
  endfacet
  facet normal 0 0 -1
    outer loop
      vertex 0.430194 2.71614 0.0999994
      vertex 0.782172 4.93844 0.0999994
      vertex 0.641974 2.67402 0.0999994
    endloop
  endfacet
  facet normal 0 0 -1
    outer loop
      vertex 0.430194 2.71614 0.0999994
      vertex 0.392295 4.98459 0.0999994
      vertex 0.782172 4.93844 0.0999994
    endloop
  endfacet
  facet normal 0 0 -1
    outer loop
      vertex 0.215762 2.74152 0.0999994
      vertex 0.392295 4.98459 0.0999994
      vertex 0.430194 2.71614 0.0999994
    endloop
  endfacet
  facet normal 0 0 -1
    outer loop
      vertex 0 2.75 0.0999994
      vertex 0.392295 4.98459 0.0999994
      vertex 0.215762 2.74152 0.0999994
    endloop
  endfacet
  facet normal 0 0 -1
    outer loop
      vertex 0 2.75 0.0999994
      vertex 0 5 0.0999994
      vertex 0.392295 4.98459 0.0999994
    endloop
  endfacet
  facet normal 0 0 -1
    outer loop
      vertex -0.215762 2.74152 0.0999994
      vertex 0 5 0.0999994
      vertex 0 2.75 0.0999994
    endloop
  endfacet
  facet normal 0 0 -1
    outer loop
      vertex -0.215762 2.74152 0.0999994
      vertex -0.392295 4.98459 0.0999994
      vertex 0 5 0.0999994
    endloop
  endfacet
  facet normal 0 0 -1
    outer loop
      vertex -0.430194 2.71614 0.0999994
      vertex -0.392295 4.98459 0.0999994
      vertex -0.215762 2.74152 0.0999994
    endloop
  endfacet
  facet normal 0 0 -1
    outer loop
      vertex -0.782172 4.93844 0.0999994
      vertex -0.430194 2.71614 0.0999994
      vertex -0.641974 2.67402 0.0999994
    endloop
  endfacet
  facet normal 0 0 -1
    outer loop
      vertex -0.430194 2.71614 0.0999994
      vertex -0.782172 4.93844 0.0999994
      vertex -0.392295 4.98459 0.0999994
    endloop
  endfacet
  facet normal 0 0 -1
    outer loop
      vertex -1.16723 4.86185 0.0999994
      vertex -0.641974 2.67402 0.0999994
      vertex -0.849796 2.61541 0.0999994
    endloop
  endfacet
  facet normal 0 0 -1
    outer loop
      vertex -1.54508 4.75528 0.0999994
      vertex -0.849796 2.61541 0.0999994
      vertex -1.05238 2.54067 0.0999994
    endloop
  endfacet
  facet normal 0 0 -1
    outer loop
      vertex -0.641974 2.67402 0.0999994
      vertex -1.16723 4.86185 0.0999994
      vertex -0.782172 4.93844 0.0999994
    endloop
  endfacet
  facet normal 0 0 -1
    outer loop
      vertex -1.91342 4.6194 0.0999994
      vertex -1.05238 2.54067 0.0999994
      vertex -1.24847 2.45027 0.0999994
    endloop
  endfacet
  facet normal 0 0 -1
    outer loop
      vertex -2.26995 4.45503 0.0999994
      vertex -1.24847 2.45027 0.0999994
      vertex -1.43687 2.34476 0.0999994
    endloop
  endfacet
  facet normal 0 0 -1
    outer loop
      vertex -0.849796 2.61541 0.0999994
      vertex -1.54508 4.75528 0.0999994
      vertex -1.16723 4.86185 0.0999994
    endloop
  endfacet
  facet normal 0 0 -1
    outer loop
      vertex -2.61249 4.2632 0.0999994
      vertex -1.43687 2.34476 0.0999994
      vertex -1.61641 2.2248 0.0999994
    endloop
  endfacet
  facet normal 0 0 -1
    outer loop
      vertex -2.93893 4.04508 0.0999994
      vertex -1.61641 2.2248 0.0999994
      vertex -1.75 2.11948 0.0999994
    endloop
  endfacet
  facet normal 0 0 -1
    outer loop
      vertex -1.05238 2.54067 0.0999994
      vertex -1.91342 4.6194 0.0999994
      vertex -1.54508 4.75528 0.0999994
    endloop
  endfacet
  facet normal 0 0 -1
    outer loop
      vertex -2.93893 -4.04508 0.0999994
      vertex -1.61641 -2.2248 0.0999994
      vertex -2.61249 -4.2632 0.0999994
    endloop
  endfacet
  facet normal -0 0 -1
    outer loop
      vertex -1.61641 -2.2248 0.0999994
      vertex -2.93893 -4.04508 0.0999994
      vertex -1.75 -2.11948 0.0999994
    endloop
  endfacet
  facet normal 0 0 -1
    outer loop
      vertex -1.24847 2.45027 0.0999994
      vertex -2.26995 4.45503 0.0999994
      vertex -1.91342 4.6194 0.0999994
    endloop
  endfacet
  facet normal 0 0 -1
    outer loop
      vertex -3.24724 -3.80203 0.0999994
      vertex -1.75 -2.11948 0.0999994
      vertex -2.93893 -4.04508 0.0999994
    endloop
  endfacet
  facet normal 0 0 -1
    outer loop
      vertex -1.43687 2.34476 0.0999994
      vertex -2.61249 4.2632 0.0999994
      vertex -2.26995 4.45503 0.0999994
    endloop
  endfacet
  facet normal 0 0 -1
    outer loop
      vertex -3.53553 -3.53553 0.0999994
      vertex -1.75 -2.11948 0.0999994
      vertex -3.24724 -3.80203 0.0999994
    endloop
  endfacet
  facet normal 0 0 -1
    outer loop
      vertex -1.61641 2.2248 0.0999994
      vertex -2.93893 4.04508 0.0999994
      vertex -2.61249 4.2632 0.0999994
    endloop
  endfacet
  facet normal 0 0 -1
    outer loop
      vertex -3.80203 -3.24724 0.0999994
      vertex -1.75 -2.11948 0.0999994
      vertex -3.53553 -3.53553 0.0999994
    endloop
  endfacet
  facet normal 0 0 -1
    outer loop
      vertex -1.75 2.11948 0.0999994
      vertex -3.24724 3.80203 0.0999994
      vertex -2.93893 4.04508 0.0999994
    endloop
  endfacet
  facet normal 0 0 -1
    outer loop
      vertex -4.04508 -2.93893 0.0999994
      vertex -1.75 -2.11948 0.0999994
      vertex -3.80203 -3.24724 0.0999994
    endloop
  endfacet
  facet normal 0 0 -1
    outer loop
      vertex -1.75 2.11948 0.0999994
      vertex -3.53553 3.53553 0.0999994
      vertex -3.24724 3.80203 0.0999994
    endloop
  endfacet
  facet normal 0 0 -1
    outer loop
      vertex -4.2632 -2.61249 0.0999994
      vertex -1.75 -2.11948 0.0999994
      vertex -4.04508 -2.93893 0.0999994
    endloop
  endfacet
  facet normal 0 0 -1
    outer loop
      vertex -1.75 2.11948 0.0999994
      vertex -3.80203 3.24724 0.0999994
      vertex -3.53553 3.53553 0.0999994
    endloop
  endfacet
  facet normal 0 0 -1
    outer loop
      vertex -4.45503 -2.26995 0.0999994
      vertex -1.75 -2.11948 0.0999994
      vertex -4.2632 -2.61249 0.0999994
    endloop
  endfacet
  facet normal 0 0 -1
    outer loop
      vertex -1.75 2.11948 0.0999994
      vertex -4.04508 2.93893 0.0999994
      vertex -3.80203 3.24724 0.0999994
    endloop
  endfacet
  facet normal 0 0 -1
    outer loop
      vertex -4.6194 -1.91342 0.0999994
      vertex -1.75 -2.11948 0.0999994
      vertex -4.45503 -2.26995 0.0999994
    endloop
  endfacet
  facet normal 0 0 -1
    outer loop
      vertex -1.75 2.11948 0.0999994
      vertex -4.2632 2.61249 0.0999994
      vertex -4.04508 2.93893 0.0999994
    endloop
  endfacet
  facet normal 0 0 -1
    outer loop
      vertex -4.75528 -1.54508 0.0999994
      vertex -1.75 -2.11948 0.0999994
      vertex -4.6194 -1.91342 0.0999994
    endloop
  endfacet
  facet normal 0 0 -1
    outer loop
      vertex -1.75 2.11948 0.0999994
      vertex -4.45503 2.26995 0.0999994
      vertex -4.2632 2.61249 0.0999994
    endloop
  endfacet
  facet normal 0 0 -1
    outer loop
      vertex -4.86185 -1.16723 0.0999994
      vertex -1.75 -2.11948 0.0999994
      vertex -4.75528 -1.54508 0.0999994
    endloop
  endfacet
  facet normal -0 0 -1
    outer loop
      vertex -1.75 2.11948 0.0999994
      vertex -4.6194 1.91342 0.0999994
      vertex -4.45503 2.26995 0.0999994
    endloop
  endfacet
  facet normal 0 0 -1
    outer loop
      vertex -4.93844 -0.782172 0.0999994
      vertex -1.75 -2.11948 0.0999994
      vertex -4.86185 -1.16723 0.0999994
    endloop
  endfacet
  facet normal 0 0 -1
    outer loop
      vertex -1.75 2.11948 0.0999994
      vertex -4.75528 1.54508 0.0999994
      vertex -4.6194 1.91342 0.0999994
    endloop
  endfacet
  facet normal 0 0 -1
    outer loop
      vertex -4.98459 -0.392295 0.0999994
      vertex -1.75 -2.11948 0.0999994
      vertex -4.93844 -0.782172 0.0999994
    endloop
  endfacet
  facet normal 0 0 -1
    outer loop
      vertex -1.75 2.11948 0.0999994
      vertex -4.86185 1.16723 0.0999994
      vertex -4.75528 1.54508 0.0999994
    endloop
  endfacet
  facet normal 0 0 -1
    outer loop
      vertex -5 0 0.0999994
      vertex -1.75 -2.11948 0.0999994
      vertex -4.98459 -0.392295 0.0999994
    endloop
  endfacet
  facet normal 0 0 -1
    outer loop
      vertex -1.75 2.11948 0.0999994
      vertex -4.93844 0.782172 0.0999994
      vertex -4.86185 1.16723 0.0999994
    endloop
  endfacet
  facet normal 0 0 -1
    outer loop
      vertex -1.75 -2.11948 0.0999994
      vertex -5 0 0.0999994
      vertex -1.75 2.11948 0.0999994
    endloop
  endfacet
  facet normal 0 0 -1
    outer loop
      vertex -1.75 2.11948 0.0999994
      vertex -4.98459 0.392295 0.0999994
      vertex -4.93844 0.782172 0.0999994
    endloop
  endfacet
  facet normal 0 0 -1
    outer loop
      vertex -1.75 2.11948 0.0999994
      vertex -5 0 0.0999994
      vertex -4.98459 0.392295 0.0999994
    endloop
  endfacet
  facet normal 0.980787 0.195083 0
    outer loop
      vertex 4.93844 0.782172 11.1
      vertex 4.86185 1.16723 0.0999994
      vertex 4.86185 1.16723 11.1
    endloop
  endfacet
  facet normal 0.980787 0.195083 0
    outer loop
      vertex 4.86185 1.16723 0.0999994
      vertex 4.93844 0.782172 11.1
      vertex 4.93844 0.782172 0.0999994
    endloop
  endfacet
  facet normal 0.993067 0.11755 0
    outer loop
      vertex 4.98459 0.392295 11.1
      vertex 4.93844 0.782172 0.0999994
      vertex 4.93844 0.782172 11.1
    endloop
  endfacet
  facet normal 0.993067 0.11755 0
    outer loop
      vertex 4.93844 0.782172 0.0999994
      vertex 4.98459 0.392295 11.1
      vertex 4.98459 0.392295 0.0999994
    endloop
  endfacet
  facet normal 0.962452 0.271453 0
    outer loop
      vertex 4.86185 1.16723 11.1
      vertex 4.75528 1.54508 0.0999994
      vertex 4.75528 1.54508 11.1
    endloop
  endfacet
  facet normal 0.962452 0.271453 0
    outer loop
      vertex 4.75528 1.54508 0.0999994
      vertex 4.86185 1.16723 11.1
      vertex 4.86185 1.16723 0.0999994
    endloop
  endfacet
  facet normal 0.872498 0.488618 0
    outer loop
      vertex 4.45503 2.26995 11.1
      vertex 4.2632 2.61249 0.0999994
      vertex 4.2632 2.61249 11.1
    endloop
  endfacet
  facet normal 0.872498 0.488618 0
    outer loop
      vertex 4.2632 2.61249 0.0999994
      vertex 4.45503 2.26995 11.1
      vertex 4.45503 2.26995 0.0999994
    endloop
  endfacet
  facet normal 0.83147 0.55557 0
    outer loop
      vertex 4.2632 2.61249 11.1
      vertex 4.04508 2.93893 0.0999994
      vertex 4.04508 2.93893 11.1
    endloop
  endfacet
  facet normal 0.83147 0.55557 0
    outer loop
      vertex 4.04508 2.93893 0.0999994
      vertex 4.2632 2.61249 11.1
      vertex 4.2632 2.61249 0.0999994
    endloop
  endfacet
  facet normal 0.908136 0.418675 0
    outer loop
      vertex 4.6194 1.91342 11.1
      vertex 4.45503 2.26995 0.0999994
      vertex 4.45503 2.26995 11.1
    endloop
  endfacet
  facet normal 0.908136 0.418675 0
    outer loop
      vertex 4.45503 2.26995 0.0999994
      vertex 4.6194 1.91342 11.1
      vertex 4.6194 1.91342 0.0999994
    endloop
  endfacet
  facet normal 0.195083 0.980787 -0
    outer loop
      vertex 1.16723 4.86185 0.0999994
      vertex 0.782172 4.93844 11.1
      vertex 1.16723 4.86185 11.1
    endloop
  endfacet
  facet normal 0.195083 0.980787 0
    outer loop
      vertex 0.782172 4.93844 11.1
      vertex 1.16723 4.86185 0.0999994
      vertex 0.782172 4.93844 0.0999994
    endloop
  endfacet
  facet normal 0.3461 0.938198 -0
    outer loop
      vertex 1.91342 4.6194 0.0999994
      vertex 1.54508 4.75528 11.1
      vertex 1.91342 4.6194 11.1
    endloop
  endfacet
  facet normal 0.3461 0.938198 0
    outer loop
      vertex 1.54508 4.75528 11.1
      vertex 1.91342 4.6194 0.0999994
      vertex 1.54508 4.75528 0.0999994
    endloop
  endfacet
  facet normal 0.11755 0.993067 -0
    outer loop
      vertex 0.782172 4.93844 0.0999994
      vertex 0.392295 4.98459 11.1
      vertex 0.782172 4.93844 11.1
    endloop
  endfacet
  facet normal 0.11755 0.993067 0
    outer loop
      vertex 0.392295 4.98459 11.1
      vertex 0.782172 4.93844 0.0999994
      vertex 0.392295 4.98459 0.0999994
    endloop
  endfacet
  facet normal 0.488618 0.872498 -0
    outer loop
      vertex 2.61249 4.2632 0.0999994
      vertex 2.26995 4.45503 11.1
      vertex 2.61249 4.2632 11.1
    endloop
  endfacet
  facet normal 0.488618 0.872498 0
    outer loop
      vertex 2.26995 4.45503 11.1
      vertex 2.61249 4.2632 0.0999994
      vertex 2.26995 4.45503 0.0999994
    endloop
  endfacet
  facet normal 0.619091 0.785319 -0
    outer loop
      vertex 3.24724 3.80203 0.0999994
      vertex 2.93893 4.04508 11.1
      vertex 3.24724 3.80203 11.1
    endloop
  endfacet
  facet normal 0.619091 0.785319 0
    outer loop
      vertex 2.93893 4.04508 11.1
      vertex 3.24724 3.80203 0.0999994
      vertex 2.93893 4.04508 0.0999994
    endloop
  endfacet
  facet normal -0.980787 0.195083 0
    outer loop
      vertex -4.93844 0.782172 0.0999994
      vertex -4.86185 1.16723 11.1
      vertex -4.86185 1.16723 0.0999994
    endloop
  endfacet
  facet normal -0.980787 0.195083 0
    outer loop
      vertex -4.86185 1.16723 11.1
      vertex -4.93844 0.782172 0.0999994
      vertex -4.93844 0.782172 11.1
    endloop
  endfacet
  facet normal -0.83147 0.55557 0
    outer loop
      vertex -4.2632 2.61249 0.0999994
      vertex -4.04508 2.93893 11.1
      vertex -4.04508 2.93893 0.0999994
    endloop
  endfacet
  facet normal -0.83147 0.55557 0
    outer loop
      vertex -4.04508 2.93893 11.1
      vertex -4.2632 2.61249 0.0999994
      vertex -4.2632 2.61249 11.1
    endloop
  endfacet
  facet normal -0.872498 0.488618 0
    outer loop
      vertex -4.45503 2.26995 0.0999994
      vertex -4.2632 2.61249 11.1
      vertex -4.2632 2.61249 0.0999994
    endloop
  endfacet
  facet normal -0.872498 0.488618 0
    outer loop
      vertex -4.2632 2.61249 11.1
      vertex -4.45503 2.26995 0.0999994
      vertex -4.45503 2.26995 11.1
    endloop
  endfacet
  facet normal -0.938198 0.3461 0
    outer loop
      vertex -4.75528 1.54508 0.0999994
      vertex -4.6194 1.91342 11.1
      vertex -4.6194 1.91342 0.0999994
    endloop
  endfacet
  facet normal -0.938198 0.3461 0
    outer loop
      vertex -4.6194 1.91342 11.1
      vertex -4.75528 1.54508 0.0999994
      vertex -4.75528 1.54508 11.1
    endloop
  endfacet
  facet normal -0.993067 0.11755 0
    outer loop
      vertex -4.98459 0.392295 0.0999994
      vertex -4.93844 0.782172 11.1
      vertex -4.93844 0.782172 0.0999994
    endloop
  endfacet
  facet normal -0.993067 0.11755 0
    outer loop
      vertex -4.93844 0.782172 11.1
      vertex -4.98459 0.392295 0.0999994
      vertex -4.98459 0.392295 11.1
    endloop
  endfacet
  facet normal 0 0 1
    outer loop
      vertex 4.98459 0.392295 11.1
      vertex 4.98459 -0.392295 11.1
      vertex 5 0 11.1
    endloop
  endfacet
  facet normal 0 0 1
    outer loop
      vertex 4.93844 0.782172 11.1
      vertex 4.98459 -0.392295 11.1
      vertex 4.98459 0.392295 11.1
    endloop
  endfacet
  facet normal 0 0 1
    outer loop
      vertex 4.93844 0.782172 11.1
      vertex 4.93844 -0.782172 11.1
      vertex 4.98459 -0.392295 11.1
    endloop
  endfacet
  facet normal 0 0 1
    outer loop
      vertex 4.86185 1.16723 11.1
      vertex 4.93844 -0.782172 11.1
      vertex 4.93844 0.782172 11.1
    endloop
  endfacet
  facet normal 0 0 1
    outer loop
      vertex 4.86185 1.16723 11.1
      vertex 4.86185 -1.16723 11.1
      vertex 4.93844 -0.782172 11.1
    endloop
  endfacet
  facet normal 0 0 1
    outer loop
      vertex 4.75528 1.54508 11.1
      vertex 4.86185 -1.16723 11.1
      vertex 4.86185 1.16723 11.1
    endloop
  endfacet
  facet normal 0 0 1
    outer loop
      vertex 4.75528 1.54508 11.1
      vertex 4.75528 -1.54508 11.1
      vertex 4.86185 -1.16723 11.1
    endloop
  endfacet
  facet normal 0 0 1
    outer loop
      vertex 4.6194 1.91342 11.1
      vertex 4.75528 -1.54508 11.1
      vertex 4.75528 1.54508 11.1
    endloop
  endfacet
  facet normal 0 0 1
    outer loop
      vertex 4.6194 1.91342 11.1
      vertex 4.6194 -1.91342 11.1
      vertex 4.75528 -1.54508 11.1
    endloop
  endfacet
  facet normal 0 0 1
    outer loop
      vertex 4.45503 2.26995 11.1
      vertex 4.6194 -1.91342 11.1
      vertex 4.6194 1.91342 11.1
    endloop
  endfacet
  facet normal 0 0 1
    outer loop
      vertex 4.45503 2.26995 11.1
      vertex 4.45503 -2.26995 11.1
      vertex 4.6194 -1.91342 11.1
    endloop
  endfacet
  facet normal 0 0 1
    outer loop
      vertex 4.2632 2.61249 11.1
      vertex 4.45503 -2.26995 11.1
      vertex 4.45503 2.26995 11.1
    endloop
  endfacet
  facet normal 0 0 1
    outer loop
      vertex 4.2632 2.61249 11.1
      vertex 4.2632 -2.61249 11.1
      vertex 4.45503 -2.26995 11.1
    endloop
  endfacet
  facet normal 0 0 1
    outer loop
      vertex 4.04508 2.93893 11.1
      vertex 4.2632 -2.61249 11.1
      vertex 4.2632 2.61249 11.1
    endloop
  endfacet
  facet normal 0 0 1
    outer loop
      vertex 4.04508 2.93893 11.1
      vertex 4.04508 -2.93893 11.1
      vertex 4.2632 -2.61249 11.1
    endloop
  endfacet
  facet normal 0 0 1
    outer loop
      vertex 3.80203 3.24724 11.1
      vertex 4.04508 -2.93893 11.1
      vertex 4.04508 2.93893 11.1
    endloop
  endfacet
  facet normal 0 0 1
    outer loop
      vertex 3.80203 3.24724 11.1
      vertex 3.80203 -3.24724 11.1
      vertex 4.04508 -2.93893 11.1
    endloop
  endfacet
  facet normal 0 0 1
    outer loop
      vertex 3.53553 3.53553 11.1
      vertex 3.80203 -3.24724 11.1
      vertex 3.80203 3.24724 11.1
    endloop
  endfacet
  facet normal 0 0 1
    outer loop
      vertex 3.53553 3.53553 11.1
      vertex 3.53553 -3.53553 11.1
      vertex 3.80203 -3.24724 11.1
    endloop
  endfacet
  facet normal 0 0 1
    outer loop
      vertex 3.24724 3.80203 11.1
      vertex 3.53553 -3.53553 11.1
      vertex 3.53553 3.53553 11.1
    endloop
  endfacet
  facet normal 0 0 1
    outer loop
      vertex 3.24724 3.80203 11.1
      vertex 3.24724 -3.80203 11.1
      vertex 3.53553 -3.53553 11.1
    endloop
  endfacet
  facet normal 0 0 1
    outer loop
      vertex 2.93893 4.04508 11.1
      vertex 3.24724 -3.80203 11.1
      vertex 3.24724 3.80203 11.1
    endloop
  endfacet
  facet normal 0 0 1
    outer loop
      vertex 2.93893 4.04508 11.1
      vertex 2.93893 -4.04508 11.1
      vertex 3.24724 -3.80203 11.1
    endloop
  endfacet
  facet normal 0 0 1
    outer loop
      vertex 2.61249 4.2632 11.1
      vertex 2.93893 -4.04508 11.1
      vertex 2.93893 4.04508 11.1
    endloop
  endfacet
  facet normal 0 0 1
    outer loop
      vertex 2.61249 4.2632 11.1
      vertex 2.61249 -4.2632 11.1
      vertex 2.93893 -4.04508 11.1
    endloop
  endfacet
  facet normal 0 0 1
    outer loop
      vertex 2.26995 4.45503 11.1
      vertex 2.61249 -4.2632 11.1
      vertex 2.61249 4.2632 11.1
    endloop
  endfacet
  facet normal 0 0 1
    outer loop
      vertex 2.26995 4.45503 11.1
      vertex 2.26995 -4.45503 11.1
      vertex 2.61249 -4.2632 11.1
    endloop
  endfacet
  facet normal 0 0 1
    outer loop
      vertex 1.91342 4.6194 11.1
      vertex 2.26995 -4.45503 11.1
      vertex 2.26995 4.45503 11.1
    endloop
  endfacet
  facet normal 0 0 1
    outer loop
      vertex 1.91342 4.6194 11.1
      vertex 1.91342 -4.6194 11.1
      vertex 2.26995 -4.45503 11.1
    endloop
  endfacet
  facet normal 0 0 1
    outer loop
      vertex 1.54508 4.75528 11.1
      vertex 1.91342 -4.6194 11.1
      vertex 1.91342 4.6194 11.1
    endloop
  endfacet
  facet normal 0 0 1
    outer loop
      vertex 1.54508 4.75528 11.1
      vertex 1.54508 -4.75528 11.1
      vertex 1.91342 -4.6194 11.1
    endloop
  endfacet
  facet normal 0 0 1
    outer loop
      vertex 1.16723 4.86185 11.1
      vertex 1.54508 -4.75528 11.1
      vertex 1.54508 4.75528 11.1
    endloop
  endfacet
  facet normal 0 0 1
    outer loop
      vertex 1.16723 4.86185 11.1
      vertex 1.16723 -4.86185 11.1
      vertex 1.54508 -4.75528 11.1
    endloop
  endfacet
  facet normal 0 0 1
    outer loop
      vertex 0.782172 4.93844 11.1
      vertex 1.16723 -4.86185 11.1
      vertex 1.16723 4.86185 11.1
    endloop
  endfacet
  facet normal 0 0 1
    outer loop
      vertex 0.782172 4.93844 11.1
      vertex 0.782172 -4.93844 11.1
      vertex 1.16723 -4.86185 11.1
    endloop
  endfacet
  facet normal 0 0 1
    outer loop
      vertex 0.392295 4.98459 11.1
      vertex 0.782172 -4.93844 11.1
      vertex 0.782172 4.93844 11.1
    endloop
  endfacet
  facet normal 0 0 1
    outer loop
      vertex 0.392295 4.98459 11.1
      vertex 0.392295 -4.98459 11.1
      vertex 0.782172 -4.93844 11.1
    endloop
  endfacet
  facet normal 0 0 1
    outer loop
      vertex 0 5 11.1
      vertex 0.392295 -4.98459 11.1
      vertex 0.392295 4.98459 11.1
    endloop
  endfacet
  facet normal 0 0 1
    outer loop
      vertex 0 5 11.1
      vertex 0 -5 11.1
      vertex 0.392295 -4.98459 11.1
    endloop
  endfacet
  facet normal -0 0 1
    outer loop
      vertex -0.392295 4.98459 11.1
      vertex 0 -5 11.1
      vertex 0 5 11.1
    endloop
  endfacet
  facet normal 0 0 1
    outer loop
      vertex -0.392295 4.98459 11.1
      vertex -0.392295 -4.98459 11.1
      vertex 0 -5 11.1
    endloop
  endfacet
  facet normal -0 0 1
    outer loop
      vertex -0.782172 4.93844 11.1
      vertex -0.392295 -4.98459 11.1
      vertex -0.392295 4.98459 11.1
    endloop
  endfacet
  facet normal 0 0 1
    outer loop
      vertex -0.782172 4.93844 11.1
      vertex -0.782172 -4.93844 11.1
      vertex -0.392295 -4.98459 11.1
    endloop
  endfacet
  facet normal -0 0 1
    outer loop
      vertex -1.16723 4.86185 11.1
      vertex -0.782172 -4.93844 11.1
      vertex -0.782172 4.93844 11.1
    endloop
  endfacet
  facet normal 0 0 1
    outer loop
      vertex -1.16723 4.86185 11.1
      vertex -1.16723 -4.86185 11.1
      vertex -0.782172 -4.93844 11.1
    endloop
  endfacet
  facet normal -0 0 1
    outer loop
      vertex -1.54508 4.75528 11.1
      vertex -1.16723 -4.86185 11.1
      vertex -1.16723 4.86185 11.1
    endloop
  endfacet
  facet normal 0 0 1
    outer loop
      vertex -1.54508 4.75528 11.1
      vertex -1.54508 -4.75528 11.1
      vertex -1.16723 -4.86185 11.1
    endloop
  endfacet
  facet normal -0 0 1
    outer loop
      vertex -1.91342 4.6194 11.1
      vertex -1.54508 -4.75528 11.1
      vertex -1.54508 4.75528 11.1
    endloop
  endfacet
  facet normal 0 0 1
    outer loop
      vertex -1.91342 4.6194 11.1
      vertex -1.91342 -4.6194 11.1
      vertex -1.54508 -4.75528 11.1
    endloop
  endfacet
  facet normal -0 0 1
    outer loop
      vertex -2.26995 4.45503 11.1
      vertex -1.91342 -4.6194 11.1
      vertex -1.91342 4.6194 11.1
    endloop
  endfacet
  facet normal 0 0 1
    outer loop
      vertex -2.26995 4.45503 11.1
      vertex -2.26995 -4.45503 11.1
      vertex -1.91342 -4.6194 11.1
    endloop
  endfacet
  facet normal -0 0 1
    outer loop
      vertex -2.61249 4.2632 11.1
      vertex -2.26995 -4.45503 11.1
      vertex -2.26995 4.45503 11.1
    endloop
  endfacet
  facet normal 0 0 1
    outer loop
      vertex -2.61249 4.2632 11.1
      vertex -2.61249 -4.2632 11.1
      vertex -2.26995 -4.45503 11.1
    endloop
  endfacet
  facet normal -0 0 1
    outer loop
      vertex -2.93893 4.04508 11.1
      vertex -2.61249 -4.2632 11.1
      vertex -2.61249 4.2632 11.1
    endloop
  endfacet
  facet normal 0 0 1
    outer loop
      vertex -2.93893 4.04508 11.1
      vertex -2.93893 -4.04508 11.1
      vertex -2.61249 -4.2632 11.1
    endloop
  endfacet
  facet normal -0 0 1
    outer loop
      vertex -3.24724 3.80203 11.1
      vertex -2.93893 -4.04508 11.1
      vertex -2.93893 4.04508 11.1
    endloop
  endfacet
  facet normal 0 0 1
    outer loop
      vertex -3.24724 3.80203 11.1
      vertex -3.24724 -3.80203 11.1
      vertex -2.93893 -4.04508 11.1
    endloop
  endfacet
  facet normal -0 0 1
    outer loop
      vertex -3.53553 3.53553 11.1
      vertex -3.24724 -3.80203 11.1
      vertex -3.24724 3.80203 11.1
    endloop
  endfacet
  facet normal 0 0 1
    outer loop
      vertex -3.53553 3.53553 11.1
      vertex -3.53553 -3.53553 11.1
      vertex -3.24724 -3.80203 11.1
    endloop
  endfacet
  facet normal -0 0 1
    outer loop
      vertex -3.80203 3.24724 11.1
      vertex -3.53553 -3.53553 11.1
      vertex -3.53553 3.53553 11.1
    endloop
  endfacet
  facet normal 0 0 1
    outer loop
      vertex -3.80203 3.24724 11.1
      vertex -3.80203 -3.24724 11.1
      vertex -3.53553 -3.53553 11.1
    endloop
  endfacet
  facet normal -0 0 1
    outer loop
      vertex -4.04508 2.93893 11.1
      vertex -3.80203 -3.24724 11.1
      vertex -3.80203 3.24724 11.1
    endloop
  endfacet
  facet normal 0 0 1
    outer loop
      vertex -4.04508 2.93893 11.1
      vertex -4.04508 -2.93893 11.1
      vertex -3.80203 -3.24724 11.1
    endloop
  endfacet
  facet normal -0 0 1
    outer loop
      vertex -4.2632 2.61249 11.1
      vertex -4.04508 -2.93893 11.1
      vertex -4.04508 2.93893 11.1
    endloop
  endfacet
  facet normal 0 0 1
    outer loop
      vertex -4.2632 2.61249 11.1
      vertex -4.2632 -2.61249 11.1
      vertex -4.04508 -2.93893 11.1
    endloop
  endfacet
  facet normal -0 0 1
    outer loop
      vertex -4.45503 2.26995 11.1
      vertex -4.2632 -2.61249 11.1
      vertex -4.2632 2.61249 11.1
    endloop
  endfacet
  facet normal 0 0 1
    outer loop
      vertex -4.45503 2.26995 11.1
      vertex -4.45503 -2.26995 11.1
      vertex -4.2632 -2.61249 11.1
    endloop
  endfacet
  facet normal -0 0 1
    outer loop
      vertex -4.6194 1.91342 11.1
      vertex -4.45503 -2.26995 11.1
      vertex -4.45503 2.26995 11.1
    endloop
  endfacet
  facet normal 0 0 1
    outer loop
      vertex -4.6194 1.91342 11.1
      vertex -4.6194 -1.91342 11.1
      vertex -4.45503 -2.26995 11.1
    endloop
  endfacet
  facet normal -0 0 1
    outer loop
      vertex -4.75528 1.54508 11.1
      vertex -4.6194 -1.91342 11.1
      vertex -4.6194 1.91342 11.1
    endloop
  endfacet
  facet normal 0 0 1
    outer loop
      vertex -4.75528 1.54508 11.1
      vertex -4.75528 -1.54508 11.1
      vertex -4.6194 -1.91342 11.1
    endloop
  endfacet
  facet normal -0 0 1
    outer loop
      vertex -4.86185 1.16723 11.1
      vertex -4.75528 -1.54508 11.1
      vertex -4.75528 1.54508 11.1
    endloop
  endfacet
  facet normal 0 0 1
    outer loop
      vertex -4.86185 1.16723 11.1
      vertex -4.86185 -1.16723 11.1
      vertex -4.75528 -1.54508 11.1
    endloop
  endfacet
  facet normal -0 0 1
    outer loop
      vertex -4.93844 0.782172 11.1
      vertex -4.86185 -1.16723 11.1
      vertex -4.86185 1.16723 11.1
    endloop
  endfacet
  facet normal 0 0 1
    outer loop
      vertex -4.93844 0.782172 11.1
      vertex -4.93844 -0.782172 11.1
      vertex -4.86185 -1.16723 11.1
    endloop
  endfacet
  facet normal -0 0 1
    outer loop
      vertex -4.98459 0.392295 11.1
      vertex -4.93844 -0.782172 11.1
      vertex -4.93844 0.782172 11.1
    endloop
  endfacet
  facet normal 0 0 1
    outer loop
      vertex -4.98459 0.392295 11.1
      vertex -4.98459 -0.392295 11.1
      vertex -4.93844 -0.782172 11.1
    endloop
  endfacet
  facet normal 0 -0 1
    outer loop
      vertex -4.98459 -0.392295 11.1
      vertex -4.98459 0.392295 11.1
      vertex -5 0 11.1
    endloop
  endfacet
  facet normal -0.488618 0.872498 0
    outer loop
      vertex -2.26995 4.45503 0.0999994
      vertex -2.61249 4.2632 11.1
      vertex -2.26995 4.45503 11.1
    endloop
  endfacet
  facet normal -0.488618 0.872498 0
    outer loop
      vertex -2.61249 4.2632 11.1
      vertex -2.26995 4.45503 0.0999994
      vertex -2.61249 4.2632 0.0999994
    endloop
  endfacet
  facet normal -0.418675 0.908136 0
    outer loop
      vertex -1.91342 4.6194 0.0999994
      vertex -2.26995 4.45503 11.1
      vertex -1.91342 4.6194 11.1
    endloop
  endfacet
  facet normal -0.418675 0.908136 0
    outer loop
      vertex -2.26995 4.45503 11.1
      vertex -1.91342 4.6194 0.0999994
      vertex -2.26995 4.45503 0.0999994
    endloop
  endfacet
  facet normal -0.55557 0.83147 0
    outer loop
      vertex -2.61249 4.2632 0.0999994
      vertex -2.93893 4.04508 11.1
      vertex -2.61249 4.2632 11.1
    endloop
  endfacet
  facet normal -0.55557 0.83147 0
    outer loop
      vertex -2.93893 4.04508 11.1
      vertex -2.61249 4.2632 0.0999994
      vertex -2.93893 4.04508 0.0999994
    endloop
  endfacet
  facet normal -0.0392514 0.999229 0
    outer loop
      vertex 0 5 0.0999994
      vertex -0.392295 4.98459 11.1
      vertex 0 5 11.1
    endloop
  endfacet
  facet normal -0.0392514 0.999229 0
    outer loop
      vertex -0.392295 4.98459 11.1
      vertex 0 5 0.0999994
      vertex -0.392295 4.98459 0.0999994
    endloop
  endfacet
  facet normal 0.0392514 -0.999229 0
    outer loop
      vertex 0 -5 0.0999994
      vertex 0.392295 -4.98459 11.1
      vertex 0 -5 11.1
    endloop
  endfacet
  facet normal 0.0392514 -0.999229 0
    outer loop
      vertex 0.392295 -4.98459 11.1
      vertex 0 -5 0.0999994
      vertex 0.392295 -4.98459 0.0999994
    endloop
  endfacet
  facet normal 0.55557 -0.83147 0
    outer loop
      vertex 2.61249 -4.2632 0.0999994
      vertex 2.93893 -4.04508 11.1
      vertex 2.61249 -4.2632 11.1
    endloop
  endfacet
  facet normal 0.55557 -0.83147 0
    outer loop
      vertex 2.93893 -4.04508 11.1
      vertex 2.61249 -4.2632 0.0999994
      vertex 2.93893 -4.04508 0.0999994
    endloop
  endfacet
  facet normal 0.418675 -0.908136 0
    outer loop
      vertex 1.91342 -4.6194 0.0999994
      vertex 2.26995 -4.45503 11.1
      vertex 1.91342 -4.6194 11.1
    endloop
  endfacet
  facet normal 0.418675 -0.908136 0
    outer loop
      vertex 2.26995 -4.45503 11.1
      vertex 1.91342 -4.6194 0.0999994
      vertex 2.26995 -4.45503 0.0999994
    endloop
  endfacet
  facet normal 0.872498 -0.488618 0
    outer loop
      vertex 4.2632 -2.61249 11.1
      vertex 4.45503 -2.26995 0.0999994
      vertex 4.45503 -2.26995 11.1
    endloop
  endfacet
  facet normal 0.872498 -0.488618 0
    outer loop
      vertex 4.45503 -2.26995 0.0999994
      vertex 4.2632 -2.61249 11.1
      vertex 4.2632 -2.61249 0.0999994
    endloop
  endfacet
  facet normal -0.488618 -0.872498 0
    outer loop
      vertex -2.61249 -4.2632 0.0999994
      vertex -2.26995 -4.45503 11.1
      vertex -2.61249 -4.2632 11.1
    endloop
  endfacet
  facet normal -0.488618 -0.872498 -0
    outer loop
      vertex -2.26995 -4.45503 11.1
      vertex -2.61249 -4.2632 0.0999994
      vertex -2.26995 -4.45503 0.0999994
    endloop
  endfacet
  facet normal -0.3461 -0.938198 0
    outer loop
      vertex -1.91342 -4.6194 0.0999994
      vertex -1.54508 -4.75528 11.1
      vertex -1.91342 -4.6194 11.1
    endloop
  endfacet
  facet normal -0.3461 -0.938198 -0
    outer loop
      vertex -1.54508 -4.75528 11.1
      vertex -1.91342 -4.6194 0.0999994
      vertex -1.54508 -4.75528 0.0999994
    endloop
  endfacet
  facet normal -0.11755 -0.993067 0
    outer loop
      vertex -0.782172 -4.93844 0.0999994
      vertex -0.392295 -4.98459 11.1
      vertex -0.782172 -4.93844 11.1
    endloop
  endfacet
  facet normal -0.11755 -0.993067 -0
    outer loop
      vertex -0.392295 -4.98459 11.1
      vertex -0.782172 -4.93844 0.0999994
      vertex -0.392295 -4.98459 0.0999994
    endloop
  endfacet
  facet normal -0.908136 -0.418675 0
    outer loop
      vertex -4.45503 -2.26995 0.0999994
      vertex -4.6194 -1.91342 11.1
      vertex -4.6194 -1.91342 0.0999994
    endloop
  endfacet
  facet normal -0.908136 -0.418675 0
    outer loop
      vertex -4.6194 -1.91342 11.1
      vertex -4.45503 -2.26995 0.0999994
      vertex -4.45503 -2.26995 11.1
    endloop
  endfacet
  facet normal -0.83147 -0.55557 0
    outer loop
      vertex -4.04508 -2.93893 0.0999994
      vertex -4.2632 -2.61249 11.1
      vertex -4.2632 -2.61249 0.0999994
    endloop
  endfacet
  facet normal -0.83147 -0.55557 0
    outer loop
      vertex -4.2632 -2.61249 11.1
      vertex -4.04508 -2.93893 0.0999994
      vertex -4.04508 -2.93893 11.1
    endloop
  endfacet
  facet normal -0.999229 -0.0392514 0
    outer loop
      vertex -4.98459 -0.392295 0.0999994
      vertex -5 0 11.1
      vertex -5 0 0.0999994
    endloop
  endfacet
  facet normal -0.999229 -0.0392514 0
    outer loop
      vertex -5 0 11.1
      vertex -4.98459 -0.392295 0.0999994
      vertex -4.98459 -0.392295 11.1
    endloop
  endfacet
  facet normal 0.785319 0.619091 0
    outer loop
      vertex 4.04508 2.93893 11.1
      vertex 3.80203 3.24724 0.0999994
      vertex 3.80203 3.24724 11.1
    endloop
  endfacet
  facet normal 0.785319 0.619091 0
    outer loop
      vertex 3.80203 3.24724 0.0999994
      vertex 4.04508 2.93893 11.1
      vertex 4.04508 2.93893 0.0999994
    endloop
  endfacet
  facet normal 0.271453 0.962452 -0
    outer loop
      vertex 1.54508 4.75528 0.0999994
      vertex 1.16723 4.86185 11.1
      vertex 1.54508 4.75528 11.1
    endloop
  endfacet
  facet normal 0.271453 0.962452 0
    outer loop
      vertex 1.16723 4.86185 11.1
      vertex 1.54508 4.75528 0.0999994
      vertex 1.16723 4.86185 0.0999994
    endloop
  endfacet
  facet normal 0.678811 0.734313 -0
    outer loop
      vertex 3.53553 3.53553 0.0999994
      vertex 3.24724 3.80203 11.1
      vertex 3.53553 3.53553 11.1
    endloop
  endfacet
  facet normal 0.678811 0.734313 0
    outer loop
      vertex 3.24724 3.80203 11.1
      vertex 3.53553 3.53553 0.0999994
      vertex 3.24724 3.80203 0.0999994
    endloop
  endfacet
  facet normal -0.785319 0.619091 0
    outer loop
      vertex -4.04508 2.93893 0.0999994
      vertex -3.80203 3.24724 11.1
      vertex -3.80203 3.24724 0.0999994
    endloop
  endfacet
  facet normal -0.785319 0.619091 0
    outer loop
      vertex -3.80203 3.24724 11.1
      vertex -4.04508 2.93893 0.0999994
      vertex -4.04508 2.93893 11.1
    endloop
  endfacet
  facet normal -0.734313 0.678811 0
    outer loop
      vertex -3.80203 3.24724 0.0999994
      vertex -3.53553 3.53553 11.1
      vertex -3.53553 3.53553 0.0999994
    endloop
  endfacet
  facet normal -0.734313 0.678811 0
    outer loop
      vertex -3.53553 3.53553 11.1
      vertex -3.80203 3.24724 0.0999994
      vertex -3.80203 3.24724 11.1
    endloop
  endfacet
  facet normal -0.962452 0.271453 0
    outer loop
      vertex -4.86185 1.16723 0.0999994
      vertex -4.75528 1.54508 11.1
      vertex -4.75528 1.54508 0.0999994
    endloop
  endfacet
  facet normal -0.962452 0.271453 0
    outer loop
      vertex -4.75528 1.54508 11.1
      vertex -4.86185 1.16723 0.0999994
      vertex -4.86185 1.16723 11.1
    endloop
  endfacet
  facet normal -0.619091 0.785319 0
    outer loop
      vertex -2.93893 4.04508 0.0999994
      vertex -3.24724 3.80203 11.1
      vertex -2.93893 4.04508 11.1
    endloop
  endfacet
  facet normal -0.619091 0.785319 0
    outer loop
      vertex -3.24724 3.80203 11.1
      vertex -2.93893 4.04508 0.0999994
      vertex -3.24724 3.80203 0.0999994
    endloop
  endfacet
  facet normal -0.195083 0.980787 0
    outer loop
      vertex -0.782172 4.93844 0.0999994
      vertex -1.16723 4.86185 11.1
      vertex -0.782172 4.93844 11.1
    endloop
  endfacet
  facet normal -0.195083 0.980787 0
    outer loop
      vertex -1.16723 4.86185 11.1
      vertex -0.782172 4.93844 0.0999994
      vertex -1.16723 4.86185 0.0999994
    endloop
  endfacet
  facet normal -0.271453 0.962452 0
    outer loop
      vertex -1.16723 4.86185 0.0999994
      vertex -1.54508 4.75528 11.1
      vertex -1.16723 4.86185 11.1
    endloop
  endfacet
  facet normal -0.271453 0.962452 0
    outer loop
      vertex -1.54508 4.75528 11.1
      vertex -1.16723 4.86185 0.0999994
      vertex -1.54508 4.75528 0.0999994
    endloop
  endfacet
  facet normal 0.999229 -0.0392514 0
    outer loop
      vertex 4.98459 -0.392295 11.1
      vertex 5 0 0.0999994
      vertex 5 0 11.1
    endloop
  endfacet
  facet normal 0.999229 -0.0392514 0
    outer loop
      vertex 5 0 0.0999994
      vertex 4.98459 -0.392295 11.1
      vertex 4.98459 -0.392295 0.0999994
    endloop
  endfacet
  facet normal 0.11755 -0.993067 0
    outer loop
      vertex 0.392295 -4.98459 0.0999994
      vertex 0.782172 -4.93844 11.1
      vertex 0.392295 -4.98459 11.1
    endloop
  endfacet
  facet normal 0.11755 -0.993067 0
    outer loop
      vertex 0.782172 -4.93844 11.1
      vertex 0.392295 -4.98459 0.0999994
      vertex 0.782172 -4.93844 0.0999994
    endloop
  endfacet
  facet normal 0.3461 -0.938198 0
    outer loop
      vertex 1.54508 -4.75528 0.0999994
      vertex 1.91342 -4.6194 11.1
      vertex 1.54508 -4.75528 11.1
    endloop
  endfacet
  facet normal 0.3461 -0.938198 0
    outer loop
      vertex 1.91342 -4.6194 11.1
      vertex 1.54508 -4.75528 0.0999994
      vertex 1.91342 -4.6194 0.0999994
    endloop
  endfacet
  facet normal 0.195083 -0.980787 0
    outer loop
      vertex 0.782172 -4.93844 0.0999994
      vertex 1.16723 -4.86185 11.1
      vertex 0.782172 -4.93844 11.1
    endloop
  endfacet
  facet normal 0.195083 -0.980787 0
    outer loop
      vertex 1.16723 -4.86185 11.1
      vertex 0.782172 -4.93844 0.0999994
      vertex 1.16723 -4.86185 0.0999994
    endloop
  endfacet
  facet normal 0.619091 -0.785319 0
    outer loop
      vertex 2.93893 -4.04508 0.0999994
      vertex 3.24724 -3.80203 11.1
      vertex 2.93893 -4.04508 11.1
    endloop
  endfacet
  facet normal 0.619091 -0.785319 0
    outer loop
      vertex 3.24724 -3.80203 11.1
      vertex 2.93893 -4.04508 0.0999994
      vertex 3.24724 -3.80203 0.0999994
    endloop
  endfacet
  facet normal 0.488618 -0.872498 0
    outer loop
      vertex 2.26995 -4.45503 0.0999994
      vertex 2.61249 -4.2632 11.1
      vertex 2.26995 -4.45503 11.1
    endloop
  endfacet
  facet normal 0.488618 -0.872498 0
    outer loop
      vertex 2.61249 -4.2632 11.1
      vertex 2.26995 -4.45503 0.0999994
      vertex 2.61249 -4.2632 0.0999994
    endloop
  endfacet
  facet normal 0.734313 -0.678811 0
    outer loop
      vertex 3.53553 -3.53553 11.1
      vertex 3.80203 -3.24724 0.0999994
      vertex 3.80203 -3.24724 11.1
    endloop
  endfacet
  facet normal 0.734313 -0.678811 0
    outer loop
      vertex 3.80203 -3.24724 0.0999994
      vertex 3.53553 -3.53553 11.1
      vertex 3.53553 -3.53553 0.0999994
    endloop
  endfacet
  facet normal 0.83147 -0.55557 0
    outer loop
      vertex 4.04508 -2.93893 11.1
      vertex 4.2632 -2.61249 0.0999994
      vertex 4.2632 -2.61249 11.1
    endloop
  endfacet
  facet normal 0.83147 -0.55557 0
    outer loop
      vertex 4.2632 -2.61249 0.0999994
      vertex 4.04508 -2.93893 11.1
      vertex 4.04508 -2.93893 0.0999994
    endloop
  endfacet
  facet normal 0.908136 -0.418675 0
    outer loop
      vertex 4.45503 -2.26995 11.1
      vertex 4.6194 -1.91342 0.0999994
      vertex 4.6194 -1.91342 11.1
    endloop
  endfacet
  facet normal 0.908136 -0.418675 0
    outer loop
      vertex 4.6194 -1.91342 0.0999994
      vertex 4.45503 -2.26995 11.1
      vertex 4.45503 -2.26995 0.0999994
    endloop
  endfacet
  facet normal 0.980787 -0.195083 0
    outer loop
      vertex 4.86185 -1.16723 11.1
      vertex 4.93844 -0.782172 0.0999994
      vertex 4.93844 -0.782172 11.1
    endloop
  endfacet
  facet normal 0.980787 -0.195083 0
    outer loop
      vertex 4.93844 -0.782172 0.0999994
      vertex 4.86185 -1.16723 11.1
      vertex 4.86185 -1.16723 0.0999994
    endloop
  endfacet
  facet normal 0.993067 -0.11755 0
    outer loop
      vertex 4.93844 -0.782172 11.1
      vertex 4.98459 -0.392295 0.0999994
      vertex 4.98459 -0.392295 11.1
    endloop
  endfacet
  facet normal 0.993067 -0.11755 0
    outer loop
      vertex 4.98459 -0.392295 0.0999994
      vertex 4.93844 -0.782172 11.1
      vertex 4.93844 -0.782172 0.0999994
    endloop
  endfacet
  facet normal -0.678811 -0.734313 0
    outer loop
      vertex -3.53553 -3.53553 0.0999994
      vertex -3.24724 -3.80203 11.1
      vertex -3.53553 -3.53553 11.1
    endloop
  endfacet
  facet normal -0.678811 -0.734313 -0
    outer loop
      vertex -3.24724 -3.80203 11.1
      vertex -3.53553 -3.53553 0.0999994
      vertex -3.24724 -3.80203 0.0999994
    endloop
  endfacet
  facet normal -0.55557 -0.83147 0
    outer loop
      vertex -2.93893 -4.04508 0.0999994
      vertex -2.61249 -4.2632 11.1
      vertex -2.93893 -4.04508 11.1
    endloop
  endfacet
  facet normal -0.55557 -0.83147 -0
    outer loop
      vertex -2.61249 -4.2632 11.1
      vertex -2.93893 -4.04508 0.0999994
      vertex -2.61249 -4.2632 0.0999994
    endloop
  endfacet
  facet normal -0.418675 -0.908136 0
    outer loop
      vertex -2.26995 -4.45503 0.0999994
      vertex -1.91342 -4.6194 11.1
      vertex -2.26995 -4.45503 11.1
    endloop
  endfacet
  facet normal -0.418675 -0.908136 -0
    outer loop
      vertex -1.91342 -4.6194 11.1
      vertex -2.26995 -4.45503 0.0999994
      vertex -1.91342 -4.6194 0.0999994
    endloop
  endfacet
  facet normal -0.271453 -0.962452 0
    outer loop
      vertex -1.54508 -4.75528 0.0999994
      vertex -1.16723 -4.86185 11.1
      vertex -1.54508 -4.75528 11.1
    endloop
  endfacet
  facet normal -0.271453 -0.962452 -0
    outer loop
      vertex -1.16723 -4.86185 11.1
      vertex -1.54508 -4.75528 0.0999994
      vertex -1.16723 -4.86185 0.0999994
    endloop
  endfacet
  facet normal -0.872498 -0.488618 0
    outer loop
      vertex -4.2632 -2.61249 0.0999994
      vertex -4.45503 -2.26995 11.1
      vertex -4.45503 -2.26995 0.0999994
    endloop
  endfacet
  facet normal -0.872498 -0.488618 0
    outer loop
      vertex -4.45503 -2.26995 11.1
      vertex -4.2632 -2.61249 0.0999994
      vertex -4.2632 -2.61249 11.1
    endloop
  endfacet
  facet normal -0.785319 -0.619091 0
    outer loop
      vertex -3.80203 -3.24724 0.0999994
      vertex -4.04508 -2.93893 11.1
      vertex -4.04508 -2.93893 0.0999994
    endloop
  endfacet
  facet normal -0.785319 -0.619091 0
    outer loop
      vertex -4.04508 -2.93893 11.1
      vertex -3.80203 -3.24724 0.0999994
      vertex -3.80203 -3.24724 11.1
    endloop
  endfacet
  facet normal -0.980787 -0.195083 0
    outer loop
      vertex -4.86185 -1.16723 0.0999994
      vertex -4.93844 -0.782172 11.1
      vertex -4.93844 -0.782172 0.0999994
    endloop
  endfacet
  facet normal -0.980787 -0.195083 0
    outer loop
      vertex -4.93844 -0.782172 11.1
      vertex -4.86185 -1.16723 0.0999994
      vertex -4.86185 -1.16723 11.1
    endloop
  endfacet
  facet normal -0.938198 -0.3461 0
    outer loop
      vertex -4.6194 -1.91342 0.0999994
      vertex -4.75528 -1.54508 11.1
      vertex -4.75528 -1.54508 0.0999994
    endloop
  endfacet
  facet normal -0.938198 -0.3461 0
    outer loop
      vertex -4.75528 -1.54508 11.1
      vertex -4.6194 -1.91342 0.0999994
      vertex -4.6194 -1.91342 11.1
    endloop
  endfacet
  facet normal -0.993067 -0.11755 0
    outer loop
      vertex -4.93844 -0.782172 0.0999994
      vertex -4.98459 -0.392295 11.1
      vertex -4.98459 -0.392295 0.0999994
    endloop
  endfacet
  facet normal -0.993067 -0.11755 0
    outer loop
      vertex -4.98459 -0.392295 11.1
      vertex -4.93844 -0.782172 0.0999994
      vertex -4.93844 -0.782172 11.1
    endloop
  endfacet
  facet normal 0.271453 -0.962452 0
    outer loop
      vertex 1.16723 -4.86185 0.0999994
      vertex 1.54508 -4.75528 11.1
      vertex 1.16723 -4.86185 11.1
    endloop
  endfacet
  facet normal 0.271453 -0.962452 0
    outer loop
      vertex 1.54508 -4.75528 11.1
      vertex 1.16723 -4.86185 0.0999994
      vertex 1.54508 -4.75528 0.0999994
    endloop
  endfacet
  facet normal 0.678811 -0.734313 0
    outer loop
      vertex 3.24724 -3.80203 0.0999994
      vertex 3.53553 -3.53553 11.1
      vertex 3.24724 -3.80203 11.1
    endloop
  endfacet
  facet normal 0.678811 -0.734313 0
    outer loop
      vertex 3.53553 -3.53553 11.1
      vertex 3.24724 -3.80203 0.0999994
      vertex 3.53553 -3.53553 0.0999994
    endloop
  endfacet
  facet normal 0.785319 -0.619091 0
    outer loop
      vertex 3.80203 -3.24724 11.1
      vertex 4.04508 -2.93893 0.0999994
      vertex 4.04508 -2.93893 11.1
    endloop
  endfacet
  facet normal 0.785319 -0.619091 0
    outer loop
      vertex 4.04508 -2.93893 0.0999994
      vertex 3.80203 -3.24724 11.1
      vertex 3.80203 -3.24724 0.0999994
    endloop
  endfacet
  facet normal 0.938198 -0.3461 0
    outer loop
      vertex 4.6194 -1.91342 11.1
      vertex 4.75528 -1.54508 0.0999994
      vertex 4.75528 -1.54508 11.1
    endloop
  endfacet
  facet normal 0.938198 -0.3461 0
    outer loop
      vertex 4.75528 -1.54508 0.0999994
      vertex 4.6194 -1.91342 11.1
      vertex 4.6194 -1.91342 0.0999994
    endloop
  endfacet
  facet normal -0.619091 -0.785319 0
    outer loop
      vertex -3.24724 -3.80203 0.0999994
      vertex -2.93893 -4.04508 11.1
      vertex -3.24724 -3.80203 11.1
    endloop
  endfacet
  facet normal -0.619091 -0.785319 -0
    outer loop
      vertex -2.93893 -4.04508 11.1
      vertex -3.24724 -3.80203 0.0999994
      vertex -2.93893 -4.04508 0.0999994
    endloop
  endfacet
  facet normal -0.195083 -0.980787 0
    outer loop
      vertex -1.16723 -4.86185 0.0999994
      vertex -0.782172 -4.93844 11.1
      vertex -1.16723 -4.86185 11.1
    endloop
  endfacet
  facet normal -0.195083 -0.980787 -0
    outer loop
      vertex -0.782172 -4.93844 11.1
      vertex -1.16723 -4.86185 0.0999994
      vertex -0.782172 -4.93844 0.0999994
    endloop
  endfacet
  facet normal -0.962452 -0.271453 0
    outer loop
      vertex -4.75528 -1.54508 0.0999994
      vertex -4.86185 -1.16723 11.1
      vertex -4.86185 -1.16723 0.0999994
    endloop
  endfacet
  facet normal -0.962452 -0.271453 0
    outer loop
      vertex -4.86185 -1.16723 11.1
      vertex -4.75528 -1.54508 0.0999994
      vertex -4.75528 -1.54508 11.1
    endloop
  endfacet
endsolid OpenSCAD_Model
