solid OpenSCAD_Model
  facet normal -0.0392769 -0.999228 0
    outer loop
      vertex 0 2.5 0.0999994
      vertex 0.196147 2.49229 4.5
      vertex 0 2.5 4.5
    endloop
  endfacet
  facet normal -0.0392769 -0.999228 -0
    outer loop
      vertex 0.196147 2.49229 4.5
      vertex 0 2.5 0.0999994
      vertex 0.196147 2.49229 0.0999994
    endloop
  endfacet
  facet normal 0.0392769 0.999228 -0
    outer loop
      vertex 0 -2.5 0.0999994
      vertex -0.196147 -2.49229 4.5
      vertex 0 -2.5 4.5
    endloop
  endfacet
  facet normal 0.0392769 0.999228 0
    outer loop
      vertex -0.196147 -2.49229 4.5
      vertex 0 -2.5 0.0999994
      vertex -0.196147 -2.49229 0.0999994
    endloop
  endfacet
  facet normal 0.346106 -0.938195 0
    outer loop
      vertex -0.956708 2.3097 0.0999994
      vertex -0.772542 2.37764 4.5
      vertex -0.956708 2.3097 4.5
    endloop
  endfacet
  facet normal 0.346106 -0.938195 0
    outer loop
      vertex -0.772542 2.37764 4.5
      vertex -0.956708 2.3097 0.0999994
      vertex -0.772542 2.37764 0.0999994
    endloop
  endfacet
  facet normal -0.418641 -0.908152 0
    outer loop
      vertex 0.956708 2.3097 0.0999994
      vertex 1.13498 2.22752 4.5
      vertex 0.956708 2.3097 4.5
    endloop
  endfacet
  facet normal -0.418641 -0.908152 -0
    outer loop
      vertex 1.13498 2.22752 4.5
      vertex 0.956708 2.3097 0.0999994
      vertex 1.13498 2.22752 0.0999994
    endloop
  endfacet
  facet normal -0.555593 -0.831454 0
    outer loop
      vertex 1.30625 2.1316 0.0999994
      vertex 1.46946 2.02254 4.5
      vertex 1.30625 2.1316 4.5
    endloop
  endfacet
  facet normal -0.555593 -0.831454 -0
    outer loop
      vertex 1.46946 2.02254 4.5
      vertex 1.30625 2.1316 0.0999994
      vertex 1.46946 2.02254 0.0999994
    endloop
  endfacet
  facet normal 0.19511 -0.980781 0
    outer loop
      vertex -0.583613 2.43092 0.0999994
      vertex -0.391086 2.46922 4.5
      vertex -0.583613 2.43092 4.5
    endloop
  endfacet
  facet normal 0.19511 -0.980781 0
    outer loop
      vertex -0.391086 2.46922 4.5
      vertex -0.583613 2.43092 0.0999994
      vertex -0.391086 2.46922 0.0999994
    endloop
  endfacet
  facet normal -0.271424 -0.96246 0
    outer loop
      vertex 0.583613 2.43092 0.0999994
      vertex 0.772542 2.37764 4.5
      vertex 0.583613 2.43092 4.5
    endloop
  endfacet
  facet normal -0.271424 -0.96246 -0
    outer loop
      vertex 0.772542 2.37764 4.5
      vertex 0.583613 2.43092 0.0999994
      vertex 0.772542 2.37764 0.0999994
    endloop
  endfacet
  facet normal -0.346106 -0.938195 0
    outer loop
      vertex 0.772542 2.37764 0.0999994
      vertex 0.956708 2.3097 4.5
      vertex 0.772542 2.37764 4.5
    endloop
  endfacet
  facet normal -0.346106 -0.938195 -0
    outer loop
      vertex 0.956708 2.3097 4.5
      vertex 0.772542 2.37764 0.0999994
      vertex 0.956708 2.3097 0.0999994
    endloop
  endfacet
  facet normal -0.19511 -0.980781 0
    outer loop
      vertex 0.391086 2.46922 0.0999994
      vertex 0.583613 2.43092 4.5
      vertex 0.391086 2.46922 4.5
    endloop
  endfacet
  facet normal -0.19511 -0.980781 -0
    outer loop
      vertex 0.583613 2.43092 4.5
      vertex 0.391086 2.46922 0.0999994
      vertex 0.583613 2.43092 0.0999994
    endloop
  endfacet
  facet normal -0.488637 -0.872487 0
    outer loop
      vertex 1.13498 2.22752 0.0999994
      vertex 1.30625 2.1316 4.5
      vertex 1.13498 2.22752 4.5
    endloop
  endfacet
  facet normal -0.488637 -0.872487 -0
    outer loop
      vertex 1.30625 2.1316 4.5
      vertex 1.13498 2.22752 0.0999994
      vertex 1.30625 2.1316 0.0999994
    endloop
  endfacet
  facet normal 0.488637 -0.872487 0
    outer loop
      vertex -1.30625 2.1316 0.0999994
      vertex -1.13498 2.22752 4.5
      vertex -1.30625 2.1316 4.5
    endloop
  endfacet
  facet normal 0.488637 -0.872487 0
    outer loop
      vertex -1.13498 2.22752 4.5
      vertex -1.30625 2.1316 0.0999994
      vertex -1.13498 2.22752 0.0999994
    endloop
  endfacet
  facet normal 0.418641 -0.908152 0
    outer loop
      vertex -1.13498 2.22752 0.0999994
      vertex -0.956708 2.3097 4.5
      vertex -1.13498 2.22752 4.5
    endloop
  endfacet
  facet normal 0.418641 -0.908152 0
    outer loop
      vertex -0.956708 2.3097 4.5
      vertex -1.13498 2.22752 0.0999994
      vertex -0.956708 2.3097 0.0999994
    endloop
  endfacet
  facet normal 0.271424 -0.96246 0
    outer loop
      vertex -0.772542 2.37764 0.0999994
      vertex -0.583613 2.43092 4.5
      vertex -0.772542 2.37764 4.5
    endloop
  endfacet
  facet normal 0.271424 -0.96246 0
    outer loop
      vertex -0.583613 2.43092 4.5
      vertex -0.772542 2.37764 0.0999994
      vertex -0.583613 2.43092 0.0999994
    endloop
  endfacet
  facet normal 0.117525 -0.99307 0
    outer loop
      vertex -0.391086 2.46922 0.0999994
      vertex -0.196147 2.49229 4.5
      vertex -0.391086 2.46922 4.5
    endloop
  endfacet
  facet normal 0.117525 -0.99307 0
    outer loop
      vertex -0.196147 2.49229 4.5
      vertex -0.391086 2.46922 0.0999994
      vertex -0.196147 2.49229 0.0999994
    endloop
  endfacet
  facet normal -0.271424 0.96246 0
    outer loop
      vertex 0.772542 -2.37764 0.0999994
      vertex 0.583613 -2.43092 4.5
      vertex 0.772542 -2.37764 4.5
    endloop
  endfacet
  facet normal -0.271424 0.96246 0
    outer loop
      vertex 0.583613 -2.43092 4.5
      vertex 0.772542 -2.37764 0.0999994
      vertex 0.583613 -2.43092 0.0999994
    endloop
  endfacet
  facet normal -0.418641 0.908152 0
    outer loop
      vertex 1.13498 -2.22752 0.0999994
      vertex 0.956708 -2.3097 4.5
      vertex 1.13498 -2.22752 4.5
    endloop
  endfacet
  facet normal -0.418641 0.908152 0
    outer loop
      vertex 0.956708 -2.3097 4.5
      vertex 1.13498 -2.22752 0.0999994
      vertex 0.956708 -2.3097 0.0999994
    endloop
  endfacet
  facet normal 0.555593 0.831454 -0
    outer loop
      vertex -1.30625 -2.1316 0.0999994
      vertex -1.46946 -2.02254 4.5
      vertex -1.30625 -2.1316 4.5
    endloop
  endfacet
  facet normal 0.555593 0.831454 0
    outer loop
      vertex -1.46946 -2.02254 4.5
      vertex -1.30625 -2.1316 0.0999994
      vertex -1.46946 -2.02254 0.0999994
    endloop
  endfacet
  facet normal 0.488637 0.872487 -0
    outer loop
      vertex -1.13498 -2.22752 0.0999994
      vertex -1.30625 -2.1316 4.5
      vertex -1.13498 -2.22752 4.5
    endloop
  endfacet
  facet normal 0.488637 0.872487 0
    outer loop
      vertex -1.30625 -2.1316 4.5
      vertex -1.13498 -2.22752 0.0999994
      vertex -1.30625 -2.1316 0.0999994
    endloop
  endfacet
  facet normal 0.346106 0.938195 -0
    outer loop
      vertex -0.772542 -2.37764 0.0999994
      vertex -0.956708 -2.3097 4.5
      vertex -0.772542 -2.37764 4.5
    endloop
  endfacet
  facet normal 0.346106 0.938195 0
    outer loop
      vertex -0.956708 -2.3097 4.5
      vertex -0.772542 -2.37764 0.0999994
      vertex -0.956708 -2.3097 0.0999994
    endloop
  endfacet
  facet normal 0.19511 0.980781 -0
    outer loop
      vertex -0.391086 -2.46922 0.0999994
      vertex -0.583613 -2.43092 4.5
      vertex -0.391086 -2.46922 4.5
    endloop
  endfacet
  facet normal 0.19511 0.980781 0
    outer loop
      vertex -0.583613 -2.43092 4.5
      vertex -0.391086 -2.46922 0.0999994
      vertex -0.583613 -2.43092 0.0999994
    endloop
  endfacet
  facet normal -0.117525 -0.99307 0
    outer loop
      vertex 0.196147 2.49229 0.0999994
      vertex 0.391086 2.46922 4.5
      vertex 0.196147 2.49229 4.5
    endloop
  endfacet
  facet normal -0.117525 -0.99307 -0
    outer loop
      vertex 0.391086 2.46922 4.5
      vertex 0.196147 2.49229 0.0999994
      vertex 0.391086 2.46922 0.0999994
    endloop
  endfacet
  facet normal -0.619002 -0.785389 0
    outer loop
      vertex 1.46946 2.02254 0.0999994
      vertex 1.5 1.99847 4.5
      vertex 1.46946 2.02254 4.5
    endloop
  endfacet
  facet normal -0.619002 -0.785389 -0
    outer loop
      vertex 1.5 1.99847 4.5
      vertex 1.46946 2.02254 0.0999994
      vertex 1.5 1.99847 0.0999994
    endloop
  endfacet
  facet normal 0.555593 -0.831454 0
    outer loop
      vertex -1.46946 2.02254 0.0999994
      vertex -1.30625 2.1316 4.5
      vertex -1.46946 2.02254 4.5
    endloop
  endfacet
  facet normal 0.555593 -0.831454 0
    outer loop
      vertex -1.30625 2.1316 4.5
      vertex -1.46946 2.02254 0.0999994
      vertex -1.30625 2.1316 0.0999994
    endloop
  endfacet
  facet normal 0.619002 -0.785389 0
    outer loop
      vertex -1.5 1.99847 0.0999994
      vertex -1.46946 2.02254 4.5
      vertex -1.5 1.99847 4.5
    endloop
  endfacet
  facet normal 0.619002 -0.785389 0
    outer loop
      vertex -1.46946 2.02254 4.5
      vertex -1.5 1.99847 0.0999994
      vertex -1.46946 2.02254 0.0999994
    endloop
  endfacet
  facet normal 0.0392769 -0.999228 0
    outer loop
      vertex -0.196147 2.49229 0.0999994
      vertex 0 2.5 4.5
      vertex -0.196147 2.49229 4.5
    endloop
  endfacet
  facet normal 0.0392769 -0.999228 0
    outer loop
      vertex 0 2.5 4.5
      vertex -0.196147 2.49229 0.0999994
      vertex 0 2.5 0.0999994
    endloop
  endfacet
  facet normal -0.0392769 0.999228 0
    outer loop
      vertex 0.196147 -2.49229 0.0999994
      vertex 0 -2.5 4.5
      vertex 0.196147 -2.49229 4.5
    endloop
  endfacet
  facet normal -0.0392769 0.999228 0
    outer loop
      vertex 0 -2.5 4.5
      vertex 0.196147 -2.49229 0.0999994
      vertex 0 -2.5 0.0999994
    endloop
  endfacet
  facet normal -0.19511 0.980781 0
    outer loop
      vertex 0.583613 -2.43092 0.0999994
      vertex 0.391086 -2.46922 4.5
      vertex 0.583613 -2.43092 4.5
    endloop
  endfacet
  facet normal -0.19511 0.980781 0
    outer loop
      vertex 0.391086 -2.46922 4.5
      vertex 0.583613 -2.43092 0.0999994
      vertex 0.391086 -2.46922 0.0999994
    endloop
  endfacet
  facet normal -0.346106 0.938195 0
    outer loop
      vertex 0.956708 -2.3097 0.0999994
      vertex 0.772542 -2.37764 4.5
      vertex 0.956708 -2.3097 4.5
    endloop
  endfacet
  facet normal -0.346106 0.938195 0
    outer loop
      vertex 0.772542 -2.37764 4.5
      vertex 0.956708 -2.3097 0.0999994
      vertex 0.772542 -2.37764 0.0999994
    endloop
  endfacet
  facet normal -0.555593 0.831454 0
    outer loop
      vertex 1.46946 -2.02254 0.0999994
      vertex 1.30625 -2.1316 4.5
      vertex 1.46946 -2.02254 4.5
    endloop
  endfacet
  facet normal -0.555593 0.831454 0
    outer loop
      vertex 1.30625 -2.1316 4.5
      vertex 1.46946 -2.02254 0.0999994
      vertex 1.30625 -2.1316 0.0999994
    endloop
  endfacet
  facet normal -0.488637 0.872487 0
    outer loop
      vertex 1.30625 -2.1316 0.0999994
      vertex 1.13498 -2.22752 4.5
      vertex 1.30625 -2.1316 4.5
    endloop
  endfacet
  facet normal -0.488637 0.872487 0
    outer loop
      vertex 1.13498 -2.22752 4.5
      vertex 1.30625 -2.1316 0.0999994
      vertex 1.13498 -2.22752 0.0999994
    endloop
  endfacet
  facet normal 0.619002 0.785389 -0
    outer loop
      vertex -1.46946 -2.02254 0.0999994
      vertex -1.5 -1.99847 4.5
      vertex -1.46946 -2.02254 4.5
    endloop
  endfacet
  facet normal 0.619002 0.785389 0
    outer loop
      vertex -1.5 -1.99847 4.5
      vertex -1.46946 -2.02254 0.0999994
      vertex -1.5 -1.99847 0.0999994
    endloop
  endfacet
  facet normal 0.418641 0.908152 -0
    outer loop
      vertex -0.956708 -2.3097 0.0999994
      vertex -1.13498 -2.22752 4.5
      vertex -0.956708 -2.3097 4.5
    endloop
  endfacet
  facet normal 0.418641 0.908152 0
    outer loop
      vertex -1.13498 -2.22752 4.5
      vertex -0.956708 -2.3097 0.0999994
      vertex -1.13498 -2.22752 0.0999994
    endloop
  endfacet
  facet normal 0.271424 0.96246 -0
    outer loop
      vertex -0.583613 -2.43092 0.0999994
      vertex -0.772542 -2.37764 4.5
      vertex -0.583613 -2.43092 4.5
    endloop
  endfacet
  facet normal 0.271424 0.96246 0
    outer loop
      vertex -0.772542 -2.37764 4.5
      vertex -0.583613 -2.43092 0.0999994
      vertex -0.772542 -2.37764 0.0999994
    endloop
  endfacet
  facet normal 0.117525 0.99307 -0
    outer loop
      vertex -0.196147 -2.49229 0.0999994
      vertex -0.391086 -2.46922 4.5
      vertex -0.196147 -2.49229 4.5
    endloop
  endfacet
  facet normal 0.117525 0.99307 0
    outer loop
      vertex -0.391086 -2.46922 4.5
      vertex -0.196147 -2.49229 0.0999994
      vertex -0.391086 -2.46922 0.0999994
    endloop
  endfacet
  facet normal -0.117525 0.99307 0
    outer loop
      vertex 0.391086 -2.46922 0.0999994
      vertex 0.196147 -2.49229 4.5
      vertex 0.391086 -2.46922 4.5
    endloop
  endfacet
  facet normal -0.117525 0.99307 0
    outer loop
      vertex 0.196147 -2.49229 4.5
      vertex 0.391086 -2.46922 0.0999994
      vertex 0.196147 -2.49229 0.0999994
    endloop
  endfacet
  facet normal -0.619002 0.785389 0
    outer loop
      vertex 1.5 -1.99847 0.0999994
      vertex 1.46946 -2.02254 4.5
      vertex 1.5 -1.99847 4.5
    endloop
  endfacet
  facet normal -0.619002 0.785389 0
    outer loop
      vertex 1.46946 -2.02254 4.5
      vertex 1.5 -1.99847 0.0999994
      vertex 1.46946 -2.02254 0.0999994
    endloop
  endfacet
  facet normal 1 -0 0
    outer loop
      vertex -1.5 -1.99847 4.5
      vertex -1.5 1.99847 0.0999994
      vertex -1.5 1.99847 4.5
    endloop
  endfacet
  facet normal 1 0 0
    outer loop
      vertex -1.5 1.99847 0.0999994
      vertex -1.5 -1.99847 4.5
      vertex -1.5 -1.99847 0.0999994
    endloop
  endfacet
  facet normal 0 0 -1
    outer loop
      vertex 1.30625 -2.1316 4.5
      vertex 1.5 -1.99847 4.5
      vertex 1.46946 -2.02254 4.5
    endloop
  endfacet
  facet normal -0 0 -1
    outer loop
      vertex 1.5 -1.99847 4.5
      vertex 1.30625 -2.1316 4.5
      vertex 1.5 1.99847 4.5
    endloop
  endfacet
  facet normal 0 0 -1
    outer loop
      vertex 1.30625 2.1316 4.5
      vertex 1.5 1.99847 4.5
      vertex 1.30625 -2.1316 4.5
    endloop
  endfacet
  facet normal 0 0 -1
    outer loop
      vertex 1.5 1.99847 4.5
      vertex 1.30625 2.1316 4.5
      vertex 1.46946 2.02254 4.5
    endloop
  endfacet
  facet normal 0 0 -1
    outer loop
      vertex 1.13498 -2.22752 4.5
      vertex 1.30625 2.1316 4.5
      vertex 1.30625 -2.1316 4.5
    endloop
  endfacet
  facet normal 0 0 -1
    outer loop
      vertex 1.13498 -2.22752 4.5
      vertex 1.13498 2.22752 4.5
      vertex 1.30625 2.1316 4.5
    endloop
  endfacet
  facet normal 0 0 -1
    outer loop
      vertex 0.956708 -2.3097 4.5
      vertex 1.13498 2.22752 4.5
      vertex 1.13498 -2.22752 4.5
    endloop
  endfacet
  facet normal 0 0 -1
    outer loop
      vertex 0.956708 -2.3097 4.5
      vertex 0.956708 2.3097 4.5
      vertex 1.13498 2.22752 4.5
    endloop
  endfacet
  facet normal 0 0 -1
    outer loop
      vertex 0.772542 -2.37764 4.5
      vertex 0.956708 2.3097 4.5
      vertex 0.956708 -2.3097 4.5
    endloop
  endfacet
  facet normal 0 0 -1
    outer loop
      vertex 0.772542 -2.37764 4.5
      vertex 0.772542 2.37764 4.5
      vertex 0.956708 2.3097 4.5
    endloop
  endfacet
  facet normal 0 0 -1
    outer loop
      vertex 0.583613 -2.43092 4.5
      vertex 0.772542 2.37764 4.5
      vertex 0.772542 -2.37764 4.5
    endloop
  endfacet
  facet normal 0 0 -1
    outer loop
      vertex 0.583613 -2.43092 4.5
      vertex 0.583613 2.43092 4.5
      vertex 0.772542 2.37764 4.5
    endloop
  endfacet
  facet normal 0 0 -1
    outer loop
      vertex 0.391086 -2.46922 4.5
      vertex 0.583613 2.43092 4.5
      vertex 0.583613 -2.43092 4.5
    endloop
  endfacet
  facet normal 0 0 -1
    outer loop
      vertex 0.391086 -2.46922 4.5
      vertex 0.391086 2.46922 4.5
      vertex 0.583613 2.43092 4.5
    endloop
  endfacet
  facet normal 0 0 -1
    outer loop
      vertex 0.196147 -2.49229 4.5
      vertex 0.391086 2.46922 4.5
      vertex 0.391086 -2.46922 4.5
    endloop
  endfacet
  facet normal 0 0 -1
    outer loop
      vertex 0.196147 -2.49229 4.5
      vertex 0.196147 2.49229 4.5
      vertex 0.391086 2.46922 4.5
    endloop
  endfacet
  facet normal 0 0 -1
    outer loop
      vertex 0 -2.5 4.5
      vertex 0.196147 2.49229 4.5
      vertex 0.196147 -2.49229 4.5
    endloop
  endfacet
  facet normal 0 0 -1
    outer loop
      vertex 0 -2.5 4.5
      vertex 0 2.5 4.5
      vertex 0.196147 2.49229 4.5
    endloop
  endfacet
  facet normal 0 0 -1
    outer loop
      vertex -0.196147 -2.49229 4.5
      vertex 0 2.5 4.5
      vertex 0 -2.5 4.5
    endloop
  endfacet
  facet normal 0 0 -1
    outer loop
      vertex -0.196147 -2.49229 4.5
      vertex -0.196147 2.49229 4.5
      vertex 0 2.5 4.5
    endloop
  endfacet
  facet normal 0 0 -1
    outer loop
      vertex -0.391086 -2.46922 4.5
      vertex -0.196147 2.49229 4.5
      vertex -0.196147 -2.49229 4.5
    endloop
  endfacet
  facet normal 0 0 -1
    outer loop
      vertex -0.391086 -2.46922 4.5
      vertex -0.391086 2.46922 4.5
      vertex -0.196147 2.49229 4.5
    endloop
  endfacet
  facet normal 0 0 -1
    outer loop
      vertex -0.583613 -2.43092 4.5
      vertex -0.391086 2.46922 4.5
      vertex -0.391086 -2.46922 4.5
    endloop
  endfacet
  facet normal 0 0 -1
    outer loop
      vertex -0.583613 -2.43092 4.5
      vertex -0.583613 2.43092 4.5
      vertex -0.391086 2.46922 4.5
    endloop
  endfacet
  facet normal 0 0 -1
    outer loop
      vertex -0.772542 -2.37764 4.5
      vertex -0.583613 2.43092 4.5
      vertex -0.583613 -2.43092 4.5
    endloop
  endfacet
  facet normal 0 0 -1
    outer loop
      vertex -0.772542 -2.37764 4.5
      vertex -0.772542 2.37764 4.5
      vertex -0.583613 2.43092 4.5
    endloop
  endfacet
  facet normal 0 0 -1
    outer loop
      vertex -0.956708 -2.3097 4.5
      vertex -0.772542 2.37764 4.5
      vertex -0.772542 -2.37764 4.5
    endloop
  endfacet
  facet normal 0 0 -1
    outer loop
      vertex -0.956708 -2.3097 4.5
      vertex -0.956708 2.3097 4.5
      vertex -0.772542 2.37764 4.5
    endloop
  endfacet
  facet normal 0 0 -1
    outer loop
      vertex -1.13498 -2.22752 4.5
      vertex -0.956708 2.3097 4.5
      vertex -0.956708 -2.3097 4.5
    endloop
  endfacet
  facet normal 0 0 -1
    outer loop
      vertex -1.13498 -2.22752 4.5
      vertex -1.13498 2.22752 4.5
      vertex -0.956708 2.3097 4.5
    endloop
  endfacet
  facet normal 0 0 -1
    outer loop
      vertex -1.30625 -2.1316 4.5
      vertex -1.13498 2.22752 4.5
      vertex -1.13498 -2.22752 4.5
    endloop
  endfacet
  facet normal 0 0 -1
    outer loop
      vertex -1.30625 -2.1316 4.5
      vertex -1.30625 2.1316 4.5
      vertex -1.13498 2.22752 4.5
    endloop
  endfacet
  facet normal 0 0 -1
    outer loop
      vertex -1.5 -1.99847 4.5
      vertex -1.30625 -2.1316 4.5
      vertex -1.46946 -2.02254 4.5
    endloop
  endfacet
  facet normal 0 0 -1
    outer loop
      vertex -1.30625 -2.1316 4.5
      vertex -1.5 -1.99847 4.5
      vertex -1.30625 2.1316 4.5
    endloop
  endfacet
  facet normal 0 0 -1
    outer loop
      vertex -1.5 1.99847 4.5
      vertex -1.30625 2.1316 4.5
      vertex -1.5 -1.99847 4.5
    endloop
  endfacet
  facet normal 0 0 -1
    outer loop
      vertex -1.30625 2.1316 4.5
      vertex -1.5 1.99847 4.5
      vertex -1.46946 2.02254 4.5
    endloop
  endfacet
  facet normal -1 0 0
    outer loop
      vertex 1.5 -1.99847 0.0999994
      vertex 1.5 1.99847 4.5
      vertex 1.5 1.99847 0.0999994
    endloop
  endfacet
  facet normal -1 -0 0
    outer loop
      vertex 1.5 1.99847 4.5
      vertex 1.5 -1.99847 0.0999994
      vertex 1.5 -1.99847 4.5
    endloop
  endfacet
  facet normal 0.999229 0.0392514 0
    outer loop
      vertex 5 0 11.1
      vertex 4.98459 0.392295 0.0999994
      vertex 4.98459 0.392295 11.1
    endloop
  endfacet
  facet normal 0.999229 0.0392514 0
    outer loop
      vertex 4.98459 0.392295 0.0999994
      vertex 5 0 11.1
      vertex 5 0 0.0999994
    endloop
  endfacet
  facet normal -0.999229 0.0392514 0
    outer loop
      vertex -5 0 0.0999994
      vertex -4.98459 0.392295 11.1
      vertex -4.98459 0.392295 0.0999994
    endloop
  endfacet
  facet normal -0.999229 0.0392514 0
    outer loop
      vertex -4.98459 0.392295 11.1
      vertex -5 0 0.0999994
      vertex -5 0 11.1
    endloop
  endfacet
  facet normal 0.0392514 0.999229 -0
    outer loop
      vertex 0.392295 4.98459 0.0999994
      vertex 0 5 11.1
      vertex 0.392295 4.98459 11.1
    endloop
  endfacet
  facet normal 0.0392514 0.999229 0
    outer loop
      vertex 0 5 11.1
      vertex 0.392295 4.98459 0.0999994
      vertex 0 5 0.0999994
    endloop
  endfacet
  facet normal -0.0392514 -0.999229 0
    outer loop
      vertex -0.392295 -4.98459 0.0999994
      vertex 0 -5 11.1
      vertex -0.392295 -4.98459 11.1
    endloop
  endfacet
  facet normal -0.0392514 -0.999229 -0
    outer loop
      vertex 0 -5 11.1
      vertex -0.392295 -4.98459 0.0999994
      vertex 0 -5 0.0999994
    endloop
  endfacet
  facet normal 0.734313 0.678811 0
    outer loop
      vertex 3.80203 3.24724 11.1
      vertex 3.53553 3.53553 0.0999994
      vertex 3.53553 3.53553 11.1
    endloop
  endfacet
  facet normal 0.734313 0.678811 0
    outer loop
      vertex 3.53553 3.53553 0.0999994
      vertex 3.80203 3.24724 11.1
      vertex 3.80203 3.24724 0.0999994
    endloop
  endfacet
  facet normal -0.678811 0.734313 0
    outer loop
      vertex -3.24724 3.80203 0.0999994
      vertex -3.53553 3.53553 11.1
      vertex -3.24724 3.80203 11.1
    endloop
  endfacet
  facet normal -0.678811 0.734313 0
    outer loop
      vertex -3.53553 3.53553 11.1
      vertex -3.24724 3.80203 0.0999994
      vertex -3.53553 3.53553 0.0999994
    endloop
  endfacet
  facet normal -0.3461 0.938198 0
    outer loop
      vertex -1.54508 4.75528 0.0999994
      vertex -1.91342 4.6194 11.1
      vertex -1.54508 4.75528 11.1
    endloop
  endfacet
  facet normal -0.3461 0.938198 0
    outer loop
      vertex -1.91342 4.6194 11.1
      vertex -1.54508 4.75528 0.0999994
      vertex -1.91342 4.6194 0.0999994
    endloop
  endfacet
  facet normal 0.938198 0.3461 0
    outer loop
      vertex 4.75528 1.54508 11.1
      vertex 4.6194 1.91342 0.0999994
      vertex 4.6194 1.91342 11.1
    endloop
  endfacet
  facet normal 0.938198 0.3461 0
    outer loop
      vertex 4.6194 1.91342 0.0999994
      vertex 4.75528 1.54508 11.1
      vertex 4.75528 1.54508 0.0999994
    endloop
  endfacet
  facet normal 0.418675 0.908136 -0
    outer loop
      vertex 2.26995 4.45503 0.0999994
      vertex 1.91342 4.6194 11.1
      vertex 2.26995 4.45503 11.1
    endloop
  endfacet
  facet normal 0.418675 0.908136 0
    outer loop
      vertex 1.91342 4.6194 11.1
      vertex 2.26995 4.45503 0.0999994
      vertex 1.91342 4.6194 0.0999994
    endloop
  endfacet
  facet normal 0.55557 0.83147 -0
    outer loop
      vertex 2.93893 4.04508 0.0999994
      vertex 2.61249 4.2632 11.1
      vertex 2.93893 4.04508 11.1
    endloop
  endfacet
  facet normal 0.55557 0.83147 0
    outer loop
      vertex 2.61249 4.2632 11.1
      vertex 2.93893 4.04508 0.0999994
      vertex 2.61249 4.2632 0.0999994
    endloop
  endfacet
  facet normal -0.908136 0.418675 0
    outer loop
      vertex -4.6194 1.91342 0.0999994
      vertex -4.45503 2.26995 11.1
      vertex -4.45503 2.26995 0.0999994
    endloop
  endfacet
  facet normal -0.908136 0.418675 0
    outer loop
      vertex -4.45503 2.26995 11.1
      vertex -4.6194 1.91342 0.0999994
      vertex -4.6194 1.91342 11.1
    endloop
  endfacet
  facet normal -0.785319 0.619091 0
    outer loop
      vertex -4.04508 2.93893 0.0999994
      vertex -3.80203 3.24724 11.1
      vertex -3.80203 3.24724 0.0999994
    endloop
  endfacet
  facet normal -0.785319 0.619091 0
    outer loop
      vertex -3.80203 3.24724 11.1
      vertex -4.04508 2.93893 0.0999994
      vertex -4.04508 2.93893 11.1
    endloop
  endfacet
  facet normal -0.11755 0.993067 0
    outer loop
      vertex -0.392295 4.98459 0.0999994
      vertex -0.782172 4.93844 11.1
      vertex -0.392295 4.98459 11.1
    endloop
  endfacet
  facet normal -0.11755 0.993067 0
    outer loop
      vertex -0.782172 4.93844 11.1
      vertex -0.392295 4.98459 0.0999994
      vertex -0.782172 4.93844 0.0999994
    endloop
  endfacet
  facet normal 0.962452 -0.271453 0
    outer loop
      vertex 4.75528 -1.54508 11.1
      vertex 4.86185 -1.16723 0.0999994
      vertex 4.86185 -1.16723 11.1
    endloop
  endfacet
  facet normal 0.962452 -0.271453 0
    outer loop
      vertex 4.86185 -1.16723 0.0999994
      vertex 4.75528 -1.54508 11.1
      vertex 4.75528 -1.54508 0.0999994
    endloop
  endfacet
  facet normal -0.785319 -0.619091 0
    outer loop
      vertex -3.80203 -3.24724 0.0999994
      vertex -4.04508 -2.93893 11.1
      vertex -4.04508 -2.93893 0.0999994
    endloop
  endfacet
  facet normal -0.785319 -0.619091 0
    outer loop
      vertex -4.04508 -2.93893 11.1
      vertex -3.80203 -3.24724 0.0999994
      vertex -3.80203 -3.24724 11.1
    endloop
  endfacet
  facet normal 0 0 -1
    outer loop
      vertex 1.5 -1.99847 0.0999994
      vertex 5 0 0.0999994
      vertex 4.98459 -0.392295 0.0999994
    endloop
  endfacet
  facet normal 0 0 -1
    outer loop
      vertex 1.5 -1.99847 0.0999994
      vertex 4.98459 -0.392295 0.0999994
      vertex 4.93844 -0.782172 0.0999994
    endloop
  endfacet
  facet normal 0 0 -1
    outer loop
      vertex 1.5 1.99847 0.0999994
      vertex 5 0 0.0999994
      vertex 1.5 -1.99847 0.0999994
    endloop
  endfacet
  facet normal 0 0 -1
    outer loop
      vertex 1.5 -1.99847 0.0999994
      vertex 4.93844 -0.782172 0.0999994
      vertex 4.86185 -1.16723 0.0999994
    endloop
  endfacet
  facet normal 0 0 -1
    outer loop
      vertex 5 0 0.0999994
      vertex 1.5 1.99847 0.0999994
      vertex 4.98459 0.392295 0.0999994
    endloop
  endfacet
  facet normal 0 0 -1
    outer loop
      vertex 1.5 -1.99847 0.0999994
      vertex 4.86185 -1.16723 0.0999994
      vertex 4.75528 -1.54508 0.0999994
    endloop
  endfacet
  facet normal 0 0 -1
    outer loop
      vertex 4.98459 0.392295 0.0999994
      vertex 1.5 1.99847 0.0999994
      vertex 4.93844 0.782172 0.0999994
    endloop
  endfacet
  facet normal 0 0 -1
    outer loop
      vertex 1.5 -1.99847 0.0999994
      vertex 4.75528 -1.54508 0.0999994
      vertex 4.6194 -1.91342 0.0999994
    endloop
  endfacet
  facet normal 0 0 -1
    outer loop
      vertex 4.93844 0.782172 0.0999994
      vertex 1.5 1.99847 0.0999994
      vertex 4.86185 1.16723 0.0999994
    endloop
  endfacet
  facet normal 0 0 -1
    outer loop
      vertex 1.5 -1.99847 0.0999994
      vertex 4.6194 -1.91342 0.0999994
      vertex 4.45503 -2.26995 0.0999994
    endloop
  endfacet
  facet normal 0 0 -1
    outer loop
      vertex 4.86185 1.16723 0.0999994
      vertex 1.5 1.99847 0.0999994
      vertex 4.75528 1.54508 0.0999994
    endloop
  endfacet
  facet normal 0 0 -1
    outer loop
      vertex 1.5 -1.99847 0.0999994
      vertex 4.45503 -2.26995 0.0999994
      vertex 4.2632 -2.61249 0.0999994
    endloop
  endfacet
  facet normal 0 0 -1
    outer loop
      vertex 4.75528 1.54508 0.0999994
      vertex 1.5 1.99847 0.0999994
      vertex 4.6194 1.91342 0.0999994
    endloop
  endfacet
  facet normal 0 0 -1
    outer loop
      vertex 1.5 -1.99847 0.0999994
      vertex 4.2632 -2.61249 0.0999994
      vertex 4.04508 -2.93893 0.0999994
    endloop
  endfacet
  facet normal 0 0 -1
    outer loop
      vertex 4.6194 1.91342 0.0999994
      vertex 1.5 1.99847 0.0999994
      vertex 4.45503 2.26995 0.0999994
    endloop
  endfacet
  facet normal 0 0 -1
    outer loop
      vertex 1.5 -1.99847 0.0999994
      vertex 4.04508 -2.93893 0.0999994
      vertex 3.80203 -3.24724 0.0999994
    endloop
  endfacet
  facet normal -0 0 -1
    outer loop
      vertex 4.45503 2.26995 0.0999994
      vertex 1.5 1.99847 0.0999994
      vertex 4.2632 2.61249 0.0999994
    endloop
  endfacet
  facet normal 0 0 -1
    outer loop
      vertex 1.5 -1.99847 0.0999994
      vertex 3.80203 -3.24724 0.0999994
      vertex 3.53553 -3.53553 0.0999994
    endloop
  endfacet
  facet normal -0 0 -1
    outer loop
      vertex 4.2632 2.61249 0.0999994
      vertex 1.5 1.99847 0.0999994
      vertex 4.04508 2.93893 0.0999994
    endloop
  endfacet
  facet normal 0 0 -1
    outer loop
      vertex 1.5 -1.99847 0.0999994
      vertex 3.53553 -3.53553 0.0999994
      vertex 3.24724 -3.80203 0.0999994
    endloop
  endfacet
  facet normal -0 0 -1
    outer loop
      vertex 4.04508 2.93893 0.0999994
      vertex 1.5 1.99847 0.0999994
      vertex 3.80203 3.24724 0.0999994
    endloop
  endfacet
  facet normal 0 0 -1
    outer loop
      vertex 1.5 -1.99847 0.0999994
      vertex 3.24724 -3.80203 0.0999994
      vertex 2.93893 -4.04508 0.0999994
    endloop
  endfacet
  facet normal -0 0 -1
    outer loop
      vertex 3.80203 3.24724 0.0999994
      vertex 1.5 1.99847 0.0999994
      vertex 3.53553 3.53553 0.0999994
    endloop
  endfacet
  facet normal 0 0 -1
    outer loop
      vertex 1.46946 -2.02254 0.0999994
      vertex 2.93893 -4.04508 0.0999994
      vertex 2.61249 -4.2632 0.0999994
    endloop
  endfacet
  facet normal -0 0 -1
    outer loop
      vertex 3.53553 3.53553 0.0999994
      vertex 1.5 1.99847 0.0999994
      vertex 3.24724 3.80203 0.0999994
    endloop
  endfacet
  facet normal 0 0 -1
    outer loop
      vertex 1.30625 -2.1316 0.0999994
      vertex 2.61249 -4.2632 0.0999994
      vertex 2.26995 -4.45503 0.0999994
    endloop
  endfacet
  facet normal -0 0 -1
    outer loop
      vertex 3.24724 3.80203 0.0999994
      vertex 1.5 1.99847 0.0999994
      vertex 2.93893 4.04508 0.0999994
    endloop
  endfacet
  facet normal 0 0 -1
    outer loop
      vertex 1.13498 -2.22752 0.0999994
      vertex 2.26995 -4.45503 0.0999994
      vertex 1.91342 -4.6194 0.0999994
    endloop
  endfacet
  facet normal 0 0 -1
    outer loop
      vertex 1.46946 2.02254 0.0999994
      vertex 2.93893 4.04508 0.0999994
      vertex 1.5 1.99847 0.0999994
    endloop
  endfacet
  facet normal 0 0 -1
    outer loop
      vertex 0.956708 -2.3097 0.0999994
      vertex 1.91342 -4.6194 0.0999994
      vertex 1.54508 -4.75528 0.0999994
    endloop
  endfacet
  facet normal -0 0 -1
    outer loop
      vertex 2.93893 4.04508 0.0999994
      vertex 1.46946 2.02254 0.0999994
      vertex 2.61249 4.2632 0.0999994
    endloop
  endfacet
  facet normal 0 0 -1
    outer loop
      vertex 1.30625 2.1316 0.0999994
      vertex 2.61249 4.2632 0.0999994
      vertex 1.46946 2.02254 0.0999994
    endloop
  endfacet
  facet normal 0 0 -1
    outer loop
      vertex 2.93893 -4.04508 0.0999994
      vertex 1.46946 -2.02254 0.0999994
      vertex 1.5 -1.99847 0.0999994
    endloop
  endfacet
  facet normal 0 0 -1
    outer loop
      vertex 2.61249 -4.2632 0.0999994
      vertex 1.30625 -2.1316 0.0999994
      vertex 1.46946 -2.02254 0.0999994
    endloop
  endfacet
  facet normal 0 0 -1
    outer loop
      vertex 0.772542 -2.37764 0.0999994
      vertex 1.54508 -4.75528 0.0999994
      vertex 1.16723 -4.86185 0.0999994
    endloop
  endfacet
  facet normal 0 0 -1
    outer loop
      vertex 2.26995 -4.45503 0.0999994
      vertex 1.13498 -2.22752 0.0999994
      vertex 1.30625 -2.1316 0.0999994
    endloop
  endfacet
  facet normal 0 0 -1
    outer loop
      vertex 1.91342 -4.6194 0.0999994
      vertex 0.956708 -2.3097 0.0999994
      vertex 1.13498 -2.22752 0.0999994
    endloop
  endfacet
  facet normal 0 0 -1
    outer loop
      vertex 0.583613 -2.43092 0.0999994
      vertex 1.16723 -4.86185 0.0999994
      vertex 0.782172 -4.93844 0.0999994
    endloop
  endfacet
  facet normal 0 0 -1
    outer loop
      vertex 1.54508 -4.75528 0.0999994
      vertex 0.772542 -2.37764 0.0999994
      vertex 0.956708 -2.3097 0.0999994
    endloop
  endfacet
  facet normal 0 0 -1
    outer loop
      vertex 1.16723 -4.86185 0.0999994
      vertex 0.583613 -2.43092 0.0999994
      vertex 0.772542 -2.37764 0.0999994
    endloop
  endfacet
  facet normal 0 0 -1
    outer loop
      vertex 0.391086 -2.46922 0.0999994
      vertex 0.782172 -4.93844 0.0999994
      vertex 0.392295 -4.98459 0.0999994
    endloop
  endfacet
  facet normal 0 0 -1
    outer loop
      vertex 0.782172 -4.93844 0.0999994
      vertex 0.391086 -2.46922 0.0999994
      vertex 0.583613 -2.43092 0.0999994
    endloop
  endfacet
  facet normal 0 0 -1
    outer loop
      vertex 0.392295 -4.98459 0.0999994
      vertex 0.196147 -2.49229 0.0999994
      vertex 0.391086 -2.46922 0.0999994
    endloop
  endfacet
  facet normal 0 0 -1
    outer loop
      vertex 0 -5 0.0999994
      vertex 0.196147 -2.49229 0.0999994
      vertex 0.392295 -4.98459 0.0999994
    endloop
  endfacet
  facet normal 0 0 -1
    outer loop
      vertex 0 -5 0.0999994
      vertex 0 -2.5 0.0999994
      vertex 0.196147 -2.49229 0.0999994
    endloop
  endfacet
  facet normal 0 0 -1
    outer loop
      vertex 0 -5 0.0999994
      vertex -0.196147 -2.49229 0.0999994
      vertex 0 -2.5 0.0999994
    endloop
  endfacet
  facet normal 0 0 -1
    outer loop
      vertex -0.392295 -4.98459 0.0999994
      vertex -0.196147 -2.49229 0.0999994
      vertex 0 -5 0.0999994
    endloop
  endfacet
  facet normal -0 0 -1
    outer loop
      vertex -0.196147 -2.49229 0.0999994
      vertex -0.392295 -4.98459 0.0999994
      vertex -0.391086 -2.46922 0.0999994
    endloop
  endfacet
  facet normal 0 0 -1
    outer loop
      vertex -0.782172 -4.93844 0.0999994
      vertex -0.391086 -2.46922 0.0999994
      vertex -0.392295 -4.98459 0.0999994
    endloop
  endfacet
  facet normal -0 0 -1
    outer loop
      vertex -0.391086 -2.46922 0.0999994
      vertex -0.782172 -4.93844 0.0999994
      vertex -0.583613 -2.43092 0.0999994
    endloop
  endfacet
  facet normal 0 0 -1
    outer loop
      vertex -1.16723 -4.86185 0.0999994
      vertex -0.583613 -2.43092 0.0999994
      vertex -0.782172 -4.93844 0.0999994
    endloop
  endfacet
  facet normal -0 0 -1
    outer loop
      vertex -0.583613 -2.43092 0.0999994
      vertex -1.16723 -4.86185 0.0999994
      vertex -0.772542 -2.37764 0.0999994
    endloop
  endfacet
  facet normal 0 0 -1
    outer loop
      vertex -1.54508 -4.75528 0.0999994
      vertex -0.772542 -2.37764 0.0999994
      vertex -1.16723 -4.86185 0.0999994
    endloop
  endfacet
  facet normal -0 0 -1
    outer loop
      vertex -0.772542 -2.37764 0.0999994
      vertex -1.54508 -4.75528 0.0999994
      vertex -0.956708 -2.3097 0.0999994
    endloop
  endfacet
  facet normal 0 0 -1
    outer loop
      vertex -1.91342 -4.6194 0.0999994
      vertex -0.956708 -2.3097 0.0999994
      vertex -1.54508 -4.75528 0.0999994
    endloop
  endfacet
  facet normal -0 0 -1
    outer loop
      vertex -0.956708 -2.3097 0.0999994
      vertex -1.91342 -4.6194 0.0999994
      vertex -1.13498 -2.22752 0.0999994
    endloop
  endfacet
  facet normal 0 0 -1
    outer loop
      vertex -2.26995 -4.45503 0.0999994
      vertex -1.13498 -2.22752 0.0999994
      vertex -1.91342 -4.6194 0.0999994
    endloop
  endfacet
  facet normal 0 0 -1
    outer loop
      vertex -2.61249 -4.2632 0.0999994
      vertex -1.30625 -2.1316 0.0999994
      vertex -2.26995 -4.45503 0.0999994
    endloop
  endfacet
  facet normal -0 0 -1
    outer loop
      vertex -1.13498 -2.22752 0.0999994
      vertex -2.26995 -4.45503 0.0999994
      vertex -1.30625 -2.1316 0.0999994
    endloop
  endfacet
  facet normal -0 0 -1
    outer loop
      vertex 2.61249 4.2632 0.0999994
      vertex 1.30625 2.1316 0.0999994
      vertex 2.26995 4.45503 0.0999994
    endloop
  endfacet
  facet normal 0 0 -1
    outer loop
      vertex 1.13498 2.22752 0.0999994
      vertex 2.26995 4.45503 0.0999994
      vertex 1.30625 2.1316 0.0999994
    endloop
  endfacet
  facet normal -0 0 -1
    outer loop
      vertex 2.26995 4.45503 0.0999994
      vertex 1.13498 2.22752 0.0999994
      vertex 1.91342 4.6194 0.0999994
    endloop
  endfacet
  facet normal 0 0 -1
    outer loop
      vertex 0.956708 2.3097 0.0999994
      vertex 1.91342 4.6194 0.0999994
      vertex 1.13498 2.22752 0.0999994
    endloop
  endfacet
  facet normal -0 0 -1
    outer loop
      vertex 1.91342 4.6194 0.0999994
      vertex 0.956708 2.3097 0.0999994
      vertex 1.54508 4.75528 0.0999994
    endloop
  endfacet
  facet normal 0 0 -1
    outer loop
      vertex 0.772542 2.37764 0.0999994
      vertex 1.54508 4.75528 0.0999994
      vertex 0.956708 2.3097 0.0999994
    endloop
  endfacet
  facet normal -0 0 -1
    outer loop
      vertex 1.54508 4.75528 0.0999994
      vertex 0.772542 2.37764 0.0999994
      vertex 1.16723 4.86185 0.0999994
    endloop
  endfacet
  facet normal 0 0 -1
    outer loop
      vertex 0.583613 2.43092 0.0999994
      vertex 1.16723 4.86185 0.0999994
      vertex 0.772542 2.37764 0.0999994
    endloop
  endfacet
  facet normal -0 0 -1
    outer loop
      vertex 1.16723 4.86185 0.0999994
      vertex 0.583613 2.43092 0.0999994
      vertex 0.782172 4.93844 0.0999994
    endloop
  endfacet
  facet normal 0 0 -1
    outer loop
      vertex 0.391086 2.46922 0.0999994
      vertex 0.782172 4.93844 0.0999994
      vertex 0.583613 2.43092 0.0999994
    endloop
  endfacet
  facet normal -0 0 -1
    outer loop
      vertex 0.782172 4.93844 0.0999994
      vertex 0.391086 2.46922 0.0999994
      vertex 0.392295 4.98459 0.0999994
    endloop
  endfacet
  facet normal 0 0 -1
    outer loop
      vertex 0.196147 2.49229 0.0999994
      vertex 0.392295 4.98459 0.0999994
      vertex 0.391086 2.46922 0.0999994
    endloop
  endfacet
  facet normal 0 0 -1
    outer loop
      vertex 0 2.5 0.0999994
      vertex 0.392295 4.98459 0.0999994
      vertex 0.196147 2.49229 0.0999994
    endloop
  endfacet
  facet normal 0 0 -1
    outer loop
      vertex 0 2.5 0.0999994
      vertex 0 5 0.0999994
      vertex 0.392295 4.98459 0.0999994
    endloop
  endfacet
  facet normal 0 0 -1
    outer loop
      vertex -0.196147 2.49229 0.0999994
      vertex 0 5 0.0999994
      vertex 0 2.5 0.0999994
    endloop
  endfacet
  facet normal 0 0 -1
    outer loop
      vertex -0.392295 4.98459 0.0999994
      vertex -0.196147 2.49229 0.0999994
      vertex -0.391086 2.46922 0.0999994
    endloop
  endfacet
  facet normal 0 0 -1
    outer loop
      vertex -0.196147 2.49229 0.0999994
      vertex -0.392295 4.98459 0.0999994
      vertex 0 5 0.0999994
    endloop
  endfacet
  facet normal 0 0 -1
    outer loop
      vertex -0.782172 4.93844 0.0999994
      vertex -0.391086 2.46922 0.0999994
      vertex -0.583613 2.43092 0.0999994
    endloop
  endfacet
  facet normal 0 0 -1
    outer loop
      vertex -1.16723 4.86185 0.0999994
      vertex -0.583613 2.43092 0.0999994
      vertex -0.772542 2.37764 0.0999994
    endloop
  endfacet
  facet normal 0 0 -1
    outer loop
      vertex -0.391086 2.46922 0.0999994
      vertex -0.782172 4.93844 0.0999994
      vertex -0.392295 4.98459 0.0999994
    endloop
  endfacet
  facet normal 0 0 -1
    outer loop
      vertex -1.54508 4.75528 0.0999994
      vertex -0.772542 2.37764 0.0999994
      vertex -0.956708 2.3097 0.0999994
    endloop
  endfacet
  facet normal 0 0 -1
    outer loop
      vertex -1.91342 4.6194 0.0999994
      vertex -0.956708 2.3097 0.0999994
      vertex -1.13498 2.22752 0.0999994
    endloop
  endfacet
  facet normal 0 0 -1
    outer loop
      vertex -0.583613 2.43092 0.0999994
      vertex -1.16723 4.86185 0.0999994
      vertex -0.782172 4.93844 0.0999994
    endloop
  endfacet
  facet normal 0 0 -1
    outer loop
      vertex -2.26995 4.45503 0.0999994
      vertex -1.13498 2.22752 0.0999994
      vertex -1.30625 2.1316 0.0999994
    endloop
  endfacet
  facet normal 0 0 -1
    outer loop
      vertex -2.61249 4.2632 0.0999994
      vertex -1.30625 2.1316 0.0999994
      vertex -1.46946 2.02254 0.0999994
    endloop
  endfacet
  facet normal 0 0 -1
    outer loop
      vertex -2.93893 4.04508 0.0999994
      vertex -1.46946 2.02254 0.0999994
      vertex -1.5 1.99847 0.0999994
    endloop
  endfacet
  facet normal 0 0 -1
    outer loop
      vertex -0.772542 2.37764 0.0999994
      vertex -1.54508 4.75528 0.0999994
      vertex -1.16723 4.86185 0.0999994
    endloop
  endfacet
  facet normal -0 0 -1
    outer loop
      vertex -1.30625 -2.1316 0.0999994
      vertex -2.61249 -4.2632 0.0999994
      vertex -1.46946 -2.02254 0.0999994
    endloop
  endfacet
  facet normal 0 0 -1
    outer loop
      vertex -2.93893 -4.04508 0.0999994
      vertex -1.46946 -2.02254 0.0999994
      vertex -2.61249 -4.2632 0.0999994
    endloop
  endfacet
  facet normal 0 0 -1
    outer loop
      vertex -0.956708 2.3097 0.0999994
      vertex -1.91342 4.6194 0.0999994
      vertex -1.54508 4.75528 0.0999994
    endloop
  endfacet
  facet normal -0 0 -1
    outer loop
      vertex -1.46946 -2.02254 0.0999994
      vertex -2.93893 -4.04508 0.0999994
      vertex -1.5 -1.99847 0.0999994
    endloop
  endfacet
  facet normal 0 0 -1
    outer loop
      vertex -1.13498 2.22752 0.0999994
      vertex -2.26995 4.45503 0.0999994
      vertex -1.91342 4.6194 0.0999994
    endloop
  endfacet
  facet normal 0 0 -1
    outer loop
      vertex -3.24724 -3.80203 0.0999994
      vertex -1.5 -1.99847 0.0999994
      vertex -2.93893 -4.04508 0.0999994
    endloop
  endfacet
  facet normal 0 0 -1
    outer loop
      vertex -1.30625 2.1316 0.0999994
      vertex -2.61249 4.2632 0.0999994
      vertex -2.26995 4.45503 0.0999994
    endloop
  endfacet
  facet normal 0 0 -1
    outer loop
      vertex -3.53553 -3.53553 0.0999994
      vertex -1.5 -1.99847 0.0999994
      vertex -3.24724 -3.80203 0.0999994
    endloop
  endfacet
  facet normal 0 0 -1
    outer loop
      vertex -1.46946 2.02254 0.0999994
      vertex -2.93893 4.04508 0.0999994
      vertex -2.61249 4.2632 0.0999994
    endloop
  endfacet
  facet normal 0 0 -1
    outer loop
      vertex -3.80203 -3.24724 0.0999994
      vertex -1.5 -1.99847 0.0999994
      vertex -3.53553 -3.53553 0.0999994
    endloop
  endfacet
  facet normal 0 0 -1
    outer loop
      vertex -1.5 1.99847 0.0999994
      vertex -3.24724 3.80203 0.0999994
      vertex -2.93893 4.04508 0.0999994
    endloop
  endfacet
  facet normal 0 0 -1
    outer loop
      vertex -4.04508 -2.93893 0.0999994
      vertex -1.5 -1.99847 0.0999994
      vertex -3.80203 -3.24724 0.0999994
    endloop
  endfacet
  facet normal 0 0 -1
    outer loop
      vertex -1.5 1.99847 0.0999994
      vertex -3.53553 3.53553 0.0999994
      vertex -3.24724 3.80203 0.0999994
    endloop
  endfacet
  facet normal 0 0 -1
    outer loop
      vertex -4.2632 -2.61249 0.0999994
      vertex -1.5 -1.99847 0.0999994
      vertex -4.04508 -2.93893 0.0999994
    endloop
  endfacet
  facet normal 0 0 -1
    outer loop
      vertex -1.5 1.99847 0.0999994
      vertex -3.80203 3.24724 0.0999994
      vertex -3.53553 3.53553 0.0999994
    endloop
  endfacet
  facet normal 0 0 -1
    outer loop
      vertex -4.45503 -2.26995 0.0999994
      vertex -1.5 -1.99847 0.0999994
      vertex -4.2632 -2.61249 0.0999994
    endloop
  endfacet
  facet normal 0 0 -1
    outer loop
      vertex -1.5 1.99847 0.0999994
      vertex -4.04508 2.93893 0.0999994
      vertex -3.80203 3.24724 0.0999994
    endloop
  endfacet
  facet normal 0 0 -1
    outer loop
      vertex -4.6194 -1.91342 0.0999994
      vertex -1.5 -1.99847 0.0999994
      vertex -4.45503 -2.26995 0.0999994
    endloop
  endfacet
  facet normal 0 0 -1
    outer loop
      vertex -1.5 1.99847 0.0999994
      vertex -4.2632 2.61249 0.0999994
      vertex -4.04508 2.93893 0.0999994
    endloop
  endfacet
  facet normal 0 0 -1
    outer loop
      vertex -4.75528 -1.54508 0.0999994
      vertex -1.5 -1.99847 0.0999994
      vertex -4.6194 -1.91342 0.0999994
    endloop
  endfacet
  facet normal 0 0 -1
    outer loop
      vertex -1.5 1.99847 0.0999994
      vertex -4.45503 2.26995 0.0999994
      vertex -4.2632 2.61249 0.0999994
    endloop
  endfacet
  facet normal 0 0 -1
    outer loop
      vertex -4.86185 -1.16723 0.0999994
      vertex -1.5 -1.99847 0.0999994
      vertex -4.75528 -1.54508 0.0999994
    endloop
  endfacet
  facet normal -0 0 -1
    outer loop
      vertex -1.5 1.99847 0.0999994
      vertex -4.6194 1.91342 0.0999994
      vertex -4.45503 2.26995 0.0999994
    endloop
  endfacet
  facet normal 0 0 -1
    outer loop
      vertex -4.93844 -0.782172 0.0999994
      vertex -1.5 -1.99847 0.0999994
      vertex -4.86185 -1.16723 0.0999994
    endloop
  endfacet
  facet normal 0 0 -1
    outer loop
      vertex -1.5 1.99847 0.0999994
      vertex -4.75528 1.54508 0.0999994
      vertex -4.6194 1.91342 0.0999994
    endloop
  endfacet
  facet normal 0 0 -1
    outer loop
      vertex -4.98459 -0.392295 0.0999994
      vertex -1.5 -1.99847 0.0999994
      vertex -4.93844 -0.782172 0.0999994
    endloop
  endfacet
  facet normal 0 0 -1
    outer loop
      vertex -1.5 1.99847 0.0999994
      vertex -4.86185 1.16723 0.0999994
      vertex -4.75528 1.54508 0.0999994
    endloop
  endfacet
  facet normal 0 0 -1
    outer loop
      vertex -5 0 0.0999994
      vertex -1.5 -1.99847 0.0999994
      vertex -4.98459 -0.392295 0.0999994
    endloop
  endfacet
  facet normal 0 0 -1
    outer loop
      vertex -1.5 1.99847 0.0999994
      vertex -4.93844 0.782172 0.0999994
      vertex -4.86185 1.16723 0.0999994
    endloop
  endfacet
  facet normal 0 0 -1
    outer loop
      vertex -1.5 -1.99847 0.0999994
      vertex -5 0 0.0999994
      vertex -1.5 1.99847 0.0999994
    endloop
  endfacet
  facet normal 0 0 -1
    outer loop
      vertex -1.5 1.99847 0.0999994
      vertex -4.98459 0.392295 0.0999994
      vertex -4.93844 0.782172 0.0999994
    endloop
  endfacet
  facet normal 0 0 -1
    outer loop
      vertex -1.5 1.99847 0.0999994
      vertex -5 0 0.0999994
      vertex -4.98459 0.392295 0.0999994
    endloop
  endfacet
  facet normal 0.980787 0.195083 0
    outer loop
      vertex 4.93844 0.782172 11.1
      vertex 4.86185 1.16723 0.0999994
      vertex 4.86185 1.16723 11.1
    endloop
  endfacet
  facet normal 0.980787 0.195083 0
    outer loop
      vertex 4.86185 1.16723 0.0999994
      vertex 4.93844 0.782172 11.1
      vertex 4.93844 0.782172 0.0999994
    endloop
  endfacet
  facet normal 0.993067 0.11755 0
    outer loop
      vertex 4.98459 0.392295 11.1
      vertex 4.93844 0.782172 0.0999994
      vertex 4.93844 0.782172 11.1
    endloop
  endfacet
  facet normal 0.993067 0.11755 0
    outer loop
      vertex 4.93844 0.782172 0.0999994
      vertex 4.98459 0.392295 11.1
      vertex 4.98459 0.392295 0.0999994
    endloop
  endfacet
  facet normal 0.962452 0.271453 0
    outer loop
      vertex 4.86185 1.16723 11.1
      vertex 4.75528 1.54508 0.0999994
      vertex 4.75528 1.54508 11.1
    endloop
  endfacet
  facet normal 0.962452 0.271453 0
    outer loop
      vertex 4.75528 1.54508 0.0999994
      vertex 4.86185 1.16723 11.1
      vertex 4.86185 1.16723 0.0999994
    endloop
  endfacet
  facet normal 0.872498 0.488618 0
    outer loop
      vertex 4.45503 2.26995 11.1
      vertex 4.2632 2.61249 0.0999994
      vertex 4.2632 2.61249 11.1
    endloop
  endfacet
  facet normal 0.872498 0.488618 0
    outer loop
      vertex 4.2632 2.61249 0.0999994
      vertex 4.45503 2.26995 11.1
      vertex 4.45503 2.26995 0.0999994
    endloop
  endfacet
  facet normal 0.83147 0.55557 0
    outer loop
      vertex 4.2632 2.61249 11.1
      vertex 4.04508 2.93893 0.0999994
      vertex 4.04508 2.93893 11.1
    endloop
  endfacet
  facet normal 0.83147 0.55557 0
    outer loop
      vertex 4.04508 2.93893 0.0999994
      vertex 4.2632 2.61249 11.1
      vertex 4.2632 2.61249 0.0999994
    endloop
  endfacet
  facet normal 0.908136 0.418675 0
    outer loop
      vertex 4.6194 1.91342 11.1
      vertex 4.45503 2.26995 0.0999994
      vertex 4.45503 2.26995 11.1
    endloop
  endfacet
  facet normal 0.908136 0.418675 0
    outer loop
      vertex 4.45503 2.26995 0.0999994
      vertex 4.6194 1.91342 11.1
      vertex 4.6194 1.91342 0.0999994
    endloop
  endfacet
  facet normal 0.271453 0.962452 -0
    outer loop
      vertex 1.54508 4.75528 0.0999994
      vertex 1.16723 4.86185 11.1
      vertex 1.54508 4.75528 11.1
    endloop
  endfacet
  facet normal 0.271453 0.962452 0
    outer loop
      vertex 1.16723 4.86185 11.1
      vertex 1.54508 4.75528 0.0999994
      vertex 1.16723 4.86185 0.0999994
    endloop
  endfacet
  facet normal 0.3461 0.938198 -0
    outer loop
      vertex 1.91342 4.6194 0.0999994
      vertex 1.54508 4.75528 11.1
      vertex 1.91342 4.6194 11.1
    endloop
  endfacet
  facet normal 0.3461 0.938198 0
    outer loop
      vertex 1.54508 4.75528 11.1
      vertex 1.91342 4.6194 0.0999994
      vertex 1.54508 4.75528 0.0999994
    endloop
  endfacet
  facet normal 0.11755 0.993067 -0
    outer loop
      vertex 0.782172 4.93844 0.0999994
      vertex 0.392295 4.98459 11.1
      vertex 0.782172 4.93844 11.1
    endloop
  endfacet
  facet normal 0.11755 0.993067 0
    outer loop
      vertex 0.392295 4.98459 11.1
      vertex 0.782172 4.93844 0.0999994
      vertex 0.392295 4.98459 0.0999994
    endloop
  endfacet
  facet normal 0.488618 0.872498 -0
    outer loop
      vertex 2.61249 4.2632 0.0999994
      vertex 2.26995 4.45503 11.1
      vertex 2.61249 4.2632 11.1
    endloop
  endfacet
  facet normal 0.488618 0.872498 0
    outer loop
      vertex 2.26995 4.45503 11.1
      vertex 2.61249 4.2632 0.0999994
      vertex 2.26995 4.45503 0.0999994
    endloop
  endfacet
  facet normal 0.619091 0.785319 -0
    outer loop
      vertex 3.24724 3.80203 0.0999994
      vertex 2.93893 4.04508 11.1
      vertex 3.24724 3.80203 11.1
    endloop
  endfacet
  facet normal 0.619091 0.785319 0
    outer loop
      vertex 2.93893 4.04508 11.1
      vertex 3.24724 3.80203 0.0999994
      vertex 2.93893 4.04508 0.0999994
    endloop
  endfacet
  facet normal -0.962452 0.271453 0
    outer loop
      vertex -4.86185 1.16723 0.0999994
      vertex -4.75528 1.54508 11.1
      vertex -4.75528 1.54508 0.0999994
    endloop
  endfacet
  facet normal -0.962452 0.271453 0
    outer loop
      vertex -4.75528 1.54508 11.1
      vertex -4.86185 1.16723 0.0999994
      vertex -4.86185 1.16723 11.1
    endloop
  endfacet
  facet normal -0.83147 0.55557 0
    outer loop
      vertex -4.2632 2.61249 0.0999994
      vertex -4.04508 2.93893 11.1
      vertex -4.04508 2.93893 0.0999994
    endloop
  endfacet
  facet normal -0.83147 0.55557 0
    outer loop
      vertex -4.04508 2.93893 11.1
      vertex -4.2632 2.61249 0.0999994
      vertex -4.2632 2.61249 11.1
    endloop
  endfacet
  facet normal -0.872498 0.488618 0
    outer loop
      vertex -4.45503 2.26995 0.0999994
      vertex -4.2632 2.61249 11.1
      vertex -4.2632 2.61249 0.0999994
    endloop
  endfacet
  facet normal -0.872498 0.488618 0
    outer loop
      vertex -4.2632 2.61249 11.1
      vertex -4.45503 2.26995 0.0999994
      vertex -4.45503 2.26995 11.1
    endloop
  endfacet
  facet normal -0.938198 0.3461 0
    outer loop
      vertex -4.75528 1.54508 0.0999994
      vertex -4.6194 1.91342 11.1
      vertex -4.6194 1.91342 0.0999994
    endloop
  endfacet
  facet normal -0.938198 0.3461 0
    outer loop
      vertex -4.6194 1.91342 11.1
      vertex -4.75528 1.54508 0.0999994
      vertex -4.75528 1.54508 11.1
    endloop
  endfacet
  facet normal -0.993067 0.11755 0
    outer loop
      vertex -4.98459 0.392295 0.0999994
      vertex -4.93844 0.782172 11.1
      vertex -4.93844 0.782172 0.0999994
    endloop
  endfacet
  facet normal -0.993067 0.11755 0
    outer loop
      vertex -4.93844 0.782172 11.1
      vertex -4.98459 0.392295 0.0999994
      vertex -4.98459 0.392295 11.1
    endloop
  endfacet
  facet normal 0 0 1
    outer loop
      vertex 4.98459 0.392295 11.1
      vertex 4.98459 -0.392295 11.1
      vertex 5 0 11.1
    endloop
  endfacet
  facet normal 0 0 1
    outer loop
      vertex 4.93844 0.782172 11.1
      vertex 4.98459 -0.392295 11.1
      vertex 4.98459 0.392295 11.1
    endloop
  endfacet
  facet normal 0 0 1
    outer loop
      vertex 4.93844 0.782172 11.1
      vertex 4.93844 -0.782172 11.1
      vertex 4.98459 -0.392295 11.1
    endloop
  endfacet
  facet normal 0 0 1
    outer loop
      vertex 4.86185 1.16723 11.1
      vertex 4.93844 -0.782172 11.1
      vertex 4.93844 0.782172 11.1
    endloop
  endfacet
  facet normal 0 0 1
    outer loop
      vertex 4.86185 1.16723 11.1
      vertex 4.86185 -1.16723 11.1
      vertex 4.93844 -0.782172 11.1
    endloop
  endfacet
  facet normal 0 0 1
    outer loop
      vertex 4.75528 1.54508 11.1
      vertex 4.86185 -1.16723 11.1
      vertex 4.86185 1.16723 11.1
    endloop
  endfacet
  facet normal 0 0 1
    outer loop
      vertex 4.75528 1.54508 11.1
      vertex 4.75528 -1.54508 11.1
      vertex 4.86185 -1.16723 11.1
    endloop
  endfacet
  facet normal 0 0 1
    outer loop
      vertex 4.6194 1.91342 11.1
      vertex 4.75528 -1.54508 11.1
      vertex 4.75528 1.54508 11.1
    endloop
  endfacet
  facet normal 0 0 1
    outer loop
      vertex 4.6194 1.91342 11.1
      vertex 4.6194 -1.91342 11.1
      vertex 4.75528 -1.54508 11.1
    endloop
  endfacet
  facet normal 0 0 1
    outer loop
      vertex 4.45503 2.26995 11.1
      vertex 4.6194 -1.91342 11.1
      vertex 4.6194 1.91342 11.1
    endloop
  endfacet
  facet normal 0 0 1
    outer loop
      vertex 4.45503 2.26995 11.1
      vertex 4.45503 -2.26995 11.1
      vertex 4.6194 -1.91342 11.1
    endloop
  endfacet
  facet normal 0 0 1
    outer loop
      vertex 4.2632 2.61249 11.1
      vertex 4.45503 -2.26995 11.1
      vertex 4.45503 2.26995 11.1
    endloop
  endfacet
  facet normal 0 0 1
    outer loop
      vertex 4.2632 2.61249 11.1
      vertex 4.2632 -2.61249 11.1
      vertex 4.45503 -2.26995 11.1
    endloop
  endfacet
  facet normal 0 0 1
    outer loop
      vertex 4.04508 2.93893 11.1
      vertex 4.2632 -2.61249 11.1
      vertex 4.2632 2.61249 11.1
    endloop
  endfacet
  facet normal 0 0 1
    outer loop
      vertex 4.04508 2.93893 11.1
      vertex 4.04508 -2.93893 11.1
      vertex 4.2632 -2.61249 11.1
    endloop
  endfacet
  facet normal 0 0 1
    outer loop
      vertex 3.80203 3.24724 11.1
      vertex 4.04508 -2.93893 11.1
      vertex 4.04508 2.93893 11.1
    endloop
  endfacet
  facet normal 0 0 1
    outer loop
      vertex 3.80203 3.24724 11.1
      vertex 3.80203 -3.24724 11.1
      vertex 4.04508 -2.93893 11.1
    endloop
  endfacet
  facet normal 0 0 1
    outer loop
      vertex 3.53553 3.53553 11.1
      vertex 3.80203 -3.24724 11.1
      vertex 3.80203 3.24724 11.1
    endloop
  endfacet
  facet normal 0 0 1
    outer loop
      vertex 3.53553 3.53553 11.1
      vertex 3.53553 -3.53553 11.1
      vertex 3.80203 -3.24724 11.1
    endloop
  endfacet
  facet normal 0 0 1
    outer loop
      vertex 3.24724 3.80203 11.1
      vertex 3.53553 -3.53553 11.1
      vertex 3.53553 3.53553 11.1
    endloop
  endfacet
  facet normal 0 0 1
    outer loop
      vertex 3.24724 3.80203 11.1
      vertex 3.24724 -3.80203 11.1
      vertex 3.53553 -3.53553 11.1
    endloop
  endfacet
  facet normal 0 0 1
    outer loop
      vertex 2.93893 4.04508 11.1
      vertex 3.24724 -3.80203 11.1
      vertex 3.24724 3.80203 11.1
    endloop
  endfacet
  facet normal 0 0 1
    outer loop
      vertex 2.93893 4.04508 11.1
      vertex 2.93893 -4.04508 11.1
      vertex 3.24724 -3.80203 11.1
    endloop
  endfacet
  facet normal 0 0 1
    outer loop
      vertex 2.61249 4.2632 11.1
      vertex 2.93893 -4.04508 11.1
      vertex 2.93893 4.04508 11.1
    endloop
  endfacet
  facet normal 0 0 1
    outer loop
      vertex 2.61249 4.2632 11.1
      vertex 2.61249 -4.2632 11.1
      vertex 2.93893 -4.04508 11.1
    endloop
  endfacet
  facet normal 0 0 1
    outer loop
      vertex 2.26995 4.45503 11.1
      vertex 2.61249 -4.2632 11.1
      vertex 2.61249 4.2632 11.1
    endloop
  endfacet
  facet normal 0 0 1
    outer loop
      vertex 2.26995 4.45503 11.1
      vertex 2.26995 -4.45503 11.1
      vertex 2.61249 -4.2632 11.1
    endloop
  endfacet
  facet normal 0 0 1
    outer loop
      vertex 1.91342 4.6194 11.1
      vertex 2.26995 -4.45503 11.1
      vertex 2.26995 4.45503 11.1
    endloop
  endfacet
  facet normal 0 0 1
    outer loop
      vertex 1.91342 4.6194 11.1
      vertex 1.91342 -4.6194 11.1
      vertex 2.26995 -4.45503 11.1
    endloop
  endfacet
  facet normal 0 0 1
    outer loop
      vertex 1.54508 4.75528 11.1
      vertex 1.91342 -4.6194 11.1
      vertex 1.91342 4.6194 11.1
    endloop
  endfacet
  facet normal 0 0 1
    outer loop
      vertex 1.54508 4.75528 11.1
      vertex 1.54508 -4.75528 11.1
      vertex 1.91342 -4.6194 11.1
    endloop
  endfacet
  facet normal 0 0 1
    outer loop
      vertex 1.16723 4.86185 11.1
      vertex 1.54508 -4.75528 11.1
      vertex 1.54508 4.75528 11.1
    endloop
  endfacet
  facet normal 0 0 1
    outer loop
      vertex 1.16723 4.86185 11.1
      vertex 1.16723 -4.86185 11.1
      vertex 1.54508 -4.75528 11.1
    endloop
  endfacet
  facet normal 0 0 1
    outer loop
      vertex 0.782172 4.93844 11.1
      vertex 1.16723 -4.86185 11.1
      vertex 1.16723 4.86185 11.1
    endloop
  endfacet
  facet normal 0 0 1
    outer loop
      vertex 0.782172 4.93844 11.1
      vertex 0.782172 -4.93844 11.1
      vertex 1.16723 -4.86185 11.1
    endloop
  endfacet
  facet normal 0 0 1
    outer loop
      vertex 0.392295 4.98459 11.1
      vertex 0.782172 -4.93844 11.1
      vertex 0.782172 4.93844 11.1
    endloop
  endfacet
  facet normal 0 0 1
    outer loop
      vertex 0.392295 4.98459 11.1
      vertex 0.392295 -4.98459 11.1
      vertex 0.782172 -4.93844 11.1
    endloop
  endfacet
  facet normal 0 0 1
    outer loop
      vertex 0 5 11.1
      vertex 0.392295 -4.98459 11.1
      vertex 0.392295 4.98459 11.1
    endloop
  endfacet
  facet normal 0 0 1
    outer loop
      vertex 0 5 11.1
      vertex 0 -5 11.1
      vertex 0.392295 -4.98459 11.1
    endloop
  endfacet
  facet normal -0 0 1
    outer loop
      vertex -0.392295 4.98459 11.1
      vertex 0 -5 11.1
      vertex 0 5 11.1
    endloop
  endfacet
  facet normal 0 0 1
    outer loop
      vertex -0.392295 4.98459 11.1
      vertex -0.392295 -4.98459 11.1
      vertex 0 -5 11.1
    endloop
  endfacet
  facet normal -0 0 1
    outer loop
      vertex -0.782172 4.93844 11.1
      vertex -0.392295 -4.98459 11.1
      vertex -0.392295 4.98459 11.1
    endloop
  endfacet
  facet normal 0 0 1
    outer loop
      vertex -0.782172 4.93844 11.1
      vertex -0.782172 -4.93844 11.1
      vertex -0.392295 -4.98459 11.1
    endloop
  endfacet
  facet normal -0 0 1
    outer loop
      vertex -1.16723 4.86185 11.1
      vertex -0.782172 -4.93844 11.1
      vertex -0.782172 4.93844 11.1
    endloop
  endfacet
  facet normal 0 0 1
    outer loop
      vertex -1.16723 4.86185 11.1
      vertex -1.16723 -4.86185 11.1
      vertex -0.782172 -4.93844 11.1
    endloop
  endfacet
  facet normal -0 0 1
    outer loop
      vertex -1.54508 4.75528 11.1
      vertex -1.16723 -4.86185 11.1
      vertex -1.16723 4.86185 11.1
    endloop
  endfacet
  facet normal 0 0 1
    outer loop
      vertex -1.54508 4.75528 11.1
      vertex -1.54508 -4.75528 11.1
      vertex -1.16723 -4.86185 11.1
    endloop
  endfacet
  facet normal -0 0 1
    outer loop
      vertex -1.91342 4.6194 11.1
      vertex -1.54508 -4.75528 11.1
      vertex -1.54508 4.75528 11.1
    endloop
  endfacet
  facet normal 0 0 1
    outer loop
      vertex -1.91342 4.6194 11.1
      vertex -1.91342 -4.6194 11.1
      vertex -1.54508 -4.75528 11.1
    endloop
  endfacet
  facet normal -0 0 1
    outer loop
      vertex -2.26995 4.45503 11.1
      vertex -1.91342 -4.6194 11.1
      vertex -1.91342 4.6194 11.1
    endloop
  endfacet
  facet normal 0 0 1
    outer loop
      vertex -2.26995 4.45503 11.1
      vertex -2.26995 -4.45503 11.1
      vertex -1.91342 -4.6194 11.1
    endloop
  endfacet
  facet normal -0 0 1
    outer loop
      vertex -2.61249 4.2632 11.1
      vertex -2.26995 -4.45503 11.1
      vertex -2.26995 4.45503 11.1
    endloop
  endfacet
  facet normal 0 0 1
    outer loop
      vertex -2.61249 4.2632 11.1
      vertex -2.61249 -4.2632 11.1
      vertex -2.26995 -4.45503 11.1
    endloop
  endfacet
  facet normal -0 0 1
    outer loop
      vertex -2.93893 4.04508 11.1
      vertex -2.61249 -4.2632 11.1
      vertex -2.61249 4.2632 11.1
    endloop
  endfacet
  facet normal 0 0 1
    outer loop
      vertex -2.93893 4.04508 11.1
      vertex -2.93893 -4.04508 11.1
      vertex -2.61249 -4.2632 11.1
    endloop
  endfacet
  facet normal -0 0 1
    outer loop
      vertex -3.24724 3.80203 11.1
      vertex -2.93893 -4.04508 11.1
      vertex -2.93893 4.04508 11.1
    endloop
  endfacet
  facet normal 0 0 1
    outer loop
      vertex -3.24724 3.80203 11.1
      vertex -3.24724 -3.80203 11.1
      vertex -2.93893 -4.04508 11.1
    endloop
  endfacet
  facet normal -0 0 1
    outer loop
      vertex -3.53553 3.53553 11.1
      vertex -3.24724 -3.80203 11.1
      vertex -3.24724 3.80203 11.1
    endloop
  endfacet
  facet normal 0 0 1
    outer loop
      vertex -3.53553 3.53553 11.1
      vertex -3.53553 -3.53553 11.1
      vertex -3.24724 -3.80203 11.1
    endloop
  endfacet
  facet normal -0 0 1
    outer loop
      vertex -3.80203 3.24724 11.1
      vertex -3.53553 -3.53553 11.1
      vertex -3.53553 3.53553 11.1
    endloop
  endfacet
  facet normal 0 0 1
    outer loop
      vertex -3.80203 3.24724 11.1
      vertex -3.80203 -3.24724 11.1
      vertex -3.53553 -3.53553 11.1
    endloop
  endfacet
  facet normal -0 0 1
    outer loop
      vertex -4.04508 2.93893 11.1
      vertex -3.80203 -3.24724 11.1
      vertex -3.80203 3.24724 11.1
    endloop
  endfacet
  facet normal 0 0 1
    outer loop
      vertex -4.04508 2.93893 11.1
      vertex -4.04508 -2.93893 11.1
      vertex -3.80203 -3.24724 11.1
    endloop
  endfacet
  facet normal -0 0 1
    outer loop
      vertex -4.2632 2.61249 11.1
      vertex -4.04508 -2.93893 11.1
      vertex -4.04508 2.93893 11.1
    endloop
  endfacet
  facet normal 0 0 1
    outer loop
      vertex -4.2632 2.61249 11.1
      vertex -4.2632 -2.61249 11.1
      vertex -4.04508 -2.93893 11.1
    endloop
  endfacet
  facet normal -0 0 1
    outer loop
      vertex -4.45503 2.26995 11.1
      vertex -4.2632 -2.61249 11.1
      vertex -4.2632 2.61249 11.1
    endloop
  endfacet
  facet normal 0 0 1
    outer loop
      vertex -4.45503 2.26995 11.1
      vertex -4.45503 -2.26995 11.1
      vertex -4.2632 -2.61249 11.1
    endloop
  endfacet
  facet normal -0 0 1
    outer loop
      vertex -4.6194 1.91342 11.1
      vertex -4.45503 -2.26995 11.1
      vertex -4.45503 2.26995 11.1
    endloop
  endfacet
  facet normal 0 0 1
    outer loop
      vertex -4.6194 1.91342 11.1
      vertex -4.6194 -1.91342 11.1
      vertex -4.45503 -2.26995 11.1
    endloop
  endfacet
  facet normal -0 0 1
    outer loop
      vertex -4.75528 1.54508 11.1
      vertex -4.6194 -1.91342 11.1
      vertex -4.6194 1.91342 11.1
    endloop
  endfacet
  facet normal 0 0 1
    outer loop
      vertex -4.75528 1.54508 11.1
      vertex -4.75528 -1.54508 11.1
      vertex -4.6194 -1.91342 11.1
    endloop
  endfacet
  facet normal -0 0 1
    outer loop
      vertex -4.86185 1.16723 11.1
      vertex -4.75528 -1.54508 11.1
      vertex -4.75528 1.54508 11.1
    endloop
  endfacet
  facet normal 0 0 1
    outer loop
      vertex -4.86185 1.16723 11.1
      vertex -4.86185 -1.16723 11.1
      vertex -4.75528 -1.54508 11.1
    endloop
  endfacet
  facet normal -0 0 1
    outer loop
      vertex -4.93844 0.782172 11.1
      vertex -4.86185 -1.16723 11.1
      vertex -4.86185 1.16723 11.1
    endloop
  endfacet
  facet normal 0 0 1
    outer loop
      vertex -4.93844 0.782172 11.1
      vertex -4.93844 -0.782172 11.1
      vertex -4.86185 -1.16723 11.1
    endloop
  endfacet
  facet normal -0 0 1
    outer loop
      vertex -4.98459 0.392295 11.1
      vertex -4.93844 -0.782172 11.1
      vertex -4.93844 0.782172 11.1
    endloop
  endfacet
  facet normal 0 0 1
    outer loop
      vertex -4.98459 0.392295 11.1
      vertex -4.98459 -0.392295 11.1
      vertex -4.93844 -0.782172 11.1
    endloop
  endfacet
  facet normal 0 -0 1
    outer loop
      vertex -4.98459 -0.392295 11.1
      vertex -4.98459 0.392295 11.1
      vertex -5 0 11.1
    endloop
  endfacet
  facet normal -0.488618 0.872498 0
    outer loop
      vertex -2.26995 4.45503 0.0999994
      vertex -2.61249 4.2632 11.1
      vertex -2.26995 4.45503 11.1
    endloop
  endfacet
  facet normal -0.488618 0.872498 0
    outer loop
      vertex -2.61249 4.2632 11.1
      vertex -2.26995 4.45503 0.0999994
      vertex -2.61249 4.2632 0.0999994
    endloop
  endfacet
  facet normal -0.418675 0.908136 0
    outer loop
      vertex -1.91342 4.6194 0.0999994
      vertex -2.26995 4.45503 11.1
      vertex -1.91342 4.6194 11.1
    endloop
  endfacet
  facet normal -0.418675 0.908136 0
    outer loop
      vertex -2.26995 4.45503 11.1
      vertex -1.91342 4.6194 0.0999994
      vertex -2.26995 4.45503 0.0999994
    endloop
  endfacet
  facet normal -0.55557 0.83147 0
    outer loop
      vertex -2.61249 4.2632 0.0999994
      vertex -2.93893 4.04508 11.1
      vertex -2.61249 4.2632 11.1
    endloop
  endfacet
  facet normal -0.55557 0.83147 0
    outer loop
      vertex -2.93893 4.04508 11.1
      vertex -2.61249 4.2632 0.0999994
      vertex -2.93893 4.04508 0.0999994
    endloop
  endfacet
  facet normal -0.271453 0.962452 0
    outer loop
      vertex -1.16723 4.86185 0.0999994
      vertex -1.54508 4.75528 11.1
      vertex -1.16723 4.86185 11.1
    endloop
  endfacet
  facet normal -0.271453 0.962452 0
    outer loop
      vertex -1.54508 4.75528 11.1
      vertex -1.16723 4.86185 0.0999994
      vertex -1.54508 4.75528 0.0999994
    endloop
  endfacet
  facet normal -0.0392514 0.999229 0
    outer loop
      vertex 0 5 0.0999994
      vertex -0.392295 4.98459 11.1
      vertex 0 5 11.1
    endloop
  endfacet
  facet normal -0.0392514 0.999229 0
    outer loop
      vertex -0.392295 4.98459 11.1
      vertex 0 5 0.0999994
      vertex -0.392295 4.98459 0.0999994
    endloop
  endfacet
  facet normal 0.0392514 -0.999229 0
    outer loop
      vertex 0 -5 0.0999994
      vertex 0.392295 -4.98459 11.1
      vertex 0 -5 11.1
    endloop
  endfacet
  facet normal 0.0392514 -0.999229 0
    outer loop
      vertex 0.392295 -4.98459 11.1
      vertex 0 -5 0.0999994
      vertex 0.392295 -4.98459 0.0999994
    endloop
  endfacet
  facet normal 0.55557 -0.83147 0
    outer loop
      vertex 2.61249 -4.2632 0.0999994
      vertex 2.93893 -4.04508 11.1
      vertex 2.61249 -4.2632 11.1
    endloop
  endfacet
  facet normal 0.55557 -0.83147 0
    outer loop
      vertex 2.93893 -4.04508 11.1
      vertex 2.61249 -4.2632 0.0999994
      vertex 2.93893 -4.04508 0.0999994
    endloop
  endfacet
  facet normal 0.678811 -0.734313 0
    outer loop
      vertex 3.24724 -3.80203 0.0999994
      vertex 3.53553 -3.53553 11.1
      vertex 3.24724 -3.80203 11.1
    endloop
  endfacet
  facet normal 0.678811 -0.734313 0
    outer loop
      vertex 3.53553 -3.53553 11.1
      vertex 3.24724 -3.80203 0.0999994
      vertex 3.53553 -3.53553 0.0999994
    endloop
  endfacet
  facet normal 0.418675 -0.908136 0
    outer loop
      vertex 1.91342 -4.6194 0.0999994
      vertex 2.26995 -4.45503 11.1
      vertex 1.91342 -4.6194 11.1
    endloop
  endfacet
  facet normal 0.418675 -0.908136 0
    outer loop
      vertex 2.26995 -4.45503 11.1
      vertex 1.91342 -4.6194 0.0999994
      vertex 2.26995 -4.45503 0.0999994
    endloop
  endfacet
  facet normal 0.938198 -0.3461 0
    outer loop
      vertex 4.6194 -1.91342 11.1
      vertex 4.75528 -1.54508 0.0999994
      vertex 4.75528 -1.54508 11.1
    endloop
  endfacet
  facet normal 0.938198 -0.3461 0
    outer loop
      vertex 4.75528 -1.54508 0.0999994
      vertex 4.6194 -1.91342 11.1
      vertex 4.6194 -1.91342 0.0999994
    endloop
  endfacet
  facet normal 0.872498 -0.488618 0
    outer loop
      vertex 4.2632 -2.61249 11.1
      vertex 4.45503 -2.26995 0.0999994
      vertex 4.45503 -2.26995 11.1
    endloop
  endfacet
  facet normal 0.872498 -0.488618 0
    outer loop
      vertex 4.45503 -2.26995 0.0999994
      vertex 4.2632 -2.61249 11.1
      vertex 4.2632 -2.61249 0.0999994
    endloop
  endfacet
  facet normal -0.271453 -0.962452 0
    outer loop
      vertex -1.54508 -4.75528 0.0999994
      vertex -1.16723 -4.86185 11.1
      vertex -1.54508 -4.75528 11.1
    endloop
  endfacet
  facet normal -0.271453 -0.962452 -0
    outer loop
      vertex -1.16723 -4.86185 11.1
      vertex -1.54508 -4.75528 0.0999994
      vertex -1.16723 -4.86185 0.0999994
    endloop
  endfacet
  facet normal -0.488618 -0.872498 0
    outer loop
      vertex -2.61249 -4.2632 0.0999994
      vertex -2.26995 -4.45503 11.1
      vertex -2.61249 -4.2632 11.1
    endloop
  endfacet
  facet normal -0.488618 -0.872498 -0
    outer loop
      vertex -2.26995 -4.45503 11.1
      vertex -2.61249 -4.2632 0.0999994
      vertex -2.26995 -4.45503 0.0999994
    endloop
  endfacet
  facet normal -0.3461 -0.938198 0
    outer loop
      vertex -1.91342 -4.6194 0.0999994
      vertex -1.54508 -4.75528 11.1
      vertex -1.91342 -4.6194 11.1
    endloop
  endfacet
  facet normal -0.3461 -0.938198 -0
    outer loop
      vertex -1.54508 -4.75528 11.1
      vertex -1.91342 -4.6194 0.0999994
      vertex -1.54508 -4.75528 0.0999994
    endloop
  endfacet
  facet normal -0.11755 -0.993067 0
    outer loop
      vertex -0.782172 -4.93844 0.0999994
      vertex -0.392295 -4.98459 11.1
      vertex -0.782172 -4.93844 11.1
    endloop
  endfacet
  facet normal -0.11755 -0.993067 -0
    outer loop
      vertex -0.392295 -4.98459 11.1
      vertex -0.782172 -4.93844 0.0999994
      vertex -0.392295 -4.98459 0.0999994
    endloop
  endfacet
  facet normal -0.872498 -0.488618 0
    outer loop
      vertex -4.2632 -2.61249 0.0999994
      vertex -4.45503 -2.26995 11.1
      vertex -4.45503 -2.26995 0.0999994
    endloop
  endfacet
  facet normal -0.872498 -0.488618 0
    outer loop
      vertex -4.45503 -2.26995 11.1
      vertex -4.2632 -2.61249 0.0999994
      vertex -4.2632 -2.61249 11.1
    endloop
  endfacet
  facet normal -0.908136 -0.418675 0
    outer loop
      vertex -4.45503 -2.26995 0.0999994
      vertex -4.6194 -1.91342 11.1
      vertex -4.6194 -1.91342 0.0999994
    endloop
  endfacet
  facet normal -0.908136 -0.418675 0
    outer loop
      vertex -4.6194 -1.91342 11.1
      vertex -4.45503 -2.26995 0.0999994
      vertex -4.45503 -2.26995 11.1
    endloop
  endfacet
  facet normal -0.83147 -0.55557 0
    outer loop
      vertex -4.04508 -2.93893 0.0999994
      vertex -4.2632 -2.61249 11.1
      vertex -4.2632 -2.61249 0.0999994
    endloop
  endfacet
  facet normal -0.83147 -0.55557 0
    outer loop
      vertex -4.2632 -2.61249 11.1
      vertex -4.04508 -2.93893 0.0999994
      vertex -4.04508 -2.93893 11.1
    endloop
  endfacet
  facet normal -0.938198 -0.3461 0
    outer loop
      vertex -4.6194 -1.91342 0.0999994
      vertex -4.75528 -1.54508 11.1
      vertex -4.75528 -1.54508 0.0999994
    endloop
  endfacet
  facet normal -0.938198 -0.3461 0
    outer loop
      vertex -4.75528 -1.54508 11.1
      vertex -4.6194 -1.91342 0.0999994
      vertex -4.6194 -1.91342 11.1
    endloop
  endfacet
  facet normal -0.999229 -0.0392514 0
    outer loop
      vertex -4.98459 -0.392295 0.0999994
      vertex -5 0 11.1
      vertex -5 0 0.0999994
    endloop
  endfacet
  facet normal -0.999229 -0.0392514 0
    outer loop
      vertex -5 0 11.1
      vertex -4.98459 -0.392295 0.0999994
      vertex -4.98459 -0.392295 11.1
    endloop
  endfacet
  facet normal 0.195083 0.980787 -0
    outer loop
      vertex 1.16723 4.86185 0.0999994
      vertex 0.782172 4.93844 11.1
      vertex 1.16723 4.86185 11.1
    endloop
  endfacet
  facet normal 0.195083 0.980787 0
    outer loop
      vertex 0.782172 4.93844 11.1
      vertex 1.16723 4.86185 0.0999994
      vertex 0.782172 4.93844 0.0999994
    endloop
  endfacet
  facet normal 0.678811 0.734313 -0
    outer loop
      vertex 3.53553 3.53553 0.0999994
      vertex 3.24724 3.80203 11.1
      vertex 3.53553 3.53553 11.1
    endloop
  endfacet
  facet normal 0.678811 0.734313 0
    outer loop
      vertex 3.24724 3.80203 11.1
      vertex 3.53553 3.53553 0.0999994
      vertex 3.24724 3.80203 0.0999994
    endloop
  endfacet
  facet normal -0.734313 0.678811 0
    outer loop
      vertex -3.80203 3.24724 0.0999994
      vertex -3.53553 3.53553 11.1
      vertex -3.53553 3.53553 0.0999994
    endloop
  endfacet
  facet normal -0.734313 0.678811 0
    outer loop
      vertex -3.53553 3.53553 11.1
      vertex -3.80203 3.24724 0.0999994
      vertex -3.80203 3.24724 11.1
    endloop
  endfacet
  facet normal -0.980787 0.195083 0
    outer loop
      vertex -4.93844 0.782172 0.0999994
      vertex -4.86185 1.16723 11.1
      vertex -4.86185 1.16723 0.0999994
    endloop
  endfacet
  facet normal -0.980787 0.195083 0
    outer loop
      vertex -4.86185 1.16723 11.1
      vertex -4.93844 0.782172 0.0999994
      vertex -4.93844 0.782172 11.1
    endloop
  endfacet
  facet normal -0.619091 0.785319 0
    outer loop
      vertex -2.93893 4.04508 0.0999994
      vertex -3.24724 3.80203 11.1
      vertex -2.93893 4.04508 11.1
    endloop
  endfacet
  facet normal -0.619091 0.785319 0
    outer loop
      vertex -3.24724 3.80203 11.1
      vertex -2.93893 4.04508 0.0999994
      vertex -3.24724 3.80203 0.0999994
    endloop
  endfacet
  facet normal -0.195083 0.980787 0
    outer loop
      vertex -0.782172 4.93844 0.0999994
      vertex -1.16723 4.86185 11.1
      vertex -0.782172 4.93844 11.1
    endloop
  endfacet
  facet normal -0.195083 0.980787 0
    outer loop
      vertex -1.16723 4.86185 11.1
      vertex -0.782172 4.93844 0.0999994
      vertex -1.16723 4.86185 0.0999994
    endloop
  endfacet
  facet normal 0.11755 -0.993067 0
    outer loop
      vertex 0.392295 -4.98459 0.0999994
      vertex 0.782172 -4.93844 11.1
      vertex 0.392295 -4.98459 11.1
    endloop
  endfacet
  facet normal 0.11755 -0.993067 0
    outer loop
      vertex 0.782172 -4.93844 11.1
      vertex 0.392295 -4.98459 0.0999994
      vertex 0.782172 -4.93844 0.0999994
    endloop
  endfacet
  facet normal 0.195083 -0.980787 0
    outer loop
      vertex 0.782172 -4.93844 0.0999994
      vertex 1.16723 -4.86185 11.1
      vertex 0.782172 -4.93844 11.1
    endloop
  endfacet
  facet normal 0.195083 -0.980787 0
    outer loop
      vertex 1.16723 -4.86185 11.1
      vertex 0.782172 -4.93844 0.0999994
      vertex 1.16723 -4.86185 0.0999994
    endloop
  endfacet
  facet normal 0.3461 -0.938198 0
    outer loop
      vertex 1.54508 -4.75528 0.0999994
      vertex 1.91342 -4.6194 11.1
      vertex 1.54508 -4.75528 11.1
    endloop
  endfacet
  facet normal 0.3461 -0.938198 0
    outer loop
      vertex 1.91342 -4.6194 11.1
      vertex 1.54508 -4.75528 0.0999994
      vertex 1.91342 -4.6194 0.0999994
    endloop
  endfacet
  facet normal 0.619091 -0.785319 0
    outer loop
      vertex 2.93893 -4.04508 0.0999994
      vertex 3.24724 -3.80203 11.1
      vertex 2.93893 -4.04508 11.1
    endloop
  endfacet
  facet normal 0.619091 -0.785319 0
    outer loop
      vertex 3.24724 -3.80203 11.1
      vertex 2.93893 -4.04508 0.0999994
      vertex 3.24724 -3.80203 0.0999994
    endloop
  endfacet
  facet normal 0.488618 -0.872498 0
    outer loop
      vertex 2.26995 -4.45503 0.0999994
      vertex 2.61249 -4.2632 11.1
      vertex 2.26995 -4.45503 11.1
    endloop
  endfacet
  facet normal 0.488618 -0.872498 0
    outer loop
      vertex 2.61249 -4.2632 11.1
      vertex 2.26995 -4.45503 0.0999994
      vertex 2.61249 -4.2632 0.0999994
    endloop
  endfacet
  facet normal 0.83147 -0.55557 0
    outer loop
      vertex 4.04508 -2.93893 11.1
      vertex 4.2632 -2.61249 0.0999994
      vertex 4.2632 -2.61249 11.1
    endloop
  endfacet
  facet normal 0.83147 -0.55557 0
    outer loop
      vertex 4.2632 -2.61249 0.0999994
      vertex 4.04508 -2.93893 11.1
      vertex 4.04508 -2.93893 0.0999994
    endloop
  endfacet
  facet normal 0.734313 -0.678811 0
    outer loop
      vertex 3.53553 -3.53553 11.1
      vertex 3.80203 -3.24724 0.0999994
      vertex 3.80203 -3.24724 11.1
    endloop
  endfacet
  facet normal 0.734313 -0.678811 0
    outer loop
      vertex 3.80203 -3.24724 0.0999994
      vertex 3.53553 -3.53553 11.1
      vertex 3.53553 -3.53553 0.0999994
    endloop
  endfacet
  facet normal 0.785319 -0.619091 0
    outer loop
      vertex 3.80203 -3.24724 11.1
      vertex 4.04508 -2.93893 0.0999994
      vertex 4.04508 -2.93893 11.1
    endloop
  endfacet
  facet normal 0.785319 -0.619091 0
    outer loop
      vertex 4.04508 -2.93893 0.0999994
      vertex 3.80203 -3.24724 11.1
      vertex 3.80203 -3.24724 0.0999994
    endloop
  endfacet
  facet normal 0.908136 -0.418675 0
    outer loop
      vertex 4.45503 -2.26995 11.1
      vertex 4.6194 -1.91342 0.0999994
      vertex 4.6194 -1.91342 11.1
    endloop
  endfacet
  facet normal 0.908136 -0.418675 0
    outer loop
      vertex 4.6194 -1.91342 0.0999994
      vertex 4.45503 -2.26995 11.1
      vertex 4.45503 -2.26995 0.0999994
    endloop
  endfacet
  facet normal 0.980787 -0.195083 0
    outer loop
      vertex 4.86185 -1.16723 11.1
      vertex 4.93844 -0.782172 0.0999994
      vertex 4.93844 -0.782172 11.1
    endloop
  endfacet
  facet normal 0.980787 -0.195083 0
    outer loop
      vertex 4.93844 -0.782172 0.0999994
      vertex 4.86185 -1.16723 11.1
      vertex 4.86185 -1.16723 0.0999994
    endloop
  endfacet
  facet normal 0.993067 -0.11755 0
    outer loop
      vertex 4.93844 -0.782172 11.1
      vertex 4.98459 -0.392295 0.0999994
      vertex 4.98459 -0.392295 11.1
    endloop
  endfacet
  facet normal 0.993067 -0.11755 0
    outer loop
      vertex 4.98459 -0.392295 0.0999994
      vertex 4.93844 -0.782172 11.1
      vertex 4.93844 -0.782172 0.0999994
    endloop
  endfacet
  facet normal -0.55557 -0.83147 0
    outer loop
      vertex -2.93893 -4.04508 0.0999994
      vertex -2.61249 -4.2632 11.1
      vertex -2.93893 -4.04508 11.1
    endloop
  endfacet
  facet normal -0.55557 -0.83147 -0
    outer loop
      vertex -2.61249 -4.2632 11.1
      vertex -2.93893 -4.04508 0.0999994
      vertex -2.61249 -4.2632 0.0999994
    endloop
  endfacet
  facet normal -0.678811 -0.734313 0
    outer loop
      vertex -3.53553 -3.53553 0.0999994
      vertex -3.24724 -3.80203 11.1
      vertex -3.53553 -3.53553 11.1
    endloop
  endfacet
  facet normal -0.678811 -0.734313 -0
    outer loop
      vertex -3.24724 -3.80203 11.1
      vertex -3.53553 -3.53553 0.0999994
      vertex -3.24724 -3.80203 0.0999994
    endloop
  endfacet
  facet normal -0.619091 -0.785319 0
    outer loop
      vertex -3.24724 -3.80203 0.0999994
      vertex -2.93893 -4.04508 11.1
      vertex -3.24724 -3.80203 11.1
    endloop
  endfacet
  facet normal -0.619091 -0.785319 -0
    outer loop
      vertex -2.93893 -4.04508 11.1
      vertex -3.24724 -3.80203 0.0999994
      vertex -2.93893 -4.04508 0.0999994
    endloop
  endfacet
  facet normal -0.418675 -0.908136 0
    outer loop
      vertex -2.26995 -4.45503 0.0999994
      vertex -1.91342 -4.6194 11.1
      vertex -2.26995 -4.45503 11.1
    endloop
  endfacet
  facet normal -0.418675 -0.908136 -0
    outer loop
      vertex -1.91342 -4.6194 11.1
      vertex -2.26995 -4.45503 0.0999994
      vertex -1.91342 -4.6194 0.0999994
    endloop
  endfacet
  facet normal -0.734313 -0.678811 0
    outer loop
      vertex -3.53553 -3.53553 0.0999994
      vertex -3.80203 -3.24724 11.1
      vertex -3.80203 -3.24724 0.0999994
    endloop
  endfacet
  facet normal -0.734313 -0.678811 0
    outer loop
      vertex -3.80203 -3.24724 11.1
      vertex -3.53553 -3.53553 0.0999994
      vertex -3.53553 -3.53553 11.1
    endloop
  endfacet
  facet normal -0.980787 -0.195083 0
    outer loop
      vertex -4.86185 -1.16723 0.0999994
      vertex -4.93844 -0.782172 11.1
      vertex -4.93844 -0.782172 0.0999994
    endloop
  endfacet
  facet normal -0.980787 -0.195083 0
    outer loop
      vertex -4.93844 -0.782172 11.1
      vertex -4.86185 -1.16723 0.0999994
      vertex -4.86185 -1.16723 11.1
    endloop
  endfacet
  facet normal -0.993067 -0.11755 0
    outer loop
      vertex -4.93844 -0.782172 0.0999994
      vertex -4.98459 -0.392295 11.1
      vertex -4.98459 -0.392295 0.0999994
    endloop
  endfacet
  facet normal -0.993067 -0.11755 0
    outer loop
      vertex -4.98459 -0.392295 11.1
      vertex -4.93844 -0.782172 0.0999994
      vertex -4.93844 -0.782172 11.1
    endloop
  endfacet
  facet normal 0.785319 0.619091 0
    outer loop
      vertex 4.04508 2.93893 11.1
      vertex 3.80203 3.24724 0.0999994
      vertex 3.80203 3.24724 11.1
    endloop
  endfacet
  facet normal 0.785319 0.619091 0
    outer loop
      vertex 3.80203 3.24724 0.0999994
      vertex 4.04508 2.93893 11.1
      vertex 4.04508 2.93893 0.0999994
    endloop
  endfacet
  facet normal 0.271453 -0.962452 0
    outer loop
      vertex 1.16723 -4.86185 0.0999994
      vertex 1.54508 -4.75528 11.1
      vertex 1.16723 -4.86185 11.1
    endloop
  endfacet
  facet normal 0.271453 -0.962452 0
    outer loop
      vertex 1.54508 -4.75528 11.1
      vertex 1.16723 -4.86185 0.0999994
      vertex 1.54508 -4.75528 0.0999994
    endloop
  endfacet
  facet normal 0.999229 -0.0392514 0
    outer loop
      vertex 4.98459 -0.392295 11.1
      vertex 5 0 0.0999994
      vertex 5 0 11.1
    endloop
  endfacet
  facet normal 0.999229 -0.0392514 0
    outer loop
      vertex 5 0 0.0999994
      vertex 4.98459 -0.392295 11.1
      vertex 4.98459 -0.392295 0.0999994
    endloop
  endfacet
  facet normal -0.195083 -0.980787 0
    outer loop
      vertex -1.16723 -4.86185 0.0999994
      vertex -0.782172 -4.93844 11.1
      vertex -1.16723 -4.86185 11.1
    endloop
  endfacet
  facet normal -0.195083 -0.980787 -0
    outer loop
      vertex -0.782172 -4.93844 11.1
      vertex -1.16723 -4.86185 0.0999994
      vertex -0.782172 -4.93844 0.0999994
    endloop
  endfacet
  facet normal -0.962452 -0.271453 0
    outer loop
      vertex -4.75528 -1.54508 0.0999994
      vertex -4.86185 -1.16723 11.1
      vertex -4.86185 -1.16723 0.0999994
    endloop
  endfacet
  facet normal -0.962452 -0.271453 0
    outer loop
      vertex -4.86185 -1.16723 11.1
      vertex -4.75528 -1.54508 0.0999994
      vertex -4.75528 -1.54508 11.1
    endloop
  endfacet
endsolid OpenSCAD_Model
